  0
SECTION
  2
HEADER
  9
$ACADVER
  1
AC1015
  9
$ACADMAINTVER
 70
    20
  9
$DWGCODEPAGE
  3
ANSI_1252
  9
$INSBASE
 10
0.0
 20
0.0
 30
0.0
  9
$EXTMIN
 10
-129.843838332672
 20
5.5
 30
0.0
  9
$EXTMAX
 10
-1.999999999996
 20
85.474807139317
 30
0.0
  9
$LIMMIN
 10
-129.843838332672
 20
5.5
  9
$LIMMAX
 10
-1.999999999996
 20
85.474807139317
  9
$ORTHOMODE
 70
     0
  9
$REGENMODE
 70
     1
  9
$FILLMODE
 70
     1
  9
$QTEXTMODE
 70
     0
  9
$MIRRTEXT
 70
     0
  9
$LTSCALE
 40
1.0
  9
$ATTMODE
 70
     1
  9
$TEXTSIZE
 40
2.5
  9
$TRACEWID
 40
1.0
  9
$TEXTSTYLE
  7
Standard
  9
$CLAYER
  8
0
  9
$CELTYPE
  6
ByLayer
  9
$CECOLOR
 62
   256
  9
$CELTSCALE
 40
1.0
  9
$DISPSILH
 70
     0
  9
$DIMSCALE
 40
1.0
  9
$DIMASZ
 40
2.5
  9
$DIMEXO
 40
0.625
  9
$DIMDLI
 40
3.75
  9
$DIMRND
 40
0.0
  9
$DIMDLE
 40
0.0
  9
$DIMEXE
 40
1.25
  9
$DIMTP
 40
0.0
  9
$DIMTM
 40
0.0
  9
$DIMTXT
 40
2.5
  9
$DIMCEN
 40
2.5
  9
$DIMTSZ
 40
0.0
  9
$DIMTOL
 70
     0
  9
$DIMLIM
 70
     0
  9
$DIMTIH
 70
     0
  9
$DIMTOH
 70
     0
  9
$DIMSE1
 70
     0
  9
$DIMSE2
 70
     0
  9
$DIMTAD
 70
     1
  9
$DIMZIN
 70
     8
  9
$DIMBLK
  1

  9
$DIMASO
 70
     1
  9
$DIMSHO
 70
     1
  9
$DIMPOST
  1

  9
$DIMAPOST
  1

  9
$DIMALT
 70
     0
  9
$DIMALTD
 70
     3
  9
$DIMALTF
 40
0.03937007874
  9
$DIMLFAC
 40
1.0
  9
$DIMTOFL
 70
     1
  9
$DIMTVP
 40
0.0
  9
$DIMTIX
 70
     0
  9
$DIMSOXD
 70
     0
  9
$DIMSAH
 70
     0
  9
$DIMBLK1
  1

  9
$DIMBLK2
  1

  9
$DIMSTYLE
  2
ISO-25
  9
$DIMCLRD
 70
     0
  9
$DIMCLRE
 70
     0
  9
$DIMCLRT
 70
     0
  9
$DIMTFAC
 40
1.0
  9
$DIMGAP
 40
0.625
  9
$DIMJUST
 70
     0
  9
$DIMSD1
 70
     0
  9
$DIMSD2
 70
     0
  9
$DIMTOLJ
 70
     0
  9
$DIMTZIN
 70
     8
  9
$DIMALTZ
 70
     0
  9
$DIMALTTZ
 70
     0
  9
$DIMUPT
 70
     0
  9
$DIMDEC
 70
     2
  9
$DIMTDEC
 70
     2
  9
$DIMALTU
 70
     2
  9
$DIMALTTD
 70
     3
  9
$DIMTXSTY
  7
Standard
  9
$DIMAUNIT
 70
     0
  9
$DIMADEC
 70
     0
  9
$DIMALTRND
 40
0.0
  9
$DIMAZIN
 70
     0
  9
$DIMDSEP
 70
    44
  9
$DIMATFIT
 70
     3
  9
$DIMFRAC
 70
     0
  9
$DIMLDRBLK
  1

  9
$DIMLUNIT
 70
     2
  9
$DIMLWD
 70
    -2
  9
$DIMLWE
 70
    -2
  9
$DIMTMOVE
 70
     0
  9
$LUNITS
 70
     2
  9
$LUPREC
 70
     4
  9
$SKETCHINC
 40
1.0
  9
$FILLETRAD
 40
0.0
  9
$AUNITS
 70
     0
  9
$AUPREC
 70
     0
  9
$MENU
  1
.
  9
$ELEVATION
 40
0.0
  9
$PELEVATION
 40
0.0
  9
$THICKNESS
 40
0.0
  9
$LIMCHECK
 70
     0
  9
$CHAMFERA
 40
0.0
  9
$CHAMFERB
 40
0.0
  9
$CHAMFERC
 40
0.0
  9
$CHAMFERD
 40
0.0
  9
$SKPOLY
 70
     0
  9
$TDCREATE
 40
2456236.994979560841
  9
$TDUCREATE
 40
2456237.328312892932
  9
$TDUPDATE
 40
2456236.997909063008
  9
$TDUUPDATE
 40
2456237.331242396031
  9
$TDINDWG
 40
0.0029298727
  9
$TDUSRTIMER
 40
0.0029298727
  9
$USRTIMER
 70
     1
  9
$ANGBASE
 50
0.0
  9
$ANGDIR
 70
     0
  9
$PDMODE
 70
     0
  9
$PDSIZE
 40
0.0
  9
$PLINEWID
 40
0.0
  9
$SPLFRAME
 70
     0
  9
$SPLINETYPE
 70
     6
  9
$SPLINESEGS
 70
     8
  9
$HANDSEED
  5
d7
  9
$SURFTAB1
 70
     6
  9
$SURFTAB2
 70
     6
  9
$SURFTYPE
 70
     6
  9
$SURFU
 70
     6
  9
$SURFV
 70
     6
  9
$UCSBASE
  2

  9
$UCSNAME
  2

  9
$UCSORG
 10
0.0
 20
0.0
 30
0.0
  9
$UCSXDIR
 10
1.0
 20
0.0
 30
0.0
  9
$UCSYDIR
 10
0.0
 20
1.0
 30
0.0
  9
$UCSORTHOREF
  2

  9
$UCSORTHOVIEW
 70
     0
  9
$UCSORGTOP
 10
0.0
 20
0.0
 30
0.0
  9
$UCSORGBOTTOM
 10
0.0
 20
0.0
 30
0.0
  9
$UCSORGLEFT
 10
0.0
 20
0.0
 30
0.0
  9
$UCSORGRIGHT
 10
0.0
 20
0.0
 30
0.0
  9
$UCSORGFRONT
 10
0.0
 20
0.0
 30
0.0
  9
$UCSORGBACK
 10
0.0
 20
0.0
 30
0.0
  9
$PUCSBASE
  2

  9
$PUCSNAME
  2

  9
$PUCSORG
 10
0.0
 20
0.0
 30
0.0
  9
$PUCSXDIR
 10
1.0
 20
0.0
 30
0.0
  9
$PUCSYDIR
 10
0.0
 20
1.0
 30
0.0
  9
$PUCSORTHOREF
  2

  9
$PUCSORTHOVIEW
 70
     0
  9
$PUCSORGTOP
 10
0.0
 20
0.0
 30
0.0
  9
$PUCSORGBOTTOM
 10
0.0
 20
0.0
 30
0.0
  9
$PUCSORGLEFT
 10
0.0
 20
0.0
 30
0.0
  9
$PUCSORGRIGHT
 10
0.0
 20
0.0
 30
0.0
  9
$PUCSORGFRONT
 10
0.0
 20
0.0
 30
0.0
  9
$PUCSORGBACK
 10
0.0
 20
0.0
 30
0.0
  9
$USERI1
 70
     0
  9
$USERI2
 70
     0
  9
$USERI3
 70
     0
  9
$USERI4
 70
     0
  9
$USERI5
 70
     0
  9
$USERR1
 40
0.0
  9
$USERR2
 40
0.0
  9
$USERR3
 40
0.0
  9
$USERR4
 40
0.0
  9
$USERR5
 40
0.0
  9
$WORLDVIEW
 70
     1
  9
$SHADEDGE
 70
     3
  9
$SHADEDIF
 70
    70
  9
$TILEMODE
 70
     1
  9
$MAXACTVP
 70
    64
  9
$PINSBASE
 10
0.0
 20
0.0
 30
0.0
  9
$PLIMCHECK
 70
     0
  9
$PEXTMIN
 10
100000000000000000000.0
 20
100000000000000000000.0
 30
100000000000000000000.0
  9
$PEXTMAX
 10
-100000000000000000000.0
 20
-100000000000000000000.0
 30
-100000000000000000000.0
  9
$PLIMMIN
 10
0.0
 20
0.0
  9
$PLIMMAX
 10
420.0
 20
297.0
  9
$UNITMODE
 70
     0
  9
$VISRETAIN
 70
     1
  9
$PLINEGEN
 70
     0
  9
$PSLTSCALE
 70
     1
  9
$TREEDEPTH
 70
  3020
  9
$CMLSTYLE
  2
Standard
  9
$CMLJUST
 70
     0
  9
$CMLSCALE
 40
20.0
  9
$PROXYGRAPHICS
 70
     1
  9
$MEASUREMENT
 70
     1
  9
$CELWEIGHT
370
-1
  9
$ENDCAPS
280
     0
  9
$JOINSTYLE
280
     0
  9
$LWDISPLAY
290
0
  9
$INSUNITS
 70
     0
  9
$HYPERLINKBASE
  1

  9
$STYLESHEET
  1

  9
$XEDIT
290
1
  9
$CEPSNTYPE
380
0
  9
$PSTYLEMODE
290
1
  9
$FINGERPRINTGUID
  2
{9F64BE1D-7005-473A-A8E1-C681473DCB35}
  9
$VERSIONGUID
  2
{14C65E86-4364-4B17-B71B-D4CF0DEE0ACB}
  9
$EXTNAMES
290
1
  9
$PSVPSCALE
 40
0.0
  9
$OLESTARTUP
290
0
  0
ENDSEC
  0
SECTION
  2
CLASSES
  0
CLASS
  1
ACDBDICTIONARYWDFLT
  2
AcDbDictionaryWithDefault
  3
ObjectDBX Classes
 90
     0
280
     0
281
     0
  0
CLASS
  1
MATERIAL
  2
AcDbMaterial
  3
ObjectDBX Classes
 90
  1153
280
     0
281
     0
  0
CLASS
  1
VISUALSTYLE
  2
AcDbVisualStyle
  3
ObjectDBX Classes
 90
  4095
280
     0
281
     0
  0
CLASS
  1
SCALE
  2
AcDbScale
  3
ObjectDBX Classes
 90
  1153
280
     0
281
     0
  0
CLASS
  1
TABLESTYLE
  2
AcDbTableStyle
  3
ObjectDBX Classes
 90
  4095
280
     0
281
     0
  0
CLASS
  1
MLEADERSTYLE
  2
AcDbMLeaderStyle
  3
ACDB_MLEADERSTYLE_CLASS
 90
  4095
280
     0
281
     0
  0
CLASS
  1
DICTIONARYVAR
  2
AcDbDictionaryVar
  3
ObjectDBX Classes
 90
     0
280
     0
281
     0
  0
CLASS
  1
CELLSTYLEMAP
  2
AcDbCellStyleMap
  3
ObjectDBX Classes
 90
  1152
280
     0
281
     0
  0
CLASS
  1
ACDBPLACEHOLDER
  2
AcDbPlaceHolder
  3
ObjectDBX Classes
 90
     0
280
     0
281
     0
  0
CLASS
  1
LAYOUT
  2
AcDbLayout
  3
ObjectDBX Classes
 90
     0
280
     0
281
     0
  0
ENDSEC
  0
SECTION
  2
TABLES
  0
TABLE
  2
VPORT
  5
8
330
0
100
AcDbSymbolTable
 70
     1
  0
VPORT
  5
5F
330
8
100
AcDbSymbolTableRecord
100
AcDbViewportTableRecord
  2
*Active
 70
     0
 10
0.0
 20
0.0
 11
1.0
 21
1.0
 12
362.004492939666
 22
148.5
 13
0.0
 23
0.0
 14
10.0
 24
10.0
 15
10.0
 25
10.0
 16
0.0
 26
0.0
 36
1.0
 17
-129.843838332672
 27
5.5
 37
0.0
 40
297.0
 41
2.437740693196
 42
50.0
 43
0.0
 44
0.0
 50
0.0
 51
0.0
 71
     0
 72
  1000
 73
     1
 74
     3
 75
     0
 76
     0
 77
     0
 78
     0
281
     0
 65
     1
110
0.0
120
0.0
130
0.0
111
1.0
121
0.0
131
0.0
112
0.0
122
1.0
132
0.0
 79
     0
146
0.0
  0
ENDTAB
  0
TABLE
  2
LTYPE
  5
5
330
0
100
AcDbSymbolTable
 70
     3
  0
LTYPE
  5
63
330
5
100
AcDbSymbolTableRecord
100
AcDbLinetypeTableRecord
  2
ByBlock
 70
     0
  3

 72
    65
 73
     0
 40
0.0
  0
LTYPE
  5
64
330
5
100
AcDbSymbolTableRecord
100
AcDbLinetypeTableRecord
  2
ByLayer
 70
     0
  3

 72
    65
 73
     0
 40
0.0
  0
LTYPE
  5
65
330
5
100
AcDbSymbolTableRecord
100
AcDbLinetypeTableRecord
  2
Continuous
 70
     0
  3
Solid line
 72
    65
 73
     0
 40
0.0
  0
ENDTAB
  0
TABLE
  2
LAYER
  5
2
330
0
100
AcDbSymbolTable
 70
     2
  0
LAYER
  5
5C
102
{ACAD_XDICTIONARY
360
9A
102
}
330
2
100
AcDbSymbolTableRecord
100
AcDbLayerTableRecord
 70
     0
  6
Continuous
370
-3
390
F
  2
0
 62
     7
  0
LAYER
  5
b8
100
AcDbSymbolTableRecord
100
AcDbLayerTableRecord
  6
Continuous
 70
     0
370
-3
390
F
  2
Plate
 62
     3
  0
ENDTAB
  0
TABLE
  2
STYLE
  5
3
330
0
100
AcDbSymbolTable
 70
     2
  0
STYLE
  5
5D
330
3
100
AcDbSymbolTableRecord
100
AcDbTextStyleTableRecord
  2
Standard
 70
     0
 40
0.0
 41
1.0
 50
0.0
 71
     0
 42
2.5
  3
txt
  4

  0
STYLE
  5
62
330
3
100
AcDbSymbolTableRecord
100
AcDbTextStyleTableRecord
  2
Annotative
 70
     0
 40
0.0
 41
1.0
 50
0.0
 71
     0
 42
0.2
  3

  4

1001
AcadAnnotative
1000
AnnotativeData
1002
{
1070
     1
1070
     1
1002
}
  0
ENDTAB
  0
TABLE
  2
VIEW
  5
6
330
0
100
AcDbSymbolTable
 70
     0
  0
ENDTAB
  0
TABLE
  2
UCS
  5
7
330
0
100
AcDbSymbolTable
 70
     0
  0
ENDTAB
  0
TABLE
  2
APPID
  5
9
330
0
100
AcDbSymbolTable
 70
     5
  0
APPID
  5
5E
330
9
100
AcDbSymbolTableRecord
100
AcDbRegAppTableRecord
  2
ACAD
 70
     0
  0
APPID
  5
66
330
9
100
AcDbSymbolTableRecord
100
AcDbRegAppTableRecord
  2
AcadAnnotative
 70
     0
  0
APPID
  5
70
330
9
100
AcDbSymbolTableRecord
100
AcDbRegAppTableRecord
  2
ACAD_MLEADERVER
 70
     0
  0
APPID
  5
80
330
9
100
AcDbSymbolTableRecord
100
AcDbRegAppTableRecord
  2
ACAD_EXEMPT_FROM_CAD_STANDARDS
 70
     0
  0
APPID
  5
AF
330
9
100
AcDbSymbolTableRecord
100
AcDbRegAppTableRecord
  2
ACAD_DSTYLE_DIMJOGGED_JOGANGLE_SYMBOL
 70
     0
  0
ENDTAB
  0
TABLE
  2
DIMSTYLE
  5
A
330
0
100
AcDbSymbolTable
100
AcDbDimStyleTable
 71
     1
340
60
 70
     2
  0
DIMSTYLE
105
60
330
A
100
AcDbSymbolTableRecord
100
AcDbDimStyleTableRecord
  2
ISO-25
 70
     0
 41
2.5
 42
0.625
 43
3.75
 44
1.25
 73
     0
 74
     0
 77
     1
 78
     8
140
2.5
141
2.5
143
0.03937007874
147
0.625
171
     3
172
     1
271
     2
272
     2
274
     3
278
44
283
     0
284
     8
340
5D
1001
ACAD_DSTYLE_DIMJOGGED_JOGANGLE_SYMBOL
1070
   384
1040
1.570796326794896
  0
DIMSTYLE
105
61
330
A
100
AcDbSymbolTableRecord
100
AcDbDimStyleTableRecord
  2
Annotative
 70
     0
340
5D
1001
AcadAnnotative
1000
AnnotativeData
1002
{
1070
     1
1070
     1
1002
}
  0
ENDTAB
  0
TABLE
  2
BLOCK_RECORD
  5
1
330
0
100
AcDbSymbolTable
 70
     3
  0
BLOCK_RECORD
  5
75
330
1
100
AcDbSymbolTableRecord
100
AcDbBlockTableRecord
  2
*Model_Space
340
78
  0
BLOCK_RECORD
  5
71
330
1
100
AcDbSymbolTableRecord
100
AcDbBlockTableRecord
  2
*Paper_Space
340
74
  0
BLOCK_RECORD
  5
79
330
1
100
AcDbSymbolTableRecord
100
AcDbBlockTableRecord
  2
*Paper_Space0
340
7C
  0
ENDTAB
  0
ENDSEC
  0
SECTION
  2
BLOCKS
  0
BLOCK
  5
76
102
{ACAD_REACTORS
330
75
102
}
100
AcDbEntity
  8
0
100
AcDbBlockBegin
  2
*Model_Space
 70
     0
 10
0.0
 20
0.0
 30
0.0
  3
*Model_Space
  1

  0
ENDBLK
  5
77
102
{ACAD_REACTORS
330
75
102
}
100
AcDbEntity
  8
0
100
AcDbBlockEnd
  0
BLOCK
  5
72
102
{ACAD_REACTORS
330
71
102
}
100
AcDbEntity
 67
     1
  8
0
100
AcDbBlockBegin
  2
*Paper_Space
 70
     0
 10
0.0
 20
0.0
 30
0.0
  3
*Paper_Space
  1

  0
ENDBLK
  5
73
102
{ACAD_REACTORS
330
71
102
}
100
AcDbEntity
 67
     1
  8
0
100
AcDbBlockEnd
  0
BLOCK
  5
7A
102
{ACAD_REACTORS
330
79
102
}
100
AcDbEntity
 67
     1
  8
0
100
AcDbBlockBegin
  2
*Paper_Space0
 70
     0
 10
0.0
 20
0.0
 30
0.0
  3
*Paper_Space0
  1

  0
ENDBLK
  5
7B
102
{ACAD_REACTORS
330
79
102
}
100
AcDbEntity
 67
     1
  8
0
100
AcDbBlockEnd
  0
ENDSEC
  0
SECTION
  2
ENTITIES
  0
CIRCLE
  5
b9
100
AcDbEntity
  8
Plate
100
AcDbCircle
 10
-126.84383833267
 20
75.974807139317
 30
0.0
 40
1.0
  0
CIRCLE
  5
ba
100
AcDbEntity
  8
Plate
100
AcDbCircle
 10
-5.0
 20
72.000000000001
 30
0.0
 40
1.0
  0
SPLINE
  5
bb
100
AcDbEntity
  8
Plate
100
AcDbSpline
 70
     9
 71
     3
 72
    50
 73
    46
 74
     0
 42
0.0000001
 43
0.0000001
 40
120.99965901607
 40
120.99965901607
 40
120.99965901607
 40
120.99965901607
 40
125.99965901607
 40
125.99965901607
 40
125.99965901607
 40
126.99965901607
 40
126.99965901607
 40
126.99965901607
 40
127.99965901607
 40
127.99965901607
 40
127.99965901607
 40
128.99965901607
 40
128.99965901607
 40
128.99965901607
 40
129.99965901607
 40
129.99965901607
 40
129.99965901607
 40
131.49965901607
 40
131.49965901607
 40
131.49965901607
 40
132.49965901607
 40
132.49965901607
 40
132.49965901607
 40
133.49965901607
 40
133.49965901607
 40
133.49965901607
 40
134.49965901607
 40
134.49965901607
 40
134.49965901607
 40
135.49965901607
 40
135.49965901607
 40
135.49965901607
 40
136.99965901607
 40
136.99965901607
 40
136.99965901607
 40
137.99965901607
 40
137.99965901607
 40
137.99965901607
 40
138.99965901607
 40
138.99965901607
 40
138.99965901607
 40
139.99965901607
 40
139.99965901607
 40
139.99965901607
 40
140.99965901607
 40
140.99965901607
 40
140.99965901607
 40
140.99965901607
 10
-9.0
 20
74.5
 30
0.0
 10
-9.0
 20
72.833333333333
 30
0.0
 10
-9.0
 20
71.166666666667
 30
0.0
 10
-8.999999999999
 20
69.5
 30
0.0
 10
-8.999999999999
 20
69.224108
 30
0.0
 10
-8.775891999999
 20
69.0
 30
0.0
 10
-8.499999999999
 20
69.0
 30
0.0
 10
-7.120539999999
 20
69.0
 30
0.0
 10
-5.999999999999
 20
67.879460000001
 30
0.0
 10
-5.999999999999
 20
66.500000000001
 30
0.0
 10
-5.999999999998
 20
65.948216000001
 30
0.0
 10
-5.551783999998
 20
65.500000000001
 30
0.0
 10
-4.999999999998
 20
65.500000000001
 30
0.0
 10
-4.448215999998
 20
65.500000000001
 30
0.0
 10
-3.999999999998
 20
65.948216000001
 30
0.0
 10
-3.999999999999
 20
66.500000000001
 30
0.0
 10
-3.999999999999
 20
67.000000000001
 30
0.0
 10
-3.999999999999
 20
67.500000000001
 30
0.0
 10
-3.999999999999
 20
68.000000000001
 30
0.0
 10
-3.999999999999
 20
68.551784000001
 30
0.0
 10
-4.448215999999
 20
69.000000000001
 30
0.0
 10
-4.999999999999
 20
69.000000000001
 30
0.0
 10
-6.655351999999
 20
69.000000000001
 30
0.0
 10
-7.999999999999
 20
70.344648
 30
0.0
 10
-8.0
 20
72.0
 30
0.0
 10
-8.0
 20
73.655352
 30
0.0
 10
-6.655352000001
 20
75.000000000001
 30
0.0
 10
-5.000000000001
 20
75.000000000001
 30
0.0
 10
-4.448216000001
 20
75.000000000001
 30
0.0
 10
-4.000000000001
 20
75.448216000001
 30
0.0
 10
-4.000000000001
 20
76.000000000001
 30
0.0
 10
-4.000000000001
 20
76.500000000001
 30
0.0
 10
-4.000000000001
 20
77.000000000001
 30
0.0
 10
-4.000000000001
 20
77.500000000001
 30
0.0
 10
-4.000000000001
 20
78.051784000001
 30
0.0
 10
-4.448216000001
 20
78.500000000001
 30
0.0
 10
-5.000000000001
 20
78.500000000001
 30
0.0
 10
-5.551784000001
 20
78.500000000001
 30
0.0
 10
-6.000000000001
 20
78.051784000001
 30
0.0
 10
-6.000000000001
 20
77.500000000001
 30
0.0
 10
-6.000000000001
 20
76.120540000001
 30
0.0
 10
-7.120540000001
 20
75.0
 30
0.0
 10
-8.500000000001
 20
75.0
 30
0.0
 10
-8.775892000001
 20
75.0
 30
0.0
 10
-9.000000000001
 20
74.775892
 30
0.0
 10
-9.000000000001
 20
74.5
 30
0.0
  0
SPLINE
  5
bc
100
AcDbEntity
  8
Plate
100
AcDbSpline
 70
     9
 71
     3
 72
    50
 73
    46
 74
     0
 42
0.0000001
 43
0.0000001
 40
446.850045532237
 40
446.850045532237
 40
446.850045532237
 40
446.850045532237
 40
451.850045532237
 40
451.850045532237
 40
451.850045532237
 40
452.850045532237
 40
452.850045532237
 40
452.850045532237
 40
453.850045532237
 40
453.850045532237
 40
453.850045532237
 40
454.850045532237
 40
454.850045532237
 40
454.850045532237
 40
455.850045532237
 40
455.850045532237
 40
455.850045532237
 40
457.350045532237
 40
457.350045532237
 40
457.350045532237
 40
458.350045532237
 40
458.350045532237
 40
458.350045532237
 40
459.350045532237
 40
459.350045532237
 40
459.350045532237
 40
460.350045532237
 40
460.350045532237
 40
460.350045532237
 40
461.350045532237
 40
461.350045532237
 40
461.350045532237
 40
462.850045532237
 40
462.850045532237
 40
462.850045532237
 40
463.850045532237
 40
463.850045532237
 40
463.850045532237
 40
464.850045532237
 40
464.850045532237
 40
464.850045532237
 40
465.850045532237
 40
465.850045532237
 40
465.850045532237
 40
466.850045532237
 40
466.850045532237
 40
466.850045532237
 40
466.850045532237
 10
-122.843838332669
 20
73.474807139318
 30
0.0
 10
-122.843838332669
 20
75.141473805984
 30
0.0
 10
-122.84383833267
 20
76.808140472651
 30
0.0
 10
-122.84383833267
 20
78.474807139318
 30
0.0
 10
-122.84383833267
 20
78.750699139318
 30
0.0
 10
-123.06794633267
 20
78.974807139318
 30
0.0
 10
-123.34383833267
 20
78.974807139317
 30
0.0
 10
-124.72329833267
 20
78.974807139317
 30
0.0
 10
-125.843838332671
 20
80.095347139317
 30
0.0
 10
-125.843838332671
 20
81.474807139317
 30
0.0
 10
-125.843838332671
 20
82.026591139317
 30
0.0
 10
-126.292054332671
 20
82.474807139317
 30
0.0
 10
-126.843838332671
 20
82.474807139317
 30
0.0
 10
-127.395622332671
 20
82.474807139316
 30
0.0
 10
-127.843838332671
 20
82.026591139316
 30
0.0
 10
-127.843838332671
 20
81.474807139316
 30
0.0
 10
-127.843838332671
 20
80.974807139316
 30
0.0
 10
-127.843838332671
 20
80.474807139316
 30
0.0
 10
-127.843838332671
 20
79.974807139316
 30
0.0
 10
-127.84383833267
 20
79.423023139316
 30
0.0
 10
-127.39562233267
 20
78.974807139316
 30
0.0
 10
-126.84383833267
 20
78.974807139317
 30
0.0
 10
-125.18848633267
 20
78.974807139317
 30
0.0
 10
-123.84383833267
 20
77.630159139317
 30
0.0
 10
-123.84383833267
 20
75.974807139317
 30
0.0
 10
-123.843838332669
 20
74.319455139317
 30
0.0
 10
-125.188486332669
 20
72.974807139317
 30
0.0
 10
-126.843838332669
 20
72.974807139317
 30
0.0
 10
-127.395622332669
 20
72.974807139316
 30
0.0
 10
-127.843838332669
 20
72.526591139316
 30
0.0
 10
-127.843838332669
 20
71.974807139316
 30
0.0
 10
-127.843838332668
 20
71.474807139316
 30
0.0
 10
-127.843838332668
 20
70.974807139316
 30
0.0
 10
-127.843838332668
 20
70.474807139316
 30
0.0
 10
-127.843838332668
 20
69.923023139316
 30
0.0
 10
-127.395622332668
 20
69.474807139316
 30
0.0
 10
-126.843838332668
 20
69.474807139317
 30
0.0
 10
-126.292054332668
 20
69.474807139317
 30
0.0
 10
-125.843838332668
 20
69.923023139317
 30
0.0
 10
-125.843838332668
 20
70.474807139317
 30
0.0
 10
-125.843838332669
 20
71.854267139317
 30
0.0
 10
-124.723298332669
 20
72.974807139317
 30
0.0
 10
-123.343838332669
 20
72.974807139317
 30
0.0
 10
-123.067946332669
 20
72.974807139317
 30
0.0
 10
-122.843838332669
 20
73.198915139318
 30
0.0
 10
-122.843838332669
 20
73.474807139318
 30
0.0
  0
SPLINE
  5
bd
100
AcDbEntity
  8
Plate
100
AcDbSpline
 70
     9
 71
     3
 72
    65
 73
    61
 74
     0
 42
0.0000001
 43
0.0000001
 40
0.0
 40
0.0
 40
0.0
 40
0.0
 40
1.0
 40
1.0
 40
1.0
 40
4.125
 40
4.125
 40
4.125
 40
4.625
 40
4.625
 40
4.625
 40
5.625
 40
5.625
 40
5.625
 40
11.375
 40
11.375
 40
11.375
 40
12.375
 40
12.375
 40
12.375
 40
12.875
 40
12.875
 40
12.875
 40
29.875
 40
29.875
 40
29.875
 40
30.375
 40
30.375
 40
30.375
 40
31.375
 40
31.375
 40
31.375
 40
37.125
 40
37.125
 40
37.125
 40
38.125
 40
38.125
 40
38.125
 40
38.625
 40
38.625
 40
38.625
 40
39.375
 40
39.375
 40
39.375
 40
40.375
 40
40.375
 40
40.375
 40
53.375
 40
53.375
 40
53.375
 40
54.375
 40
54.375
 40
54.375
 40
88.75
 40
88.75
 40
88.75
 40
89.75
 40
89.75
 40
89.75
 40
102.75
 40
102.75
 40
102.75
 40
102.75
 10
-49.25
 20
21.5
 30
0.0
 10
-49.25
 20
21.775892
 30
0.0
 10
-49.025892
 20
22.0
 30
0.0
 10
-48.75
 20
22.0
 30
0.0
 10
-47.708333333333
 20
22.0
 30
0.0
 10
-46.666666666667
 20
22.0
 30
0.0
 10
-45.625
 20
22.0
 30
0.0
 10
-45.625
 20
22.166666666667
 30
0.0
 10
-45.625
 20
22.333333333333
 30
0.0
 10
-45.625
 20
22.5
 30
0.0
 10
-45.625
 20
22.775892
 30
0.0
 10
-45.400892
 20
23.0
 30
0.0
 10
-45.125
 20
23.0
 30
0.0
 10
-43.208333333333
 20
23.0
 30
0.0
 10
-41.291666666667
 20
23.0
 30
0.0
 10
-39.375
 20
23.0
 30
0.0
 10
-39.099108
 20
23.0
 30
0.0
 10
-38.875
 20
22.775892
 30
0.0
 10
-38.875
 20
22.5
 30
0.0
 10
-38.875
 20
22.333333333333
 30
0.0
 10
-38.875
 20
22.166666666667
 30
0.0
 10
-38.875
 20
22.0
 30
0.0
 10
-33.208333333333
 20
22.0
 30
0.0
 10
-27.541666666667
 20
22.0
 30
0.0
 10
-21.875
 20
22.0
 30
0.0
 10
-21.875
 20
22.166666666667
 30
0.0
 10
-21.875
 20
22.333333333333
 30
0.0
 10
-21.875
 20
22.5
 30
0.0
 10
-21.875
 20
22.775892
 30
0.0
 10
-21.650892
 20
23.0
 30
0.0
 10
-21.375
 20
23.0
 30
0.0
 10
-19.458333333333
 20
23.0
 30
0.0
 10
-17.541666666667
 20
23.0
 30
0.0
 10
-15.625
 20
23.0
 30
0.0
 10
-15.349108
 20
23.0
 30
0.0
 10
-15.125
 20
22.775892
 30
0.0
 10
-15.125
 20
22.5
 30
0.0
 10
-15.125
 20
22.333333333333
 30
0.0
 10
-15.125
 20
22.166666666667
 30
0.0
 10
-15.125
 20
22.0
 30
0.0
 10
-14.875
 20
22.0
 30
0.0
 10
-14.625
 20
22.0
 30
0.0
 10
-14.375
 20
22.0
 30
0.0
 10
-14.099108
 20
22.0
 30
0.0
 10
-13.875
 20
21.775892
 30
0.0
 10
-13.875
 20
21.5
 30
0.0
 10
-13.875
 20
17.166666666667
 30
0.0
 10
-13.875
 20
12.833333333333
 30
0.0
 10
-13.875
 20
8.5
 30
0.0
 10
-13.875
 20
8.224108
 30
0.0
 10
-14.099108
 20
8.0
 30
0.0
 10
-14.375
 20
8.0
 30
0.0
 10
-25.833333333333
 20
8.0
 30
0.0
 10
-37.291666666667
 20
8.0
 30
0.0
 10
-48.75
 20
8.0
 30
0.0
 10
-49.025892
 20
8.0
 30
0.0
 10
-49.25
 20
8.224108
 30
0.0
 10
-49.25
 20
8.5
 30
0.0
 10
-49.25
 20
12.833333333333
 30
0.0
 10
-49.25
 20
17.166666666667
 30
0.0
 10
-49.25
 20
21.5
 30
0.0
  0
SPLINE
  5
be
100
AcDbEntity
  8
Plate
100
AcDbSpline
 70
     9
 71
     3
 72
    29
 73
    25
 74
     0
 42
0.0000001
 43
0.0000001
 40
0.0
 40
0.0
 40
0.0
 40
0.0
 40
1.0
 40
1.0
 40
1.0
 40
14.0
 40
14.0
 40
14.0
 40
15.0
 40
15.0
 40
15.0
 40
28.0
 40
28.0
 40
28.0
 40
29.0
 40
29.0
 40
29.0
 40
42.0
 40
42.0
 40
42.0
 40
43.0
 40
43.0
 40
43.0
 40
56.0
 40
56.0
 40
56.0
 40
56.0
 10
-68.25
 20
8.5
 30
0.0
 10
-68.25
 20
8.224108
 30
0.0
 10
-68.025892
 20
8.0
 30
0.0
 10
-67.75
 20
8.0
 30
0.0
 10
-63.416666666667
 20
8.0
 30
0.0
 10
-59.083333333333
 20
8.0
 30
0.0
 10
-54.75
 20
8.0
 30
0.0
 10
-54.474108
 20
8.0
 30
0.0
 10
-54.25
 20
8.224108
 30
0.0
 10
-54.25
 20
8.5
 30
0.0
 10
-54.25
 20
12.833333333333
 30
0.0
 10
-54.25
 20
17.166666666667
 30
0.0
 10
-54.25
 20
21.5
 30
0.0
 10
-54.25
 20
21.775892
 30
0.0
 10
-54.474108
 20
22.0
 30
0.0
 10
-54.75
 20
22.0
 30
0.0
 10
-59.083333333333
 20
22.0
 30
0.0
 10
-63.416666666667
 20
22.0
 30
0.0
 10
-67.75
 20
22.0
 30
0.0
 10
-68.025892
 20
22.0
 30
0.0
 10
-68.25
 20
21.775892
 30
0.0
 10
-68.25
 20
21.5
 30
0.0
 10
-68.25
 20
17.166666666667
 30
0.0
 10
-68.25
 20
12.833333333333
 30
0.0
 10
-68.25
 20
8.5
 30
0.0
  0
SPLINE
  5
bf
100
AcDbEntity
  8
Plate
100
AcDbSpline
 70
     9
 71
     3
 72
    29
 73
    25
 74
     0
 42
0.0000001
 43
0.0000001
 40
0.0
 40
0.0
 40
0.0
 40
0.0
 40
1.0
 40
1.0
 40
1.0
 40
14.0
 40
14.0
 40
14.0
 40
15.0
 40
15.0
 40
15.0
 40
28.0
 40
28.0
 40
28.0
 40
29.0
 40
29.0
 40
29.0
 40
42.0
 40
42.0
 40
42.0
 40
43.0
 40
43.0
 40
43.0
 40
56.0
 40
56.0
 40
56.0
 40
56.0
 10
-96.593838332671
 20
12.474807139317
 30
0.0
 10
-96.593838332671
 20
12.198915139317
 30
0.0
 10
-96.369730332671
 20
11.974807139317
 30
0.0
 10
-96.093838332671
 20
11.974807139317
 30
0.0
 10
-91.760504999338
 20
11.974807139317
 30
0.0
 10
-87.427171666004
 20
11.974807139317
 30
0.0
 10
-83.093838332671
 20
11.974807139317
 30
0.0
 10
-82.817946332671
 20
11.974807139317
 30
0.0
 10
-82.593838332671
 20
12.198915139317
 30
0.0
 10
-82.593838332671
 20
12.474807139317
 30
0.0
 10
-82.593838332671
 20
16.808140472651
 30
0.0
 10
-82.593838332671
 20
21.141473805984
 30
0.0
 10
-82.593838332671
 20
25.474807139317
 30
0.0
 10
-82.593838332671
 20
25.750699139317
 30
0.0
 10
-82.817946332671
 20
25.974807139317
 30
0.0
 10
-83.093838332671
 20
25.974807139317
 30
0.0
 10
-87.427171666004
 20
25.974807139317
 30
0.0
 10
-91.760504999338
 20
25.974807139317
 30
0.0
 10
-96.093838332671
 20
25.974807139317
 30
0.0
 10
-96.369730332671
 20
25.974807139317
 30
0.0
 10
-96.593838332671
 20
25.750699139317
 30
0.0
 10
-96.593838332671
 20
25.474807139317
 30
0.0
 10
-96.593838332671
 20
21.141473805984
 30
0.0
 10
-96.593838332671
 20
16.808140472651
 30
0.0
 10
-96.593838332671
 20
12.474807139317
 30
0.0
  0
SPLINE
  5
c0
100
AcDbEntity
  8
Plate
100
AcDbSpline
 70
     9
 71
     3
 72
    29
 73
    25
 74
     0
 42
0.0000001
 43
0.0000001
 40
0.0
 40
0.0
 40
0.0
 40
0.0
 40
1.0
 40
1.0
 40
1.0
 40
14.0
 40
14.0
 40
14.0
 40
15.0
 40
15.0
 40
15.0
 40
28.0
 40
28.0
 40
28.0
 40
29.0
 40
29.0
 40
29.0
 40
42.0
 40
42.0
 40
42.0
 40
43.0
 40
43.0
 40
43.0
 40
56.0
 40
56.0
 40
56.0
 40
56.0
 10
-117.468838332671
 20
25.974807139317
 30
0.0
 10
-117.744730332671
 20
25.974807139317
 30
0.0
 10
-117.968838332671
 20
25.750699139317
 30
0.0
 10
-117.968838332671
 20
25.474807139317
 30
0.0
 10
-117.968838332671
 20
21.141473805984
 30
0.0
 10
-117.968838332671
 20
16.808140472651
 30
0.0
 10
-117.968838332671
 20
12.474807139317
 30
0.0
 10
-117.968838332671
 20
12.198915139317
 30
0.0
 10
-117.744730332671
 20
11.974807139317
 30
0.0
 10
-117.468838332671
 20
11.974807139317
 30
0.0
 10
-113.135504999338
 20
11.974807139317
 30
0.0
 10
-108.802171666004
 20
11.974807139317
 30
0.0
 10
-104.468838332671
 20
11.974807139317
 30
0.0
 10
-104.192946332671
 20
11.974807139317
 30
0.0
 10
-103.968838332671
 20
12.198915139317
 30
0.0
 10
-103.968838332671
 20
12.474807139317
 30
0.0
 10
-103.968838332671
 20
16.808140472651
 30
0.0
 10
-103.968838332671
 20
21.141473805984
 30
0.0
 10
-103.968838332671
 20
25.474807139317
 30
0.0
 10
-103.968838332671
 20
25.750699139317
 30
0.0
 10
-104.192946332671
 20
25.974807139317
 30
0.0
 10
-104.468838332671
 20
25.974807139317
 30
0.0
 10
-108.802171666004
 20
25.974807139317
 30
0.0
 10
-113.135504999338
 20
25.974807139317
 30
0.0
 10
-117.468838332671
 20
25.974807139317
 30
0.0
  0
SPLINE
  5
c1
100
AcDbEntity
  8
Plate
100
AcDbSpline
 70
     9
 71
     3
 72
    29
 73
    25
 74
     0
 42
0.0000001
 43
0.0000001
 40
0.0
 40
0.0
 40
0.0
 40
0.0
 40
1.0
 40
1.0
 40
1.0
 40
14.0
 40
14.0
 40
14.0
 40
15.0
 40
15.0
 40
15.0
 40
28.0
 40
28.0
 40
28.0
 40
29.0
 40
29.0
 40
29.0
 40
42.0
 40
42.0
 40
42.0
 40
43.0
 40
43.0
 40
43.0
 40
56.0
 40
56.0
 40
56.0
 40
56.0
 10
-119.843838332671
 20
44.974807139317
 30
0.0
 10
-120.119730332671
 20
44.974807139317
 30
0.0
 10
-120.343838332671
 20
44.750699139317
 30
0.0
 10
-120.343838332671
 20
44.474807139317
 30
0.0
 10
-120.343838332671
 20
40.141473805984
 30
0.0
 10
-120.343838332671
 20
35.808140472651
 30
0.0
 10
-120.343838332671
 20
31.474807139317
 30
0.0
 10
-120.343838332671
 20
31.198915139317
 30
0.0
 10
-120.119730332671
 20
30.974807139317
 30
0.0
 10
-119.843838332671
 20
30.974807139317
 30
0.0
 10
-115.510504999338
 20
30.974807139317
 30
0.0
 10
-111.177171666004
 20
30.974807139317
 30
0.0
 10
-106.843838332671
 20
30.974807139317
 30
0.0
 10
-106.567946332671
 20
30.974807139317
 30
0.0
 10
-106.343838332671
 20
31.198915139317
 30
0.0
 10
-106.343838332671
 20
31.474807139317
 30
0.0
 10
-106.343838332671
 20
35.808140472651
 30
0.0
 10
-106.343838332671
 20
40.141473805984
 30
0.0
 10
-106.343838332671
 20
44.474807139317
 30
0.0
 10
-106.343838332671
 20
44.750699139317
 30
0.0
 10
-106.567946332671
 20
44.974807139317
 30
0.0
 10
-106.843838332671
 20
44.974807139317
 30
0.0
 10
-111.177171666004
 20
44.974807139317
 30
0.0
 10
-115.510504999338
 20
44.974807139317
 30
0.0
 10
-119.843838332671
 20
44.974807139317
 30
0.0
  0
SPLINE
  5
c2
100
AcDbEntity
  8
Plate
100
AcDbSpline
 70
     9
 71
     3
 72
    29
 73
    25
 74
     0
 42
0.0000001
 43
0.0000001
 40
0.0
 40
0.0
 40
0.0
 40
0.0
 40
1.0
 40
1.0
 40
1.0
 40
14.0
 40
14.0
 40
14.0
 40
15.0
 40
15.0
 40
15.0
 40
28.0
 40
28.0
 40
28.0
 40
29.0
 40
29.0
 40
29.0
 40
42.0
 40
42.0
 40
42.0
 40
43.0
 40
43.0
 40
43.0
 40
56.0
 40
56.0
 40
56.0
 40
56.0
 10
-87.343838332671
 20
44.474807139317
 30
0.0
 10
-87.343838332671
 20
44.750699139317
 30
0.0
 10
-87.567946332671
 20
44.974807139317
 30
0.0
 10
-87.843838332671
 20
44.974807139317
 30
0.0
 10
-92.177171666004
 20
44.974807139317
 30
0.0
 10
-96.510504999338
 20
44.974807139317
 30
0.0
 10
-100.843838332671
 20
44.974807139317
 30
0.0
 10
-101.119730332671
 20
44.974807139317
 30
0.0
 10
-101.343838332671
 20
44.750699139317
 30
0.0
 10
-101.343838332671
 20
44.474807139317
 30
0.0
 10
-101.343838332671
 20
40.141473805984
 30
0.0
 10
-101.343838332671
 20
35.808140472651
 30
0.0
 10
-101.343838332671
 20
31.474807139317
 30
0.0
 10
-101.343838332671
 20
31.198915139317
 30
0.0
 10
-101.119730332671
 20
30.974807139317
 30
0.0
 10
-100.843838332671
 20
30.974807139317
 30
0.0
 10
-96.510504999338
 20
30.974807139317
 30
0.0
 10
-92.177171666004
 20
30.974807139317
 30
0.0
 10
-87.843838332671
 20
30.974807139317
 30
0.0
 10
-87.567946332671
 20
30.974807139317
 30
0.0
 10
-87.343838332671
 20
31.198915139317
 30
0.0
 10
-87.343838332671
 20
31.474807139317
 30
0.0
 10
-87.343838332671
 20
35.808140472651
 30
0.0
 10
-87.343838332671
 20
40.141473805984
 30
0.0
 10
-87.343838332671
 20
44.474807139317
 30
0.0
  0
SPLINE
  5
c3
100
AcDbEntity
  8
Plate
100
AcDbSpline
 70
     9
 71
     3
 72
    29
 73
    25
 74
     0
 42
0.0000001
 43
0.0000001
 40
0.0
 40
0.0
 40
0.0
 40
0.0
 40
1.0
 40
1.0
 40
1.0
 40
14.0
 40
14.0
 40
14.0
 40
15.0
 40
15.0
 40
15.0
 40
28.0
 40
28.0
 40
28.0
 40
29.0
 40
29.0
 40
29.0
 40
42.0
 40
42.0
 40
42.0
 40
43.0
 40
43.0
 40
43.0
 40
56.0
 40
56.0
 40
56.0
 40
56.0
 10
-68.026267293641
 20
43.602355837213
 30
0.0
 10
-68.011828222002
 20
43.877869736816
 30
0.0
 10
-68.223900183295
 20
44.113399511072
 30
0.0
 10
-68.499414082897
 20
44.127838582712
 30
0.0
 10
-72.8268087335
 20
44.354627726432
 30
0.0
 10
-77.154203384103
 20
44.581416870151
 30
0.0
 10
-81.481598034707
 20
44.808206013871
 30
0.0
 10
-81.757111934309
 20
44.82264508551
 30
0.0
 10
-81.992641708566
 20
44.610573124217
 30
0.0
 10
-82.007080780205
 20
44.335059224615
 30
0.0
 10
-82.233869923925
 20
40.007664574012
 30
0.0
 10
-82.460659067644
 20
35.680269923408
 30
0.0
 10
-82.687448211364
 20
31.352875272805
 30
0.0
 10
-82.701887283004
 20
31.077361373203
 30
0.0
 10
-82.48981532171
 20
30.841831598946
 30
0.0
 10
-82.214301422108
 20
30.827392527306
 30
0.0
 10
-77.886906771505
 20
30.600603383587
 30
0.0
 10
-73.559512120902
 20
30.373814239868
 30
0.0
 10
-69.232117470298
 20
30.147025096148
 30
0.0
 10
-68.956603570696
 20
30.132586024508
 30
0.0
 10
-68.721073796439
 20
30.344657985801
 30
0.0
 10
-68.7066347248
 20
30.620171885404
 30
0.0
 10
-68.47984558108
 20
34.947566536007
 30
0.0
 10
-68.253056437361
 20
39.27496118661
 30
0.0
 10
-68.026267293641
 20
43.602355837213
 30
0.0
  0
SPLINE
  5
c4
100
AcDbEntity
  8
Plate
100
AcDbSpline
 70
     9
 71
     3
 72
    29
 73
    25
 74
     0
 42
0.0000001
 43
0.0000001
 40
0.0
 40
0.0
 40
0.0
 40
0.0
 40
1.0
 40
1.0
 40
1.0
 40
14.0
 40
14.0
 40
14.0
 40
15.0
 40
15.0
 40
15.0
 40
28.0
 40
28.0
 40
28.0
 40
29.0
 40
29.0
 40
29.0
 40
42.0
 40
42.0
 40
42.0
 40
43.0
 40
43.0
 40
43.0
 40
56.0
 40
56.0
 40
56.0
 40
56.0
 10
-64.063007445153
 20
30.254710492638
 30
0.0
 10
-64.091846011941
 20
29.980329857882
 30
0.0
 10
-63.89239136386
 20
29.734023880108
 30
0.0
 10
-63.618010729103
 20
29.705185313321
 30
0.0
 10
-59.308415849174
 20
29.252228639161
 30
0.0
 10
-54.998820969244
 20
28.799271965001
 30
0.0
 10
-50.689226089315
 20
28.346315290841
 30
0.0
 10
-50.414845454558
 20
28.317476724053
 30
0.0
 10
-50.168539476785
 20
28.516931372134
 30
0.0
 10
-50.139700909997
 20
28.791312006891
 30
0.0
 10
-49.686744235837
 20
33.10090688682
 30
0.0
 10
-49.233787561678
 20
37.41050176675
 30
0.0
 10
-48.780830887518
 20
41.720096646679
 30
0.0
 10
-48.75199232073
 20
41.994477281436
 30
0.0
 10
-48.951446968811
 20
42.240783259209
 30
0.0
 10
-49.225827603568
 20
42.269621825997
 30
0.0
 10
-53.535422483497
 20
42.722578500157
 30
0.0
 10
-57.845017363426
 20
43.175535174316
 30
0.0
 10
-62.154612243356
 20
43.628491848476
 30
0.0
 10
-62.428992878113
 20
43.657330415264
 30
0.0
 10
-62.675298855886
 20
43.457875767183
 30
0.0
 10
-62.704137422674
 20
43.183495132426
 30
0.0
 10
-63.157094096833
 20
38.873900252497
 30
0.0
 10
-63.610050770993
 20
34.564305372568
 30
0.0
 10
-64.063007445153
 20
30.254710492638
 30
0.0
  0
SPLINE
  5
c5
100
AcDbEntity
  8
Plate
100
AcDbSpline
 70
     9
 71
     3
 72
    29
 73
    25
 74
     0
 42
0.0000001
 43
0.0000001
 40
0.0
 40
0.0
 40
0.0
 40
0.0
 40
1.0
 40
1.0
 40
1.0
 40
14.0
 40
14.0
 40
14.0
 40
15.0
 40
15.0
 40
15.0
 40
28.0
 40
28.0
 40
28.0
 40
29.0
 40
29.0
 40
29.0
 40
42.0
 40
42.0
 40
42.0
 40
43.0
 40
43.0
 40
43.0
 40
56.0
 40
56.0
 40
56.0
 40
56.0
 10
-44.81757103903
 20
28.372451302104
 30
0.0
 10
-44.832010110669
 20
28.096937402501
 30
0.0
 10
-44.619938149376
 20
27.861407628245
 30
0.0
 10
-44.344424249774
 20
27.846968556605
 30
0.0
 10
-40.017029599171
 20
27.620179412886
 30
0.0
 10
-35.689634948567
 20
27.393390269166
 30
0.0
 10
-31.362240297964
 20
27.166601125447
 30
0.0
 10
-31.086726398362
 20
27.152162053807
 30
0.0
 10
-30.851196624105
 20
27.3642340151
 30
0.0
 10
-30.836757552466
 20
27.639747914703
 30
0.0
 10
-30.609968408746
 20
31.967142565306
 30
0.0
 10
-30.383179265027
 20
36.294537215909
 30
0.0
 10
-30.156390121307
 20
40.621931866512
 30
0.0
 10
-30.141951049668
 20
40.897445766115
 30
0.0
 10
-30.354023010961
 20
41.132975540371
 30
0.0
 10
-30.629536910563
 20
41.147414612011
 30
0.0
 10
-34.956931561166
 20
41.37420375573
 30
0.0
 10
-39.284326211769
 20
41.60099289945
 30
0.0
 10
-43.611720862373
 20
41.827782043169
 30
0.0
 10
-43.887234761975
 20
41.842221114809
 30
0.0
 10
-44.122764536232
 20
41.630149153516
 30
0.0
 10
-44.137203607871
 20
41.354635253913
 30
0.0
 10
-44.363992751591
 20
37.02724060331
 30
0.0
 10
-44.59078189531
 20
32.699845952707
 30
0.0
 10
-44.81757103903
 20
28.372451302104
 30
0.0
  0
SPLINE
  5
c6
100
AcDbEntity
  8
Plate
100
AcDbSpline
 70
     9
 71
     3
 72
    29
 73
    25
 74
     0
 42
0.0000001
 43
0.0000001
 40
0.0
 40
0.0
 40
0.0
 40
0.0
 40
1.0
 40
1.0
 40
1.0
 40
14.0
 40
14.0
 40
14.0
 40
15.0
 40
15.0
 40
15.0
 40
28.0
 40
28.0
 40
28.0
 40
29.0
 40
29.0
 40
29.0
 40
42.0
 40
42.0
 40
42.0
 40
43.0
 40
43.0
 40
43.0
 40
56.0
 40
56.0
 40
56.0
 40
56.0
 10
-12.0
 20
27.0
 30
0.0
 10
-11.724108
 20
27.0
 30
0.0
 10
-11.5
 20
27.224108
 30
0.0
 10
-11.5
 20
27.5
 30
0.0
 10
-11.5
 20
31.833333333333
 30
0.0
 10
-11.5
 20
36.166666666667
 30
0.0
 10
-11.5
 20
40.5
 30
0.0
 10
-11.5
 20
40.775892
 30
0.0
 10
-11.724108
 20
41.0
 30
0.0
 10
-12.0
 20
41.0
 30
0.0
 10
-16.333333333333
 20
41.0
 30
0.0
 10
-20.666666666667
 20
41.0
 30
0.0
 10
-25.0
 20
41.0
 30
0.0
 10
-25.275892
 20
41.0
 30
0.0
 10
-25.5
 20
40.775892
 30
0.0
 10
-25.5
 20
40.5
 30
0.0
 10
-25.5
 20
36.166666666667
 30
0.0
 10
-25.5
 20
31.833333333333
 30
0.0
 10
-25.5
 20
27.5
 30
0.0
 10
-25.5
 20
27.224108
 30
0.0
 10
-25.275892
 20
27.0
 30
0.0
 10
-25.0
 20
27.0
 30
0.0
 10
-20.666666666667
 20
27.0
 30
0.0
 10
-16.333333333333
 20
27.0
 30
0.0
 10
-12.0
 20
27.0
 30
0.0
  0
SPLINE
  5
c7
100
AcDbEntity
  8
Plate
100
AcDbSpline
 70
     9
 71
     3
 72
    29
 73
    25
 74
     0
 42
0.0000001
 43
0.0000001
 40
0.0
 40
0.0
 40
0.0
 40
0.0
 40
1.0
 40
1.0
 40
1.0
 40
14.0
 40
14.0
 40
14.0
 40
15.0
 40
15.0
 40
15.0
 40
28.0
 40
28.0
 40
28.0
 40
29.0
 40
29.0
 40
29.0
 40
42.0
 40
42.0
 40
42.0
 40
43.0
 40
43.0
 40
43.0
 40
56.0
 40
56.0
 40
56.0
 40
56.0
 10
-35.177499831307
 20
46.934828535292
 30
0.0
 10
-35.184721841929
 20
46.65903107659
 30
0.0
 10
-34.966557101675
 20
46.429133409273
 30
0.0
 10
-34.690759642973
 20
46.42191139865
 30
0.0
 10
-30.358911234745
 20
46.308477955983
 30
0.0
 10
-26.027062826518
 20
46.195044513315
 30
0.0
 10
-21.69521441829
 20
46.081611070648
 30
0.0
 10
-21.419416959588
 20
46.074389060025
 30
0.0
 10
-21.189519292271
 20
46.29255380028
 30
0.0
 10
-21.182297281649
 20
46.568351258982
 30
0.0
 10
-21.068863838981
 20
50.900199667209
 30
0.0
 10
-20.955430396314
 20
55.232048075437
 30
0.0
 10
-20.841996953646
 20
59.563896483664
 30
0.0
 10
-20.834774943024
 20
59.839693942366
 30
0.0
 10
-21.052939683278
 20
60.069591609683
 30
0.0
 10
-21.32873714198
 20
60.076813620306
 30
0.0
 10
-25.660585550208
 20
60.190247062973
 30
0.0
 10
-29.992433958435
 20
60.303680505641
 30
0.0
 10
-34.324282366663
 20
60.417113948308
 30
0.0
 10
-34.600079825365
 20
60.424335958931
 30
0.0
 10
-34.829977492682
 20
60.206171218676
 30
0.0
 10
-34.837199503304
 20
59.930373759974
 30
0.0
 10
-34.950632945972
 20
55.598525351747
 30
0.0
 10
-35.064066388639
 20
51.266676943519
 30
0.0
 10
-35.177499831307
 20
46.934828535292
 30
0.0
  0
SPLINE
  5
c8
100
AcDbEntity
  8
Plate
100
AcDbSpline
 70
     9
 71
     3
 72
    29
 73
    25
 74
     0
 42
0.0000001
 43
0.0000001
 40
0.0
 40
0.0
 40
0.0
 40
0.0
 40
1.0
 40
1.0
 40
1.0
 40
14.0
 40
14.0
 40
14.0
 40
15.0
 40
15.0
 40
15.0
 40
28.0
 40
28.0
 40
28.0
 40
29.0
 40
29.0
 40
29.0
 40
42.0
 40
42.0
 40
42.0
 40
43.0
 40
43.0
 40
43.0
 40
56.0
 40
56.0
 40
56.0
 40
56.0
 10
-12.0
 20
65.0
 30
0.0
 10
-11.724108
 20
65.0
 30
0.0
 10
-11.5
 20
65.224108
 30
0.0
 10
-11.5
 20
65.5
 30
0.0
 10
-11.5
 20
69.833333333333
 30
0.0
 10
-11.5
 20
74.166666666667
 30
0.0
 10
-11.5
 20
78.5
 30
0.0
 10
-11.5
 20
78.775892
 30
0.0
 10
-11.724108
 20
79.0
 30
0.0
 10
-12.0
 20
79.0
 30
0.0
 10
-16.333333333333
 20
79.0
 30
0.0
 10
-20.666666666667
 20
79.0
 30
0.0
 10
-25.0
 20
79.0
 30
0.0
 10
-25.275892
 20
79.0
 30
0.0
 10
-25.5
 20
78.775892
 30
0.0
 10
-25.5
 20
78.5
 30
0.0
 10
-25.5
 20
74.166666666667
 30
0.0
 10
-25.5
 20
69.833333333333
 30
0.0
 10
-25.5
 20
65.5
 30
0.0
 10
-25.5
 20
65.224108
 30
0.0
 10
-25.275892
 20
65.0
 30
0.0
 10
-25.0
 20
65.0
 30
0.0
 10
-20.666666666667
 20
65.0
 30
0.0
 10
-16.333333333333
 20
65.0
 30
0.0
 10
-12.0
 20
65.0
 30
0.0
  0
SPLINE
  5
c9
100
AcDbEntity
  8
Plate
100
AcDbSpline
 70
     9
 71
     3
 72
    29
 73
    25
 74
     0
 42
0.0000001
 43
0.0000001
 40
0.0
 40
0.0
 40
0.0
 40
0.0
 40
1.0
 40
1.0
 40
1.0
 40
14.0
 40
14.0
 40
14.0
 40
15.0
 40
15.0
 40
15.0
 40
28.0
 40
28.0
 40
28.0
 40
29.0
 40
29.0
 40
29.0
 40
42.0
 40
42.0
 40
42.0
 40
43.0
 40
43.0
 40
43.0
 40
56.0
 40
56.0
 40
56.0
 40
56.0
 10
-44.81757103903
 20
66.372451302104
 30
0.0
 10
-44.832010110669
 20
66.096937402501
 30
0.0
 10
-44.619938149376
 20
65.861407628245
 30
0.0
 10
-44.344424249774
 20
65.846968556605
 30
0.0
 10
-40.017029599171
 20
65.620179412886
 30
0.0
 10
-35.689634948567
 20
65.393390269166
 30
0.0
 10
-31.362240297964
 20
65.166601125447
 30
0.0
 10
-31.086726398362
 20
65.152162053807
 30
0.0
 10
-30.851196624105
 20
65.3642340151
 30
0.0
 10
-30.836757552466
 20
65.639747914703
 30
0.0
 10
-30.609968408746
 20
69.967142565306
 30
0.0
 10
-30.383179265027
 20
74.294537215909
 30
0.0
 10
-30.156390121307
 20
78.621931866512
 30
0.0
 10
-30.141951049667
 20
78.897445766115
 30
0.0
 10
-30.354023010961
 20
79.132975540371
 30
0.0
 10
-30.629536910563
 20
79.147414612011
 30
0.0
 10
-34.956931561166
 20
79.37420375573
 30
0.0
 10
-39.284326211769
 20
79.60099289945
 30
0.0
 10
-43.611720862373
 20
79.827782043169
 30
0.0
 10
-43.887234761975
 20
79.842221114809
 30
0.0
 10
-44.122764536232
 20
79.630149153516
 30
0.0
 10
-44.137203607871
 20
79.354635253913
 30
0.0
 10
-44.363992751591
 20
75.02724060331
 30
0.0
 10
-44.59078189531
 20
70.699845952707
 30
0.0
 10
-44.81757103903
 20
66.372451302104
 30
0.0
  0
SPLINE
  5
ca
100
AcDbEntity
  8
Plate
100
AcDbSpline
 70
     9
 71
     3
 72
    29
 73
    25
 74
     0
 42
0.0000001
 43
0.0000001
 40
0.0
 40
0.0
 40
0.0
 40
0.0
 40
1.0
 40
1.0
 40
1.0
 40
14.0
 40
14.0
 40
14.0
 40
15.0
 40
15.0
 40
15.0
 40
28.0
 40
28.0
 40
28.0
 40
29.0
 40
29.0
 40
29.0
 40
42.0
 40
42.0
 40
42.0
 40
43.0
 40
43.0
 40
43.0
 40
56.0
 40
56.0
 40
56.0
 40
56.0
 10
-54.465613108572
 20
48.312655928647
 30
0.0
 10
-54.48725934541
 20
48.037614411609
 30
0.0
 10
-54.281425506608
 20
47.796613950755
 30
0.0
 10
-54.006383989569
 20
47.774967713916
 30
0.0
 10
-49.686408876726
 20
47.434978299096
 30
0.0
 10
-45.366433763882
 20
47.094988884275
 30
0.0
 10
-41.046458651039
 20
46.754999469454
 30
0.0
 10
-40.771417134
 20
46.733353232616
 30
0.0
 10
-40.530416673147
 20
46.939187071419
 30
0.0
 10
-40.508770436308
 20
47.214228588457
 30
0.0
 10
-40.168781021487
 20
51.534203701301
 30
0.0
 10
-39.828791606667
 20
55.854178814144
 30
0.0
 10
-39.488802191846
 20
60.174153926988
 30
0.0
 10
-39.467155955008
 20
60.449195444026
 30
0.0
 10
-39.67298979381
 20
60.69019590488
 30
0.0
 10
-39.948031310849
 20
60.711842141718
 30
0.0
 10
-44.268006423692
 20
61.051831556539
 30
0.0
 10
-48.587981536536
 20
61.39182097136
 30
0.0
 10
-52.90795664938
 20
61.73181038618
 30
0.0
 10
-53.182998166418
 20
61.753456623019
 30
0.0
 10
-53.423998627271
 20
61.547622784216
 30
0.0
 10
-53.44564486411
 20
61.272581267178
 30
0.0
 10
-53.785634278931
 20
56.952606154334
 30
0.0
 10
-54.125623693751
 20
52.63263104149
 30
0.0
 10
-54.465613108572
 20
48.312655928647
 30
0.0
  0
SPLINE
  5
cb
100
AcDbEntity
  8
Plate
100
AcDbSpline
 70
     9
 71
     3
 72
    29
 73
    25
 74
     0
 42
0.0000001
 43
0.0000001
 40
0.0
 40
0.0
 40
0.0
 40
0.0
 40
1.0
 40
1.0
 40
1.0
 40
14.0
 40
14.0
 40
14.0
 40
15.0
 40
15.0
 40
15.0
 40
28.0
 40
28.0
 40
28.0
 40
29.0
 40
29.0
 40
29.0
 40
42.0
 40
42.0
 40
42.0
 40
43.0
 40
43.0
 40
43.0
 40
56.0
 40
56.0
 40
56.0
 40
56.0
 10
-64.063007445153
 20
68.254710492639
 30
0.0
 10
-64.091846011941
 20
67.980329857882
 30
0.0
 10
-63.89239136386
 20
67.734023880108
 30
0.0
 10
-63.618010729103
 20
67.705185313321
 30
0.0
 10
-59.308415849174
 20
67.252228639161
 30
0.0
 10
-54.998820969244
 20
66.799271965001
 30
0.0
 10
-50.689226089315
 20
66.346315290841
 30
0.0
 10
-50.414845454558
 20
66.317476724053
 30
0.0
 10
-50.168539476785
 20
66.516931372135
 30
0.0
 10
-50.139700909997
 20
66.791312006891
 30
0.0
 10
-49.686744235837
 20
71.100906886821
 30
0.0
 10
-49.233787561678
 20
75.41050176675
 30
0.0
 10
-48.780830887518
 20
79.720096646679
 30
0.0
 10
-48.75199232073
 20
79.994477281436
 30
0.0
 10
-48.951446968811
 20
80.240783259209
 30
0.0
 10
-49.225827603568
 20
80.269621825997
 30
0.0
 10
-53.535422483497
 20
80.722578500157
 30
0.0
 10
-57.845017363426
 20
81.175535174317
 30
0.0
 10
-62.154612243356
 20
81.628491848476
 30
0.0
 10
-62.428992878113
 20
81.657330415264
 30
0.0
 10
-62.675298855886
 20
81.457875767183
 30
0.0
 10
-62.704137422674
 20
81.183495132426
 30
0.0
 10
-63.157094096833
 20
76.873900252497
 30
0.0
 10
-63.610050770993
 20
72.564305372568
 30
0.0
 10
-64.063007445153
 20
68.254710492639
 30
0.0
  0
SPLINE
  5
cc
100
AcDbEntity
  8
Plate
100
AcDbSpline
 70
     9
 71
     3
 72
    29
 73
    25
 74
     0
 42
0.0000001
 43
0.0000001
 40
0.0
 40
0.0
 40
0.0
 40
0.0
 40
1.0
 40
1.0
 40
1.0
 40
14.0
 40
14.0
 40
14.0
 40
15.0
 40
15.0
 40
15.0
 40
28.0
 40
28.0
 40
28.0
 40
29.0
 40
29.0
 40
29.0
 40
42.0
 40
42.0
 40
42.0
 40
43.0
 40
43.0
 40
43.0
 40
56.0
 40
56.0
 40
56.0
 40
56.0
 10
-81.481598034707
 20
82.808206013871
 30
0.0
 10
-81.757111934309
 20
82.82264508551
 30
0.0
 10
-81.992641708566
 20
82.610573124217
 30
0.0
 10
-82.007080780205
 20
82.335059224615
 30
0.0
 10
-82.233869923925
 20
78.007664574012
 30
0.0
 10
-82.460659067644
 20
73.680269923408
 30
0.0
 10
-82.687448211364
 20
69.352875272805
 30
0.0
 10
-82.701887283003
 20
69.077361373203
 30
0.0
 10
-82.48981532171
 20
68.841831598946
 30
0.0
 10
-82.214301422108
 20
68.827392527307
 30
0.0
 10
-77.886906771505
 20
68.600603383587
 30
0.0
 10
-73.559512120902
 20
68.373814239868
 30
0.0
 10
-69.232117470298
 20
68.147025096148
 30
0.0
 10
-68.956603570696
 20
68.132586024508
 30
0.0
 10
-68.721073796439
 20
68.344657985802
 30
0.0
 10
-68.7066347248
 20
68.620171885404
 30
0.0
 10
-68.47984558108
 20
72.947566536007
 30
0.0
 10
-68.253056437361
 20
77.27496118661
 30
0.0
 10
-68.026267293641
 20
81.602355837214
 30
0.0
 10
-68.011828222002
 20
81.877869736816
 30
0.0
 10
-68.223900183295
 20
82.113399511073
 30
0.0
 10
-68.499414082897
 20
82.127838582712
 30
0.0
 10
-72.8268087335
 20
82.354627726432
 30
0.0
 10
-77.154203384103
 20
82.581416870151
 30
0.0
 10
-81.481598034707
 20
82.808206013871
 30
0.0
  0
SPLINE
  5
cd
100
AcDbEntity
  8
Plate
100
AcDbSpline
 70
     9
 71
     3
 72
    29
 73
    25
 74
     0
 42
0.0000001
 43
0.0000001
 40
0.0
 40
0.0
 40
0.0
 40
0.0
 40
1.0
 40
1.0
 40
1.0
 40
14.0
 40
14.0
 40
14.0
 40
15.0
 40
15.0
 40
15.0
 40
28.0
 40
28.0
 40
28.0
 40
29.0
 40
29.0
 40
29.0
 40
42.0
 40
42.0
 40
42.0
 40
43.0
 40
43.0
 40
43.0
 40
56.0
 40
56.0
 40
56.0
 40
56.0
 10
-87.843838332671
 20
68.974807139317
 30
0.0
 10
-87.567946332671
 20
68.974807139317
 30
0.0
 10
-87.343838332671
 20
69.198915139317
 30
0.0
 10
-87.343838332671
 20
69.474807139317
 30
0.0
 10
-87.343838332671
 20
73.808140472651
 30
0.0
 10
-87.343838332671
 20
78.141473805984
 30
0.0
 10
-87.343838332671
 20
82.474807139317
 30
0.0
 10
-87.343838332671
 20
82.750699139317
 30
0.0
 10
-87.567946332671
 20
82.974807139317
 30
0.0
 10
-87.843838332671
 20
82.974807139317
 30
0.0
 10
-92.177171666004
 20
82.974807139317
 30
0.0
 10
-96.510504999338
 20
82.974807139317
 30
0.0
 10
-100.843838332671
 20
82.974807139317
 30
0.0
 10
-101.119730332671
 20
82.974807139317
 30
0.0
 10
-101.343838332671
 20
82.750699139317
 30
0.0
 10
-101.343838332671
 20
82.474807139317
 30
0.0
 10
-101.343838332671
 20
78.141473805984
 30
0.0
 10
-101.343838332671
 20
73.808140472651
 30
0.0
 10
-101.343838332671
 20
69.474807139317
 30
0.0
 10
-101.343838332671
 20
69.198915139317
 30
0.0
 10
-101.119730332671
 20
68.974807139317
 30
0.0
 10
-100.843838332671
 20
68.974807139317
 30
0.0
 10
-96.510504999338
 20
68.974807139317
 30
0.0
 10
-92.177171666004
 20
68.974807139317
 30
0.0
 10
-87.843838332671
 20
68.974807139317
 30
0.0
  0
SPLINE
  5
ce
100
AcDbEntity
  8
Plate
100
AcDbSpline
 70
     9
 71
     3
 72
    29
 73
    25
 74
     0
 42
0.0000001
 43
0.0000001
 40
0.0
 40
0.0
 40
0.0
 40
0.0
 40
1.0
 40
1.0
 40
1.0
 40
14.0
 40
14.0
 40
14.0
 40
15.0
 40
15.0
 40
15.0
 40
28.0
 40
28.0
 40
28.0
 40
29.0
 40
29.0
 40
29.0
 40
42.0
 40
42.0
 40
42.0
 40
43.0
 40
43.0
 40
43.0
 40
56.0
 40
56.0
 40
56.0
 40
56.0
 10
-119.843838332671
 20
82.974807139317
 30
0.0
 10
-120.119730332671
 20
82.974807139317
 30
0.0
 10
-120.343838332671
 20
82.750699139317
 30
0.0
 10
-120.343838332671
 20
82.474807139317
 30
0.0
 10
-120.343838332671
 20
78.141473805984
 30
0.0
 10
-120.343838332671
 20
73.808140472651
 30
0.0
 10
-120.343838332671
 20
69.474807139317
 30
0.0
 10
-120.343838332671
 20
69.198915139317
 30
0.0
 10
-120.119730332671
 20
68.974807139317
 30
0.0
 10
-119.843838332671
 20
68.974807139317
 30
0.0
 10
-115.510504999338
 20
68.974807139317
 30
0.0
 10
-111.177171666004
 20
68.974807139317
 30
0.0
 10
-106.843838332671
 20
68.974807139317
 30
0.0
 10
-106.567946332671
 20
68.974807139317
 30
0.0
 10
-106.343838332671
 20
69.198915139317
 30
0.0
 10
-106.343838332671
 20
69.474807139317
 30
0.0
 10
-106.343838332671
 20
73.808140472651
 30
0.0
 10
-106.343838332671
 20
78.141473805984
 30
0.0
 10
-106.343838332671
 20
82.474807139317
 30
0.0
 10
-106.343838332671
 20
82.750699139317
 30
0.0
 10
-106.567946332671
 20
82.974807139317
 30
0.0
 10
-106.843838332671
 20
82.974807139317
 30
0.0
 10
-111.177171666004
 20
82.974807139317
 30
0.0
 10
-115.510504999338
 20
82.974807139317
 30
0.0
 10
-119.843838332671
 20
82.974807139317
 30
0.0
  0
SPLINE
  5
cf
100
AcDbEntity
  8
Plate
100
AcDbSpline
 70
     9
 71
     3
 72
    29
 73
    25
 74
     0
 42
0.0000001
 43
0.0000001
 40
0.0
 40
0.0
 40
0.0
 40
0.0
 40
1.0
 40
1.0
 40
1.0
 40
14.0
 40
14.0
 40
14.0
 40
15.0
 40
15.0
 40
15.0
 40
28.0
 40
28.0
 40
28.0
 40
29.0
 40
29.0
 40
29.0
 40
42.0
 40
42.0
 40
42.0
 40
43.0
 40
43.0
 40
43.0
 40
56.0
 40
56.0
 40
56.0
 40
56.0
 10
-110.843838332671
 20
50.474807139317
 30
0.0
 10
-110.843838332671
 20
50.198915139317
 30
0.0
 10
-110.619730332671
 20
49.974807139317
 30
0.0
 10
-110.343838332671
 20
49.974807139317
 30
0.0
 10
-106.010504999338
 20
49.974807139317
 30
0.0
 10
-101.677171666004
 20
49.974807139317
 30
0.0
 10
-97.343838332671
 20
49.974807139317
 30
0.0
 10
-97.067946332671
 20
49.974807139317
 30
0.0
 10
-96.843838332671
 20
50.198915139317
 30
0.0
 10
-96.843838332671
 20
50.474807139317
 30
0.0
 10
-96.843838332671
 20
54.808140472651
 30
0.0
 10
-96.843838332671
 20
59.141473805984
 30
0.0
 10
-96.843838332671
 20
63.474807139317
 30
0.0
 10
-96.843838332671
 20
63.750699139317
 30
0.0
 10
-97.067946332671
 20
63.974807139317
 30
0.0
 10
-97.343838332671
 20
63.974807139317
 30
0.0
 10
-101.677171666004
 20
63.974807139317
 30
0.0
 10
-106.010504999338
 20
63.974807139317
 30
0.0
 10
-110.343838332671
 20
63.974807139317
 30
0.0
 10
-110.619730332671
 20
63.974807139317
 30
0.0
 10
-110.843838332671
 20
63.750699139317
 30
0.0
 10
-110.843838332671
 20
63.474807139317
 30
0.0
 10
-110.843838332671
 20
59.141473805984
 30
0.0
 10
-110.843838332671
 20
54.808140472651
 30
0.0
 10
-110.843838332671
 20
50.474807139317
 30
0.0
  0
SPLINE
  5
d0
100
AcDbEntity
  8
Plate
100
AcDbSpline
 70
     9
 71
     3
 72
    29
 73
    25
 74
     0
 42
0.0000001
 43
0.0000001
 40
0.0
 40
0.0
 40
0.0
 40
0.0
 40
1.0
 40
1.0
 40
1.0
 40
14.0
 40
14.0
 40
14.0
 40
15.0
 40
15.0
 40
15.0
 40
28.0
 40
28.0
 40
28.0
 40
29.0
 40
29.0
 40
29.0
 40
42.0
 40
42.0
 40
42.0
 40
43.0
 40
43.0
 40
43.0
 40
56.0
 40
56.0
 40
56.0
 40
56.0
 10
-91.843838332671
 20
50.474807139317
 30
0.0
 10
-91.843838332671
 20
50.198915139317
 30
0.0
 10
-91.619730332671
 20
49.974807139317
 30
0.0
 10
-91.343838332671
 20
49.974807139317
 30
0.0
 10
-87.010504999338
 20
49.974807139317
 30
0.0
 10
-82.677171666004
 20
49.974807139317
 30
0.0
 10
-78.343838332671
 20
49.974807139317
 30
0.0
 10
-78.067946332671
 20
49.974807139317
 30
0.0
 10
-77.843838332671
 20
50.198915139317
 30
0.0
 10
-77.843838332671
 20
50.474807139317
 30
0.0
 10
-77.843838332671
 20
54.808140472651
 30
0.0
 10
-77.843838332671
 20
59.141473805984
 30
0.0
 10
-77.843838332671
 20
63.474807139317
 30
0.0
 10
-77.843838332671
 20
63.750699139317
 30
0.0
 10
-78.067946332671
 20
63.974807139317
 30
0.0
 10
-78.343838332671
 20
63.974807139317
 30
0.0
 10
-82.677171666004
 20
63.974807139317
 30
0.0
 10
-87.010504999338
 20
63.974807139317
 30
0.0
 10
-91.343838332671
 20
63.974807139317
 30
0.0
 10
-91.619730332671
 20
63.974807139317
 30
0.0
 10
-91.843838332671
 20
63.750699139317
 30
0.0
 10
-91.843838332671
 20
63.474807139317
 30
0.0
 10
-91.843838332671
 20
59.141473805984
 30
0.0
 10
-91.843838332671
 20
54.808140472651
 30
0.0
 10
-91.843838332671
 20
50.474807139317
 30
0.0
  0
SPLINE
  5
d1
100
AcDbEntity
  8
Plate
100
AcDbSpline
 70
     9
 71
     3
 72
    29
 73
    25
 74
     0
 42
0.0000001
 43
0.0000001
 40
0.0
 40
0.0
 40
0.0
 40
0.0
 40
1.0
 40
1.0
 40
1.0
 40
14.0
 40
14.0
 40
14.0
 40
15.0
 40
15.0
 40
15.0
 40
28.0
 40
28.0
 40
28.0
 40
29.0
 40
29.0
 40
29.0
 40
42.0
 40
42.0
 40
42.0
 40
43.0
 40
43.0
 40
43.0
 40
56.0
 40
56.0
 40
56.0
 40
56.0
 10
-73.53696860549
 20
50.249093661254
 30
0.0
 10
-73.565807172278
 20
49.974713026497
 30
0.0
 10
-73.366352524197
 20
49.728407048724
 30
0.0
 10
-73.09197188944
 20
49.699568481936
 30
0.0
 10
-68.782377009511
 20
49.246611807777
 30
0.0
 10
-64.472782129581
 20
48.793655133617
 30
0.0
 10
-60.163187249652
 20
48.340698459457
 30
0.0
 10
-59.888806614895
 20
48.311859892669
 30
0.0
 10
-59.642500637122
 20
48.51131454075
 30
0.0
 10
-59.613662070334
 20
48.785695175507
 30
0.0
 10
-59.160705396174
 20
53.095290055436
 30
0.0
 10
-58.707748722015
 20
57.404884935366
 30
0.0
 10
-58.254792047855
 20
61.714479815295
 30
0.0
 10
-58.225953481067
 20
61.988860450052
 30
0.0
 10
-58.425408129148
 20
62.235166427825
 30
0.0
 10
-58.699788763905
 20
62.264004994613
 30
0.0
 10
-63.009383643834
 20
62.716961668773
 30
0.0
 10
-67.318978523763
 20
63.169918342932
 30
0.0
 10
-71.628573403693
 20
63.622875017092
 30
0.0
 10
-71.902954038449
 20
63.65171358388
 30
0.0
 10
-72.149260016223
 20
63.452258935799
 30
0.0
 10
-72.178098583011
 20
63.177878301042
 30
0.0
 10
-72.63105525717
 20
58.868283421113
 30
0.0
 10
-73.08401193133
 20
54.558688541184
 30
0.0
 10
-73.53696860549
 20
50.249093661254
 30
0.0
  0
CIRCLE
  5
d2
100
AcDbEntity
  8
Plate
100
AcDbCircle
 10
-126.843838332671
 20
22.974807139316
 30
0.0
 40
1.0
  0
CIRCLE
  5
d3
100
AcDbEntity
  8
Plate
100
AcDbCircle
 10
-4.999999999997
 20
19.000000000001
 30
0.0
 40
1.0
  0
SPLINE
  5
d4
100
AcDbEntity
  8
Plate
100
AcDbSpline
 70
     9
 71
     3
 72
    50
 73
    46
 74
     0
 42
0.0000001
 43
0.0000001
 40
370.850045532237
 40
370.850045532237
 40
370.850045532237
 40
370.850045532237
 40
375.850045532237
 40
375.850045532237
 40
375.850045532237
 40
376.850045532237
 40
376.850045532237
 40
376.850045532237
 40
377.850045532237
 40
377.850045532237
 40
377.850045532237
 40
378.850045532237
 40
378.850045532237
 40
378.850045532237
 40
379.850045532237
 40
379.850045532237
 40
379.850045532237
 40
381.350045532237
 40
381.350045532237
 40
381.350045532237
 40
382.350045532237
 40
382.350045532237
 40
382.350045532237
 40
383.350045532237
 40
383.350045532237
 40
383.350045532237
 40
384.350045532237
 40
384.350045532237
 40
384.350045532237
 40
385.350045532237
 40
385.350045532237
 40
385.350045532237
 40
386.850045532237
 40
386.850045532237
 40
386.850045532237
 40
387.850045532237
 40
387.850045532237
 40
387.850045532237
 40
388.850045532237
 40
388.850045532237
 40
388.850045532237
 40
389.850045532237
 40
389.850045532237
 40
389.850045532237
 40
390.850045532237
 40
390.850045532237
 40
390.850045532237
 40
390.850045532237
 10
-122.84383833267
 20
20.474807139317
 30
0.0
 10
-122.843838332671
 20
22.141473805984
 30
0.0
 10
-122.843838332671
 20
23.808140472651
 30
0.0
 10
-122.843838332672
 20
25.474807139317
 30
0.0
 10
-122.843838332672
 20
25.750699139317
 30
0.0
 10
-123.067946332672
 20
25.974807139317
 30
0.0
 10
-123.343838332672
 20
25.974807139317
 30
0.0
 10
-124.723298332672
 20
25.974807139317
 30
0.0
 10
-125.843838332672
 20
27.095347139317
 30
0.0
 10
-125.843838332672
 20
28.474807139317
 30
0.0
 10
-125.843838332672
 20
29.026591139317
 30
0.0
 10
-126.292054332673
 20
29.474807139317
 30
0.0
 10
-126.843838332673
 20
29.474807139316
 30
0.0
 10
-127.395622332673
 20
29.474807139316
 30
0.0
 10
-127.843838332673
 20
29.026591139316
 30
0.0
 10
-127.843838332672
 20
28.474807139316
 30
0.0
 10
-127.843838332672
 20
27.974807139316
 30
0.0
 10
-127.843838332672
 20
27.474807139316
 30
0.0
 10
-127.843838332672
 20
26.974807139316
 30
0.0
 10
-127.843838332672
 20
26.423023139316
 30
0.0
 10
-127.395622332672
 20
25.974807139316
 30
0.0
 10
-126.843838332672
 20
25.974807139316
 30
0.0
 10
-125.188486332672
 20
25.974807139317
 30
0.0
 10
-123.843838332671
 20
24.630159139317
 30
0.0
 10
-123.843838332671
 20
22.974807139317
 30
0.0
 10
-123.843838332671
 20
21.319455139317
 30
0.0
 10
-125.18848633267
 20
19.974807139317
 30
0.0
 10
-126.84383833267
 20
19.974807139316
 30
0.0
 10
-127.39562233267
 20
19.974807139316
 30
0.0
 10
-127.84383833267
 20
19.526591139316
 30
0.0
 10
-127.84383833267
 20
18.974807139316
 30
0.0
 10
-127.84383833267
 20
18.474807139316
 30
0.0
 10
-127.84383833267
 20
17.974807139316
 30
0.0
 10
-127.84383833267
 20
17.474807139316
 30
0.0
 10
-127.84383833267
 20
16.923023139316
 30
0.0
 10
-127.395622332669
 20
16.474807139316
 30
0.0
 10
-126.843838332669
 20
16.474807139316
 30
0.0
 10
-126.292054332669
 20
16.474807139317
 30
0.0
 10
-125.84383833267
 20
16.923023139317
 30
0.0
 10
-125.84383833267
 20
17.474807139317
 30
0.0
 10
-125.84383833267
 20
18.854267139317
 30
0.0
 10
-124.72329833267
 20
19.974807139317
 30
0.0
 10
-123.34383833267
 20
19.974807139317
 30
0.0
 10
-123.06794633267
 20
19.974807139317
 30
0.0
 10
-122.84383833267
 20
20.198915139317
 30
0.0
 10
-122.84383833267
 20
20.474807139317
 30
0.0
  0
SPLINE
  5
d5
100
AcDbEntity
  8
Plate
100
AcDbSpline
 70
     9
 71
     3
 72
    50
 73
    46
 74
     0
 42
0.0000001
 43
0.0000001
 40
197.032215375252
 40
197.032215375252
 40
197.032215375252
 40
197.032215375252
 40
202.032215375252
 40
202.032215375252
 40
202.032215375252
 40
203.032215375252
 40
203.032215375252
 40
203.032215375252
 40
204.032215375252
 40
204.032215375252
 40
204.032215375252
 40
205.032215375252
 40
205.032215375252
 40
205.032215375252
 40
206.032215375252
 40
206.032215375252
 40
206.032215375252
 40
207.532215375252
 40
207.532215375252
 40
207.532215375252
 40
208.532215375252
 40
208.532215375252
 40
208.532215375252
 40
209.532215375252
 40
209.532215375252
 40
209.532215375252
 40
210.532215375252
 40
210.532215375252
 40
210.532215375252
 40
211.532215375252
 40
211.532215375252
 40
211.532215375252
 40
213.032215375252
 40
213.032215375252
 40
213.032215375252
 40
214.032215375252
 40
214.032215375252
 40
214.032215375252
 40
215.032215375252
 40
215.032215375252
 40
215.032215375252
 40
216.032215375252
 40
216.032215375252
 40
216.032215375252
 40
217.032215375252
 40
217.032215375252
 40
217.032215375252
 40
217.032215375252
 10
-8.999999999998
 20
21.5
 30
0.0
 10
-8.999999999997
 20
19.833333333333
 30
0.0
 10
-8.999999999997
 20
18.166666666667
 30
0.0
 10
-8.999999999997
 20
16.5
 30
0.0
 10
-8.999999999997
 20
16.224108
 30
0.0
 10
-8.775891999997
 20
16.0
 30
0.0
 10
-8.499999999997
 20
16.0
 30
0.0
 10
-7.120539999997
 20
16.0
 30
0.0
 10
-5.999999999996
 20
14.879460000001
 30
0.0
 10
-5.999999999996
 20
13.500000000001
 30
0.0
 10
-5.999999999996
 20
12.948216000001
 30
0.0
 10
-5.551783999996
 20
12.500000000001
 30
0.0
 10
-4.999999999996
 20
12.500000000001
 30
0.0
 10
-4.448215999996
 20
12.500000000001
 30
0.0
 10
-3.999999999996
 20
12.948216000001
 30
0.0
 10
-3.999999999996
 20
13.500000000001
 30
0.0
 10
-3.999999999996
 20
14.000000000001
 30
0.0
 10
-3.999999999996
 20
14.500000000001
 30
0.0
 10
-3.999999999996
 20
15.000000000001
 30
0.0
 10
-3.999999999996
 20
15.551784000001
 30
0.0
 10
-4.448215999997
 20
16.000000000001
 30
0.0
 10
-4.999999999997
 20
16.000000000001
 30
0.0
 10
-6.655351999997
 20
16.0
 30
0.0
 10
-7.999999999997
 20
17.344648
 30
0.0
 10
-7.999999999997
 20
19.0
 30
0.0
 10
-7.999999999998
 20
20.655352
 30
0.0
 10
-6.655351999998
 20
22.0
 30
0.0
 10
-4.999999999998
 20
22.000000000001
 30
0.0
 10
-4.448215999998
 20
22.000000000001
 30
0.0
 10
-3.999999999998
 20
22.448216000001
 30
0.0
 10
-3.999999999998
 20
23.000000000001
 30
0.0
 10
-3.999999999998
 20
23.500000000001
 30
0.0
 10
-3.999999999998
 20
24.000000000001
 30
0.0
 10
-3.999999999999
 20
24.500000000001
 30
0.0
 10
-3.999999999999
 20
25.051784000001
 30
0.0
 10
-4.448215999999
 20
25.500000000001
 30
0.0
 10
-4.999999999999
 20
25.500000000001
 30
0.0
 10
-5.551783999999
 20
25.500000000001
 30
0.0
 10
-5.999999999999
 20
25.051784000001
 30
0.0
 10
-5.999999999999
 20
24.500000000001
 30
0.0
 10
-5.999999999998
 20
23.120540000001
 30
0.0
 10
-7.120539999998
 20
22.0
 30
0.0
 10
-8.499999999998
 20
22.0
 30
0.0
 10
-8.775891999998
 20
22.0
 30
0.0
 10
-8.999999999998
 20
21.775892
 30
0.0
 10
-8.999999999998
 20
21.5
 30
0.0
  0
SPLINE
  5
d6
100
AcDbEntity
  8
Plate
100
AcDbSpline
 70
     9
 71
     3
 72
   230
 73
   226
 74
     0
 42
0.0000001
 43
0.0000001
 40
0.0
 40
0.0
 40
0.0
 40
0.0
 40
1.0
 40
1.0
 40
1.0
 40
11.0
 40
11.0
 40
11.0
 40
72.75
 40
72.75
 40
72.75
 40
76.75
 40
76.75
 40
76.75
 40
77.75
 40
77.75
 40
77.75
 40
78.75
 40
78.75
 40
78.75
 40
79.75
 40
79.75
 40
79.75
 40
80.75
 40
80.75
 40
80.75
 40
86.25
 40
86.25
 40
86.25
 40
91.75
 40
91.75
 40
91.75
 40
92.75
 40
92.75
 40
92.75
 40
93.75
 40
93.75
 40
93.75
 40
94.75
 40
94.75
 40
94.75
 40
95.75
 40
95.75
 40
95.75
 40
118.75
 40
118.75
 40
118.75
 40
127.998523548804
 40
127.998523548804
 40
127.998523548804
 40
128.998523548804
 40
128.998523548804
 40
128.998523548804
 40
129.998523548804
 40
129.998523548804
 40
129.998523548804
 40
148.00469381364
 40
148.00469381364
 40
148.00469381364
 40
149.00469381364
 40
149.00469381364
 40
149.00469381364
 40
157.7818707742
 40
157.7818707742
 40
157.7818707742
 40
161.7818707742
 40
161.7818707742
 40
161.7818707742
 40
162.7818707742
 40
162.7818707742
 40
162.7818707742
 40
163.7818707742
 40
163.7818707742
 40
163.7818707742
 40
164.7818707742
 40
164.7818707742
 40
164.7818707742
 40
165.7818707742
 40
165.7818707742
 40
165.7818707742
 40
171.2818707742
 40
171.2818707742
 40
171.2818707742
 40
176.7818707742
 40
176.7818707742
 40
176.7818707742
 40
177.7818707742
 40
177.7818707742
 40
177.7818707742
 40
178.7818707742
 40
178.7818707742
 40
178.7818707742
 40
179.7818707742
 40
179.7818707742
 40
179.7818707742
 40
180.7818707742
 40
180.7818707742
 40
180.7818707742
 40
184.7818707742
 40
184.7818707742
 40
184.7818707742
 40
203.520011558509
 40
203.520011558509
 40
203.520011558509
 40
204.520011558509
 40
204.520011558509
 40
204.520011558509
 40
222.996293127124
 40
222.996293127124
 40
222.996293127124
 40
223.996293127124
 40
223.996293127124
 40
223.996293127124
 40
242.734433911433
 40
242.734433911433
 40
242.734433911433
 40
243.231795929282
 40
243.231795929282
 40
243.231795929282
 40
262.231795929283
 40
262.231795929283
 40
262.231795929283
 40
262.729157947132
 40
262.729157947132
 40
262.729157947132
 40
300.729157947132
 40
300.729157947132
 40
300.729157947132
 40
304.729157947132
 40
304.729157947132
 40
304.729157947132
 40
305.729157947132
 40
305.729157947132
 40
305.729157947132
 40
306.729157947132
 40
306.729157947132
 40
306.729157947132
 40
307.729157947132
 40
307.729157947132
 40
307.729157947132
 40
308.729157947132
 40
308.729157947132
 40
308.729157947132
 40
314.229157947132
 40
314.229157947132
 40
314.229157947132
 40
319.729157947132
 40
319.729157947132
 40
319.729157947132
 40
320.729157947132
 40
320.729157947132
 40
320.729157947132
 40
321.729157947132
 40
321.729157947132
 40
321.729157947132
 40
322.729157947132
 40
322.729157947132
 40
322.729157947132
 40
323.729157947132
 40
323.729157947132
 40
323.729157947132
 40
327.729156240557
 40
327.729156240557
 40
327.729156240557
 40
336.729156240557
 40
336.729156240557
 40
336.729156240557
 40
337.729156240557
 40
337.729156240557
 40
337.729156240557
 40
355.729156240557
 40
355.729156240557
 40
355.729156240557
 40
356.729156240557
 40
356.729156240557
 40
356.729156240557
 40
365.729156240557
 40
365.729156240557
 40
365.729156240557
 40
388.729156240557
 40
388.729156240557
 40
388.729156240557
 40
389.729156240557
 40
389.729156240557
 40
389.729156240557
 40
390.729156240557
 40
390.729156240557
 40
390.729156240557
 40
391.729156240557
 40
391.729156240557
 40
391.729156240557
 40
392.729156240557
 40
392.729156240557
 40
392.729156240557
 40
398.229156240557
 40
398.229156240557
 40
398.229156240557
 40
403.729156240557
 40
403.729156240557
 40
403.729156240557
 40
404.729156240557
 40
404.729156240557
 40
404.729156240557
 40
405.729156240557
 40
405.729156240557
 40
405.729156240557
 40
406.729156240557
 40
406.729156240557
 40
406.729156240557
 40
407.729156240557
 40
407.729156240557
 40
407.729156240557
 40
411.729156240557
 40
411.729156240557
 40
411.729156240557
 40
454.479156240557
 40
454.479156240557
 40
454.479156240557
 40
460.50434910124
 40
460.50434910124
 40
460.50434910124
 40
461.50434910124
 40
461.50434910124
 40
461.50434910124
 40
469.848187433911
 40
469.848187433911
 40
469.848187433911
 40
469.848187433911
 10
-71.25
 20
16.0
 30
0.0
 10
-70.974108
 20
16.0
 30
0.0
 10
-70.75
 20
15.775892
 30
0.0
 10
-70.75
 20
15.5
 30
0.0
 10
-70.75
 20
12.166666666667
 30
0.0
 10
-70.75
 20
8.833333333333
 30
0.0
 10
-70.75
 20
5.5
 30
0.0
 10
-50.166666666667
 20
5.5
 30
0.0
 10
-29.583333333333
 20
5.5
 30
0.0
 10
-9.0
 20
5.5
 30
0.0
 10
-8.999999999999
 20
8.166666666667
 30
0.0
 10
-8.999999999997
 20
10.833333333333
 30
0.0
 10
-8.999999999996
 20
13.5
 30
0.0
 10
-8.999999999996
 20
13.775892
 30
0.0
 10
-8.775891999996
 20
14.0
 30
0.0
 10
-8.499999999996
 20
14.0
 30
0.0
 10
-8.224107999996
 20
14.0
 30
0.0
 10
-7.999999999996
 20
13.775892
 30
0.0
 10
-7.999999999996
 20
13.5
 30
0.0
 10
-7.999999999996
 20
11.844648
 30
0.0
 10
-6.655351999995
 20
10.5
 30
0.0
 10
-4.999999999995
 20
10.500000000001
 30
0.0
 10
-3.344647999995
 20
10.500000000001
 30
0.0
 10
-1.999999999996
 20
11.844648000002
 30
0.0
 10
-1.999999999996
 20
13.500000000002
 30
0.0
 10
-1.999999999996
 20
15.333333333335
 30
0.0
 10
-1.999999999997
 20
17.166666666668
 30
0.0
 10
-1.999999999997
 20
19.000000000002
 30
0.0
 10
-1.999999999998
 20
20.833333333335
 30
0.0
 10
-1.999999999998
 20
22.666666666668
 30
0.0
 10
-1.999999999999
 20
24.500000000002
 30
0.0
 10
-1.999999999999
 20
26.155352000002
 30
0.0
 10
-3.344647999999
 20
27.500000000001
 30
0.0
 10
-4.999999999999
 20
27.500000000001
 30
0.0
 10
-6.655351999999
 20
27.5
 30
0.0
 10
-7.999999999999
 20
26.155352
 30
0.0
 10
-7.999999999999
 20
24.5
 30
0.0
 10
-7.999999999999
 20
24.224108
 30
0.0
 10
-8.224107999998
 20
24.0
 30
0.0
 10
-8.499999999998
 20
24.0
 30
0.0
 10
-8.775891999998
 20
24.0
 30
0.0
 10
-8.999999999999
 20
24.224108
 30
0.0
 10
-8.999999999999
 20
24.5
 30
0.0
 10
-8.999999999999
 20
30.833333333333
 30
0.0
 10
-9.0
 20
37.166666666667
 30
0.0
 10
-9.0
 20
43.5
 30
0.0
 10
-12.082841182935
 20
43.5
 30
0.0
 10
-15.165682365869
 20
43.5
 30
0.0
 10
-18.248523548804
 20
43.5
 30
0.0
 10
-18.38340126058
 20
43.5
 30
0.0
 10
-18.512558139994
 20
43.554491603009
 30
0.0
 10
-18.606674520516
 20
43.651104770079
 30
0.0
 10
-18.700790901039
 20
43.747717937149
 30
0.0
 10
-18.751882898181
 20
43.878256981601
 30
0.0
 10
-18.748352211292
 20
44.013088474154
 30
0.0
 10
-18.591236681877
 20
50.013088474154
 30
0.0
 10
-18.434121152463
 20
56.013088474154
 30
0.0
 10
-18.277005623048
 20
62.013088474154
 30
0.0
 10
-18.269910513758
 20
62.284039766515
 30
0.0
 10
-18.04822113299
 20
62.5
 30
0.0
 10
-17.777176960561
 20
62.5
 30
0.0
 10
-14.85145130704
 20
62.5
 30
0.0
 10
-11.92572565352
 20
62.5
 30
0.0
 10
-9.0
 20
62.5
 30
0.0
 10
-8.999999999999
 20
63.833333333333
 30
0.0
 10
-8.999999999999
 20
65.166666666667
 30
0.0
 10
-8.999999999999
 20
66.5
 30
0.0
 10
-8.999999999999
 20
66.775892
 30
0.0
 10
-8.775891999999
 20
67.0
 30
0.0
 10
-8.499999999999
 20
67.0
 30
0.0
 10
-8.224107999999
 20
67.0
 30
0.0
 10
-7.999999999999
 20
66.775892
 30
0.0
 10
-7.999999999999
 20
66.5
 30
0.0
 10
-7.999999999998
 20
64.844648
 30
0.0
 10
-6.655351999998
 20
63.500000000001
 30
0.0
 10
-4.999999999998
 20
63.500000000001
 30
0.0
 10
-3.344647999998
 20
63.500000000001
 30
0.0
 10
-1.999999999998
 20
64.844648000002
 30
0.0
 10
-1.999999999999
 20
66.500000000002
 30
0.0
 10
-1.999999999999
 20
68.333333333335
 30
0.0
 10
-1.999999999999
 20
70.166666666668
 30
0.0
 10
-2.0
 20
72.000000000001
 30
0.0
 10
-2.0
 20
73.833333333335
 30
0.0
 10
-2.000000000001
 20
75.666666666668
 30
0.0
 10
-2.000000000001
 20
77.500000000002
 30
0.0
 10
-2.000000000002
 20
79.155352000002
 30
0.0
 10
-3.344648000002
 20
80.500000000001
 30
0.0
 10
-5.000000000002
 20
80.500000000001
 30
0.0
 10
-6.655352000002
 20
80.5
 30
0.0
 10
-8.000000000002
 20
79.155352
 30
0.0
 10
-8.000000000001
 20
77.5
 30
0.0
 10
-8.000000000001
 20
77.224108
 30
0.0
 10
-8.224108000001
 20
77.0
 30
0.0
 10
-8.500000000001
 20
77.0
 30
0.0
 10
-8.775892000001
 20
77.0
 30
0.0
 10
-9.000000000001
 20
77.224108
 30
0.0
 10
-9.000000000001
 20
77.5
 30
0.0
 10
-9.000000000001
 20
78.833333333333
 30
0.0
 10
-9.0
 20
80.166666666667
 30
0.0
 10
-9.0
 20
81.5
 30
0.0
 10
-15.246046928103
 20
81.5
 30
0.0
 10
-21.492093856205
 20
81.5
 30
0.0
 10
-27.738140784308
 20
81.5
 30
0.0
 10
-27.746867929031
 20
81.5
 30
0.0
 10
-27.755593577955
 20
81.500228489158
 30
0.0
 10
-27.76430876243
 20
81.500685232623
 30
0.0
 10
-33.91462891805
 20
81.823009853859
 30
0.0
 10
-40.06494907367
 20
82.145334475094
 30
0.0
 10
-46.215269229291
 20
82.46765909633
 30
0.0
 10
-46.223984413765
 20
82.468115839795
 30
0.0
 10
-46.232686146292
 20
82.468800680997
 30
0.0
 10
-46.241365482803
 20
82.469712916023
 30
0.0
 10
-52.453195912299
 20
83.122602602916
 30
0.0
 10
-58.665026341795
 20
83.775492289808
 30
0.0
 10
-64.876856771291
 20
84.4283819767
 30
0.0
 10
-65.042133043536
 20
84.441389501423
 30
0.0
 10
-65.207409315781
 20
84.454397026147
 30
0.0
 10
-65.372685588026
 20
84.46740455087
 30
0.0
 10
-71.697339308138
 20
84.798865607075
 30
0.0
 10
-78.021993028251
 20
85.130326663281
 30
0.0
 10
-84.346646748363
 20
85.461787719486
 30
0.0
 10
-84.512377276466
 20
85.466127526096
 30
0.0
 10
-84.678107804568
 20
85.470467332707
 30
0.0
 10
-84.843838332671
 20
85.474807139317
 30
0.0
 10
-97.510504999338
 20
85.474807139317
 30
0.0
 10
-110.177171666004
 20
85.474807139317
 30
0.0
 10
-122.843838332671
 20
85.474807139317
 30
0.0
 10
-122.843838332671
 20
84.141473805984
 30
0.0
 10
-122.843838332671
 20
82.808140472651
 30
0.0
 10
-122.843838332671
 20
81.474807139317
 30
0.0
 10
-122.843838332671
 20
81.198915139318
 30
0.0
 10
-123.067946332671
 20
80.974807139318
 30
0.0
 10
-123.343838332671
 20
80.974807139317
 30
0.0
 10
-123.619730332671
 20
80.974807139317
 30
0.0
 10
-123.843838332671
 20
81.198915139317
 30
0.0
 10
-123.843838332671
 20
81.474807139317
 30
0.0
 10
-123.843838332671
 20
83.130159139317
 30
0.0
 10
-125.188486332672
 20
84.474807139317
 30
0.0
 10
-126.843838332672
 20
84.474807139317
 30
0.0
 10
-128.499190332672
 20
84.474807139316
 30
0.0
 10
-129.843838332671
 20
83.130159139316
 30
0.0
 10
-129.843838332671
 20
81.474807139316
 30
0.0
 10
-129.84383833267
 20
79.641473805983
 30
0.0
 10
-129.84383833267
 20
77.808140472649
 30
0.0
 10
-129.84383833267
 20
75.974807139316
 30
0.0
 10
-129.843838332669
 20
74.141473805982
 30
0.0
 10
-129.843838332669
 20
72.308140472649
 30
0.0
 10
-129.843838332668
 20
70.474807139316
 30
0.0
 10
-129.843838332668
 20
68.819455139316
 30
0.0
 10
-128.499190332668
 20
67.474807139316
 30
0.0
 10
-126.843838332668
 20
67.474807139317
 30
0.0
 10
-125.188486332668
 20
67.474807139317
 30
0.0
 10
-123.843838332668
 20
68.819455139317
 30
0.0
 10
-123.843838332668
 20
70.474807139317
 30
0.0
 10
-123.843838332668
 20
70.750699139317
 30
0.0
 10
-123.619730332668
 20
70.974807139317
 30
0.0
 10
-123.343838332668
 20
70.974807139317
 30
0.0
 10
-123.067946332668
 20
70.974807139317
 30
0.0
 10
-122.843838332668
 20
70.750699139318
 30
0.0
 10
-122.843838332668
 20
70.474807139318
 30
0.0
 10
-122.843838332669
 20
69.141473805984
 30
0.0
 10
-122.84383833267
 20
67.808140472651
 30
0.0
 10
-122.843838332671
 20
66.474807139317
 30
0.0
 10
-119.843838332671
 20
66.474807139317
 30
0.0
 10
-116.843838332671
 20
66.474807139317
 30
0.0
 10
-113.843838332671
 20
66.474807139317
 30
0.0
 10
-113.567946332671
 20
66.474807139317
 30
0.0
 10
-113.343838332671
 20
66.250699139317
 30
0.0
 10
-113.343838332671
 20
65.974807139317
 30
0.0
 10
-113.343838332671
 20
59.974807139317
 30
0.0
 10
-113.343838332671
 20
53.974807139317
 30
0.0
 10
-113.343838332671
 20
47.974807139317
 30
0.0
 10
-113.343838332671
 20
47.698915139317
 30
0.0
 10
-113.567946332671
 20
47.474807139317
 30
0.0
 10
-113.843838332671
 20
47.474807139317
 30
0.0
 10
-116.843838332671
 20
47.474807139317
 30
0.0
 10
-119.843838332671
 20
47.474807139317
 30
0.0
 10
-122.843838332671
 20
47.474807139317
 30
0.0
 10
-122.843838332671
 20
41.141473805984
 30
0.0
 10
-122.843838332672
 20
34.808140472651
 30
0.0
 10
-122.843838332672
 20
28.474807139317
 30
0.0
 10
-122.843838332672
 20
28.198915139317
 30
0.0
 10
-123.067946332672
 20
27.974807139317
 30
0.0
 10
-123.343838332672
 20
27.974807139317
 30
0.0
 10
-123.619730332672
 20
27.974807139317
 30
0.0
 10
-123.843838332672
 20
28.198915139317
 30
0.0
 10
-123.843838332672
 20
28.474807139317
 30
0.0
 10
-123.843838332673
 20
30.130159139317
 30
0.0
 10
-125.188486332673
 20
31.474807139317
 30
0.0
 10
-126.843838332673
 20
31.474807139316
 30
0.0
 10
-128.499190332673
 20
31.474807139316
 30
0.0
 10
-129.843838332673
 20
30.130159139316
 30
0.0
 10
-129.843838332672
 20
28.474807139316
 30
0.0
 10
-129.843838332672
 20
26.641473805982
 30
0.0
 10
-129.843838332672
 20
24.808140472649
 30
0.0
 10
-129.843838332671
 20
22.974807139316
 30
0.0
 10
-129.843838332671
 20
21.141473805982
 30
0.0
 10
-129.84383833267
 20
19.308140472649
 30
0.0
 10
-129.84383833267
 20
17.474807139316
 30
0.0
 10
-129.843838332669
 20
15.819455139316
 30
0.0
 10
-128.499190332669
 20
14.474807139316
 30
0.0
 10
-126.843838332669
 20
14.474807139317
 30
0.0
 10
-125.188486332669
 20
14.474807139317
 30
0.0
 10
-123.843838332669
 20
15.819455139317
 30
0.0
 10
-123.84383833267
 20
17.474807139317
 30
0.0
 10
-123.84383833267
 20
17.750699139317
 30
0.0
 10
-123.61973033267
 20
17.974807139317
 30
0.0
 10
-123.34383833267
 20
17.974807139317
 30
0.0
 10
-123.06794633267
 20
17.974807139317
 30
0.0
 10
-122.84383833267
 20
17.750699139317
 30
0.0
 10
-122.84383833267
 20
17.474807139317
 30
0.0
 10
-122.84383833267
 20
14.808140472651
 30
0.0
 10
-122.84383833267
 20
12.141473805984
 30
0.0
 10
-122.843838332671
 20
9.474807139317
 30
0.0
 10
-108.593838332671
 20
9.474807139317
 30
0.0
 10
-94.343838332671
 20
9.474807139317
 30
0.0
 10
-80.093838332671
 20
9.474807139317
 30
0.0
 10
-80.093838332671
 20
11.483204759545
 30
0.0
 10
-80.093838332671
 20
13.491602379773
 30
0.0
 10
-80.093838332671
 20
15.5
 30
0.0
 10
-80.093838332671
 20
15.775892
 30
0.0
 10
-79.869730332671
 20
16.0
 30
0.0
 10
-79.593838332671
 20
16.0
 30
0.0
 10
-76.812558888447
 20
16.0
 30
0.0
 10
-74.031279444224
 20
16.0
 30
0.0
 10
-71.25
 20
16.0
 30
0.0
  0
ENDSEC
  0
SECTION
  2
OBJECTS
  0
DICTIONARY
  5
C
330
0
100
AcDbDictionary
281
     1
  3
ACAD_2007HEADERVARS_RT
350
AA
  3
ACAD_COLOR
350
6B
  3
ACAD_GROUP
350
D
  3
ACAD_LAYOUT
350
6A
  3
ACAD_MATERIAL
350
10
  3
ACAD_MLEADERSTYLE
350
6E
  3
ACAD_MLINESTYLE
350
67
  3
ACAD_PLOTSETTINGS
350
69
  3
ACAD_PLOTSTYLENAME
350
E
  3
ACAD_SCALELIST
350
3A
  3
ACAD_TABLESTYLE
350
6C
  3
ACAD_VISUALSTYLE
350
29
  3
ACDB_RECOMPOSE_DATA
350
A8
  3
AcDbVariableDictionary
350
9C
  3
DWGPROPS
350
A9
  0
DICTIONARY
  5
9A
330
5C
100
AcDbDictionary
280
     1
281
     1
  3
ADSK_XREC_LAYER_RECONCILED
360
9B
  0
DICTIONARY
  5
AA
102
{ACAD_REACTORS
330
C
102
}
330
C
100
AcDbDictionary
281
     1
  3
DIMJOGANG
350
AB
  0
DICTIONARY
  5
6B
102
{ACAD_REACTORS
330
C
102
}
330
C
100
AcDbDictionary
281
     1
  0
DICTIONARY
  5
D
102
{ACAD_REACTORS
330
C
102
}
330
C
100
AcDbDictionary
281
     1
  0
DICTIONARY
  5
6A
102
{ACAD_REACTORS
330
C
102
}
330
C
100
AcDbDictionary
281
     1
  3
Layout1
350
74
  3
Layout2
350
7C
  3
Model
350
78
  0
DICTIONARY
  5
10
102
{ACAD_REACTORS
330
C
102
}
330
C
100
AcDbDictionary
281
     1
  3
ByBlock
350
19
  3
ByLayer
350
11
  3
Global
350
21
  0
DICTIONARY
  5
6E
102
{ACAD_REACTORS
330
C
102
}
330
C
100
AcDbDictionary
281
     1
  3
Standard
350
6F
  0
DICTIONARY
  5
67
102
{ACAD_REACTORS
330
C
102
}
330
C
100
AcDbDictionary
281
     1
  3
Standard
350
68
  0
DICTIONARY
  5
69
102
{ACAD_REACTORS
330
C
102
}
330
C
100
AcDbDictionary
281
     1
  0
ACDBDICTIONARYWDFLT
  5
E
102
{ACAD_REACTORS
330
C
102
}
330
C
100
AcDbDictionary
281
     1
  3
Normal
350
F
100
AcDbDictionaryWithDefault
340
F
  0
DICTIONARY
  5
3A
102
{ACAD_REACTORS
330
C
102
}
330
C
100
AcDbDictionary
281
     1
  3
A0
350
3B
  3
A1
350
3C
  3
A2
350
3D
  3
A3
350
3E
  3
A4
350
3F
  3
A5
350
40
  3
A6
350
41
  3
A7
350
42
  3
A8
350
43
  3
A9
350
44
  3
B0
350
45
  3
B1
350
46
  3
B2
350
47
  3
B3
350
48
  3
B4
350
49
  3
B5
350
4A
  3
B6
350
4B
  3
B7
350
4C
  3
B8
350
4D
  3
B9
350
4E
  3
C0
350
4F
  3
C1
350
50
  3
C2
350
51
  3
C3
350
52
  3
C4
350
53
  3
C5
350
54
  3
C6
350
55
  3
C7
350
56
  3
C8
350
57
  3
C9
350
58
  3
D0
350
59
  3
D1
350
5A
  3
D2
350
5B
  0
DICTIONARY
  5
6C
102
{ACAD_REACTORS
330
C
102
}
330
C
100
AcDbDictionary
281
     1
  3
Standard
350
6D
  0
DICTIONARY
  5
29
102
{ACAD_REACTORS
330
C
102
}
330
C
100
AcDbDictionary
281
     1
  3
2dWireframe
350
2F
  3
3D Hidden
350
31
  3
3dWireframe
350
30
  3
Basic
350
2E
  3
Brighten
350
35
  3
ColorChange
350
39
  3
Conceptual
350
32
  3
Dim
350
34
  3
Facepattern
350
38
  3
Flat
350
2A
  3
FlatWithEdges
350
2B
  3
Gouraud
350
2C
  3
GouraudWithEdges
350
2D
  3
Linepattern
350
37
  3
Realistic
350
33
  3
Thicken
350
36
  0
XRECORD
  5
A8
102
{ACAD_REACTORS
330
C
102
}
330
C
100
AcDbXrecord
280
     1
 90
     1
330
6D
  0
DICTIONARY
  5
9C
102
{ACAD_REACTORS
330
C
102
}
330
C
100
AcDbDictionary
281
     1
  3
CANNOSCALE
350
A0
  3
CMLEADERSTYLE
350
9E
  3
CTABLESTYLE
350
9D
  3
DIMASSOC
350
A5
  3
HIDETEXT
350
A4
  3
INDEXCTL
350
A3
  3
LIGHTINGUNITS
350
A1
  3
MSLTSCALE
350
9F
  3
SORTENTS
350
A2
  0
XRECORD
  5
A9
102
{ACAD_REACTORS
330
C
102
}
330
C
100
AcDbXrecord
280
     1
  1
DWGPROPS COOKIE
  2

  3

  4

  6

  7

  8
Michael
  9

300
=
301
=
302
=
303
=
304
=
305
=
306
=
307
=
308
=
309
=
 40
0.002929872685
 41
2456236.994979560841
 42
2456236.997909063008
  1

 90
     0
  0
XRECORD
  5
9B
102
{ACAD_REACTORS
330
9A
102
}
330
9A
100
AcDbXrecord
280
     1
290
1
  0
XRECORD
  5
AB
102
{ACAD_REACTORS
330
AA
102
}
330
AA
100
AcDbXrecord
280
     1
 40
1.570796326795
  0
LAYOUT
  5
74
102
{ACAD_XDICTIONARY
360
B1
102
}
102
{ACAD_REACTORS
330
6A
102
}
330
6A
100
AcDbPlotSettings
  1

  2
Auto Canon Bubble-Jet BJC-1000 on MGIBSON-HOME
  4

  6

 40
0.0
 41
0.0
 42
0.0
 43
0.0
 44
0.0
 45
0.0
 46
0.0
 47
0.0
 48
0.0
 49
0.0
140
0.0
141
0.0
142
1.0
143
1.0
 70
   688
 72
     0
 73
     0
 74
     5
  7

 75
    16
147
1.0
148
0.0
149
0.0
100
AcDbLayout
  1
Layout1
 70
     1
 71
     1
 10
0.0
 20
0.0
 11
420.0
 21
297.0
 12
0.0
 22
0.0
 32
0.0
 14
100000000000000000000.0
 24
100000000000000000000.0
 34
100000000000000000000.0
 15
-100000000000000000000.0
 25
-100000000000000000000.0
 35
-100000000000000000000.0
146
0.0
 13
0.0
 23
0.0
 33
0.0
 16
1.0
 26
0.0
 36
0.0
 17
0.0
 27
1.0
 37
0.0
 76
     0
330
71
  0
LAYOUT
  5
7C
102
{ACAD_XDICTIONARY
360
B5
102
}
102
{ACAD_REACTORS
330
6A
102
}
330
6A
100
AcDbPlotSettings
  1

  2
Auto Canon Bubble-Jet BJC-1000 on MGIBSON-HOME
  4

  6

 40
0.0
 41
0.0
 42
0.0
 43
0.0
 44
0.0
 45
0.0
 46
0.0
 47
0.0
 48
0.0
 49
0.0
140
0.0
141
0.0
142
1.0
143
1.0
 70
   688
 72
     0
 73
     0
 74
     5
  7

 75
    16
147
1.0
148
0.0
149
0.0
100
AcDbLayout
  1
Layout2
 70
     1
 71
     2
 10
0.0
 20
0.0
 11
12.0
 21
9.0
 12
0.0
 22
0.0
 32
0.0
 14
0.0
 24
0.0
 34
0.0
 15
0.0
 25
0.0
 35
0.0
146
0.0
 13
0.0
 23
0.0
 33
0.0
 16
1.0
 26
0.0
 36
0.0
 17
0.0
 27
1.0
 37
0.0
 76
     0
330
79
  0
LAYOUT
  5
78
102
{ACAD_XDICTIONARY
360
B3
102
}
102
{ACAD_REACTORS
330
6A
102
}
330
6A
100
AcDbPlotSettings
  1

  2
Auto Canon Bubble-Jet BJC-1000 on MGIBSON-HOME
  4

  6

 40
0.0
 41
0.0
 42
0.0
 43
0.0
 44
0.0
 45
0.0
 46
0.0
 47
0.0
 48
0.0
 49
0.0
140
0.0
141
0.0
142
1.0
143
1.0
 70
  1712
 72
     0
 73
     0
 74
     0
  7

 75
     0
147
1.0
148
0.0
149
0.0
100
AcDbLayout
  1
Model
 70
     1
 71
     0
 10
0.0
 20
0.0
 11
12.0
 21
9.0
 12
0.0
 22
0.0
 32
0.0
 14
0.0
 24
0.0
 34
0.0
 15
0.0
 25
0.0
 35
0.0
146
0.0
 13
0.0
 23
0.0
 33
0.0
 16
1.0
 26
0.0
 36
0.0
 17
0.0
 27
1.0
 37
0.0
 76
     0
330
75
331
5F
  0
MATERIAL
  5
19
102
{ACAD_XDICTIONARY
360
1A
102
}
102
{ACAD_REACTORS
330
10
102
}
330
10
100
AcDbMaterial
  1
ByBlock
 72
     0
 43
0.020833333333
 43
0.0
 43
0.0
 43
0.0
 43
0.0
 43
0.020833333333
 43
0.0
 43
0.0
 43
0.0
 43
0.0
 43
1.0
 43
0.0
 43
0.0
 43
0.0
 43
0.0
 43
1.0
 77
     0
 47
0.020833333333
 47
0.0
 47
0.0
 47
0.0
 47
0.0
 47
0.020833333333
 47
0.0
 47
0.0
 47
0.0
 47
0.0
 47
1.0
 47
0.0
 47
0.0
 47
0.0
 47
0.0
 47
1.0
171
     0
 49
0.020833333333
 49
0.0
 49
0.0
 49
0.0
 49
0.0
 49
0.020833333333
 49
0.0
 49
0.0
 49
0.0
 49
0.0
 49
1.0
 49
0.0
 49
0.0
 49
0.0
 49
0.0
 49
1.0
175
     0
142
0.020833333333
142
0.0
142
0.0
142
0.0
142
0.0
142
0.020833333333
142
0.0
142
0.0
142
0.0
142
0.0
142
1.0
142
0.0
142
0.0
142
0.0
142
0.0
142
1.0
179
0
144
0.020833333333
144
0.0
144
0.0
144
0.0
144
0.0
144
0.020833333333
144
0.0
144
0.0
144
0.0
144
0.0
144
1.0
144
0.0
144
0.0
144
0.0
144
0.0
144
1.0
147
0.020833333333
147
0.0
147
0.0
147
0.0
147
0.0
147
0.020833333333
147
0.0
147
0.0
147
0.0
147
0.0
147
1.0
147
0.0
147
0.0
147
0.0
147
0.0
147
1.0
  0
MATERIAL
  5
11
102
{ACAD_XDICTIONARY
360
12
102
}
102
{ACAD_REACTORS
330
10
102
}
330
10
100
AcDbMaterial
  1
ByLayer
 72
     0
 43
0.020833333333
 43
0.0
 43
0.0
 43
0.0
 43
0.0
 43
0.020833333333
 43
0.0
 43
0.0
 43
0.0
 43
0.0
 43
1.0
 43
0.0
 43
0.0
 43
0.0
 43
0.0
 43
1.0
 77
     0
 47
0.020833333333
 47
0.0
 47
0.0
 47
0.0
 47
0.0
 47
0.020833333333
 47
0.0
 47
0.0
 47
0.0
 47
0.0
 47
1.0
 47
0.0
 47
0.0
 47
0.0
 47
0.0
 47
1.0
171
     0
 49
0.020833333333
 49
0.0
 49
0.0
 49
0.0
 49
0.0
 49
0.020833333333
 49
0.0
 49
0.0
 49
0.0
 49
0.0
 49
1.0
 49
0.0
 49
0.0
 49
0.0
 49
0.0
 49
1.0
175
     0
142
0.020833333333
142
0.0
142
0.0
142
0.0
142
0.0
142
0.020833333333
142
0.0
142
0.0
142
0.0
142
0.0
142
1.0
142
0.0
142
0.0
142
0.0
142
0.0
142
1.0
179
0
144
0.020833333333
144
0.0
144
0.0
144
0.0
144
0.0
144
0.020833333333
144
0.0
144
0.0
144
0.0
144
0.0
144
1.0
144
0.0
144
0.0
144
0.0
144
0.0
144
1.0
147
0.020833333333
147
0.0
147
0.0
147
0.0
147
0.0
147
0.020833333333
147
0.0
147
0.0
147
0.0
147
0.0
147
1.0
147
0.0
147
0.0
147
0.0
147
0.0
147
1.0
  0
MATERIAL
  5
21
102
{ACAD_XDICTIONARY
360
22
102
}
102
{ACAD_REACTORS
330
10
102
}
330
10
100
AcDbMaterial
  1
Global
 72
     0
 43
0.020833333333
 43
0.0
 43
0.0
 43
0.0
 43
0.0
 43
0.020833333333
 43
0.0
 43
0.0
 43
0.0
 43
0.0
 43
1.0
 43
0.0
 43
0.0
 43
0.0
 43
0.0
 43
1.0
 77
     0
 47
0.020833333333
 47
0.0
 47
0.0
 47
0.0
 47
0.0
 47
0.020833333333
 47
0.0
 47
0.0
 47
0.0
 47
0.0
 47
1.0
 47
0.0
 47
0.0
 47
0.0
 47
0.0
 47
1.0
171
     0
 49
0.020833333333
 49
0.0
 49
0.0
 49
0.0
 49
0.0
 49
0.020833333333
 49
0.0
 49
0.0
 49
0.0
 49
0.0
 49
1.0
 49
0.0
 49
0.0
 49
0.0
 49
0.0
 49
1.0
175
     0
142
0.020833333333
142
0.0
142
0.0
142
0.0
142
0.0
142
0.020833333333
142
0.0
142
0.0
142
0.0
142
0.0
142
1.0
142
0.0
142
0.0
142
0.0
142
0.0
142
1.0
179
0
144
0.020833333333
144
0.0
144
0.0
144
0.0
144
0.0
144
0.020833333333
144
0.0
144
0.0
144
0.0
144
0.0
144
1.0
144
0.0
144
0.0
144
0.0
144
0.0
144
1.0
147
0.020833333333
147
0.0
147
0.0
147
0.0
147
0.0
147
0.020833333333
147
0.0
147
0.0
147
0.0
147
0.0
147
1.0
147
0.0
147
0.0
147
0.0
147
0.0
147
1.0
  0
MLEADERSTYLE
  5
6F
102
{ACAD_REACTORS
330
6E
102
}
330
6E
100
AcDbMLeaderStyle
170
     2
171
     1
172
     0
 90
     2
 40
0.0
 41
0.0
173
     1
 91
-1056964608
340
63
 92
    -2
290
1
 42
0.09
291
1
 43
0.36
  3
Standard
 44
0.18
300

342
5D
174
     1
178
     6
175
     1
176
     0
 93
-1056964608
 45
0.18
292
0
297
0
 46
0.18
 94
-1056964608
 47
1.0
 49
1.0
140
1.0
293
1
141
0.0
294
1
177
     0
142
1.0
295
0
296
0
143
0.125
1001
ACAD_MLEADERVER
1070
     2
  0
MLINESTYLE
  5
68
102
{ACAD_REACTORS
330
67
102
}
330
67
100
AcDbMlineStyle
  2
STANDARD
 70
     0
  3

 62
   256
 51
90.0
 52
90.0
 71
     2
 49
0.5
 62
   256
  6
BYLAYER
 49
-0.5
 62
   256
  6
BYLAYER
  0
ACDBPLACEHOLDER
  5
F
102
{ACAD_REACTORS
330
E
102
}
330
E
  0
SCALE
  5
3B
102
{ACAD_REACTORS
330
3A
102
}
330
3A
100
AcDbScale
 70
     0
300
1:1
140
1.0
141
1.0
290
1
  0
SCALE
  5
3C
102
{ACAD_REACTORS
330
3A
102
}
330
3A
100
AcDbScale
 70
     0
300
1:2
140
1.0
141
2.0
290
0
  0
SCALE
  5
3D
102
{ACAD_REACTORS
330
3A
102
}
330
3A
100
AcDbScale
 70
     0
300
1:4
140
1.0
141
4.0
290
0
  0
SCALE
  5
3E
102
{ACAD_REACTORS
330
3A
102
}
330
3A
100
AcDbScale
 70
     0
300
1:5
140
1.0
141
5.0
290
0
  0
SCALE
  5
3F
102
{ACAD_REACTORS
330
3A
102
}
330
3A
100
AcDbScale
 70
     0
300
1:8
140
1.0
141
8.0
290
0
  0
SCALE
  5
40
102
{ACAD_REACTORS
330
3A
102
}
330
3A
100
AcDbScale
 70
     0
300
1:10
140
1.0
141
10.0
290
0
  0
SCALE
  5
41
102
{ACAD_REACTORS
330
3A
102
}
330
3A
100
AcDbScale
 70
     0
300
1:16
140
1.0
141
16.0
290
0
  0
SCALE
  5
42
102
{ACAD_REACTORS
330
3A
102
}
330
3A
100
AcDbScale
 70
     0
300
1:20
140
1.0
141
20.0
290
0
  0
SCALE
  5
43
102
{ACAD_REACTORS
330
3A
102
}
330
3A
100
AcDbScale
 70
     0
300
1:30
140
1.0
141
30.0
290
0
  0
SCALE
  5
44
102
{ACAD_REACTORS
330
3A
102
}
330
3A
100
AcDbScale
 70
     0
300
1:40
140
1.0
141
40.0
290
0
  0
SCALE
  5
45
102
{ACAD_REACTORS
330
3A
102
}
330
3A
100
AcDbScale
 70
     0
300
1:50
140
1.0
141
50.0
290
0
  0
SCALE
  5
46
102
{ACAD_REACTORS
330
3A
102
}
330
3A
100
AcDbScale
 70
     0
300
1:100
140
1.0
141
100.0
290
0
  0
SCALE
  5
47
102
{ACAD_REACTORS
330
3A
102
}
330
3A
100
AcDbScale
 70
     0
300
2:1
140
2.0
141
1.0
290
0
  0
SCALE
  5
48
102
{ACAD_REACTORS
330
3A
102
}
330
3A
100
AcDbScale
 70
     0
300
4:1
140
4.0
141
1.0
290
0
  0
SCALE
  5
49
102
{ACAD_REACTORS
330
3A
102
}
330
3A
100
AcDbScale
 70
     0
300
8:1
140
8.0
141
1.0
290
0
  0
SCALE
  5
4A
102
{ACAD_REACTORS
330
3A
102
}
330
3A
100
AcDbScale
 70
     0
300
10:1
140
10.0
141
1.0
290
0
  0
SCALE
  5
4B
102
{ACAD_REACTORS
330
3A
102
}
330
3A
100
AcDbScale
 70
     0
300
100:1
140
100.0
141
1.0
290
0
  0
SCALE
  5
4C
102
{ACAD_REACTORS
330
3A
102
}
330
3A
100
AcDbScale
 70
     0
300
1/128" = 1'-0"
140
0.0078125
141
12.0
290
0
  0
SCALE
  5
4D
102
{ACAD_REACTORS
330
3A
102
}
330
3A
100
AcDbScale
 70
     0
300
1/64" = 1'-0"
140
0.015625
141
12.0
290
0
  0
SCALE
  5
4E
102
{ACAD_REACTORS
330
3A
102
}
330
3A
100
AcDbScale
 70
     0
300
1/32" = 1'-0"
140
0.03125
141
12.0
290
0
  0
SCALE
  5
4F
102
{ACAD_REACTORS
330
3A
102
}
330
3A
100
AcDbScale
 70
     0
300
1/16" = 1'-0"
140
0.0625
141
12.0
290
0
  0
SCALE
  5
50
102
{ACAD_REACTORS
330
3A
102
}
330
3A
100
AcDbScale
 70
     0
300
3/32" = 1'-0"
140
0.09375
141
12.0
290
0
  0
SCALE
  5
51
102
{ACAD_REACTORS
330
3A
102
}
330
3A
100
AcDbScale
 70
     0
300
1/8" = 1'-0"
140
0.125
141
12.0
290
0
  0
SCALE
  5
52
102
{ACAD_REACTORS
330
3A
102
}
330
3A
100
AcDbScale
 70
     0
300
3/16" = 1'-0"
140
0.1875
141
12.0
290
0
  0
SCALE
  5
53
102
{ACAD_REACTORS
330
3A
102
}
330
3A
100
AcDbScale
 70
     0
300
1/4" = 1'-0"
140
0.25
141
12.0
290
0
  0
SCALE
  5
54
102
{ACAD_REACTORS
330
3A
102
}
330
3A
100
AcDbScale
 70
     0
300
3/8" = 1'-0"
140
0.375
141
12.0
290
0
  0
SCALE
  5
55
102
{ACAD_REACTORS
330
3A
102
}
330
3A
100
AcDbScale
 70
     0
300
1/2" = 1'-0"
140
0.5
141
12.0
290
0
  0
SCALE
  5
56
102
{ACAD_REACTORS
330
3A
102
}
330
3A
100
AcDbScale
 70
     0
300
3/4" = 1'-0"
140
0.75
141
12.0
290
0
  0
SCALE
  5
57
102
{ACAD_REACTORS
330
3A
102
}
330
3A
100
AcDbScale
 70
     0
300
1" = 1'-0"
140
1.0
141
12.0
290
0
  0
SCALE
  5
58
102
{ACAD_REACTORS
330
3A
102
}
330
3A
100
AcDbScale
 70
     0
300
1-1/2" = 1'-0"
140
1.5
141
12.0
290
0
  0
SCALE
  5
59
102
{ACAD_REACTORS
330
3A
102
}
330
3A
100
AcDbScale
 70
     0
300
3" = 1'-0"
140
3.0
141
12.0
290
0
  0
SCALE
  5
5A
102
{ACAD_REACTORS
330
3A
102
}
330
3A
100
AcDbScale
 70
     0
300
6" = 1'-0"
140
6.0
141
12.0
290
0
  0
SCALE
  5
5B
102
{ACAD_REACTORS
330
3A
102
}
330
3A
100
AcDbScale
 70
     0
300
1'-0" = 1'-0"
140
12.0
141
12.0
290
0
  0
TABLESTYLE
  5
6D
102
{ACAD_XDICTIONARY
360
A6
102
}
102
{ACAD_REACTORS
330
6C
102
}
330
6C
100
AcDbTableStyle
  3
Standard
 70
     0
 71
     0
 40
1.5
 41
1.5
280
     0
281
     0
  7
Standard
140
4.5
170
     2
 62
     0
 63
     7
283
     0
274
    -2
284
     1
 64
     0
275
    -2
285
     1
 65
     0
276
-2
286
     1
 66
     0
277
-2
287
     1
 67
     0
278
-2
288
     1
 68
     0
279
-2
289
     1
 69
     0
  7
Standard
140
6.0
170
     5
 62
     0
 63
     7
283
     0
274
    -2
284
     1
 64
     0
275
    -2
285
     1
 65
     0
276
-2
286
     1
 66
     0
277
-2
287
     1
 67
     0
278
-2
288
     1
 68
     0
279
-2
289
     1
 69
     0
  7
Standard
140
4.5
170
     5
 62
     0
 63
     7
283
     0
274
    -2
284
     1
 64
     0
275
    -2
285
     1
 65
     0
276
-2
286
     1
 66
     0
277
-2
287
     1
 67
     0
278
-2
288
     1
 68
     0
279
-2
289
     1
 69
     0
  0
VISUALSTYLE
  5
2F
102
{ACAD_REACTORS
330
29
102
}
330
29
100
AcDbVisualStyle
  2
2dWireframe
 70
     4
 71
     0
 72
     2
 73
     0
 90
     0
 40
-0.6
 41
-30.0
 62
     5
 63
     7
 74
     1
 91
     4
 64
     7
 65
   257
 75
     1
175
     1
 42
1.0
 92
     0
 66
   257
 43
1.0
 76
     1
 77
     6
 78
     2
 67
     7
 79
     5
170
     0
171
     0
290
0
174
     0
 93
     1
 44
0.0
173
     0
291
0
 45
0.0
1001
ACAD
1000
AcDbSavedByObjectVersion
1070
     0
  0
VISUALSTYLE
  5
31
102
{ACAD_REACTORS
330
29
102
}
330
29
100
AcDbVisualStyle
  2
3D Hidden
 70
     6
 71
     1
 72
     2
 73
     2
 90
     0
 40
-0.6
 41
-30.0
 62
     5
 63
     7
 74
     2
 91
     2
 64
     7
 65
   257
 75
     2
175
     1
 42
40.0
 92
     0
 66
   257
 43
1.0
 76
     1
 77
     6
 78
     2
 67
     7
 79
     3
170
     0
171
     0
290
0
174
     0
 93
     1
 44
0.0
173
     0
291
0
 45
0.0
1001
ACAD
1000
AcDbSavedByObjectVersion
1070
     0
  0
VISUALSTYLE
  5
30
102
{ACAD_REACTORS
330
29
102
}
330
29
100
AcDbVisualStyle
  2
3dWireframe
 70
     5
 71
     0
 72
     2
 73
     0
 90
     0
 40
-0.6
 41
-30.0
 62
     5
 63
     7
 74
     1
 91
     4
 64
     7
 65
   257
 75
     1
175
     1
 42
1.0
 92
     0
 66
   257
 43
1.0
 76
     1
 77
     6
 78
     2
 67
     7
 79
     5
170
     0
171
     0
290
0
174
     0
 93
     1
 44
0.0
173
     0
291
0
 45
0.0
1001
ACAD
1000
AcDbSavedByObjectVersion
1070
     0
  0
VISUALSTYLE
  5
2E
102
{ACAD_REACTORS
330
29
102
}
330
29
100
AcDbVisualStyle
  2
Basic
 70
     7
 71
     1
 72
     0
 73
     1
 90
     0
 40
-0.6
 41
-30.0
 62
     5
 63
     7
 74
     0
 91
     4
 64
     7
 65
   257
 75
     1
175
     1
 42
1.0
 92
     8
 66
     7
 43
1.0
 76
     1
 77
     6
 78
     2
 67
     7
 79
     5
170
     0
171
     0
290
0
174
     0
 93
     1
 44
0.0
173
     0
291
1
 45
0.0
1001
ACAD
1000
AcDbSavedByObjectVersion
1070
     0
  0
VISUALSTYLE
  5
35
102
{ACAD_REACTORS
330
29
102
}
330
29
100
AcDbVisualStyle
  2
Brighten
 70
    12
 71
     2
 72
     2
 73
     0
 90
     0
 40
-0.6
 41
-30.0
 62
     5
 63
     7
 74
     1
 91
     4
 64
     7
 65
   257
 75
     1
175
     1
 42
1.0
 92
     8
 66
     7
 43
1.0
 76
     1
 77
     6
 78
     2
 67
     7
 79
     5
170
     0
171
     0
290
0
174
     0
 93
     1
 44
50.0
173
     0
291
1
 45
0.0
1001
ACAD
1000
AcDbSavedByObjectVersion
1070
     0
  0
VISUALSTYLE
  5
39
102
{ACAD_REACTORS
330
29
102
}
330
29
100
AcDbVisualStyle
  2
ColorChange
 70
    16
 71
     2
 72
     2
 73
     3
 90
     0
 40
-0.6
 41
-30.0
 62
     5
 63
     8
 74
     1
 91
     4
 64
     7
 65
   257
 75
     1
175
     1
 42
1.0
 92
     8
 66
     8
 43
1.0
 76
     1
 77
     6
 78
     2
 67
     7
 79
     5
170
     0
171
     0
290
0
174
     0
 93
     1
 44
0.0
173
     0
291
1
 45
0.0
1001
ACAD
1000
AcDbSavedByObjectVersion
1070
     0
  0
VISUALSTYLE
  5
32
102
{ACAD_REACTORS
330
29
102
}
330
29
100
AcDbVisualStyle
  2
Conceptual
 70
     9
 71
     3
 72
     2
 73
     0
 90
     0
 40
-0.6
 41
-30.0
 62
     5
 63
     7
 74
     2
 91
     2
 64
     7
 65
   257
 75
     1
175
     1
 42
40.0
 92
     8
 66
     7
 43
1.0
 76
     1
 77
     6
 78
     2
 67
     7
 79
     3
170
     0
171
     0
290
0
174
     0
 93
     1
 44
0.0
173
     0
291
0
 45
0.0
1001
ACAD
1000
AcDbSavedByObjectVersion
1070
     0
  0
VISUALSTYLE
  5
34
102
{ACAD_REACTORS
330
29
102
}
330
29
100
AcDbVisualStyle
  2
Dim
 70
    11
 71
     2
 72
     2
 73
     0
 90
     0
 40
-0.6
 41
-30.0
 62
     5
 63
     7
 74
     1
 91
     4
 64
     7
 65
   257
 75
     1
175
     1
 42
1.0
 92
     8
 66
     7
 43
1.0
 76
     1
 77
     6
 78
     2
 67
     7
 79
     5
170
     0
171
     0
290
0
174
     0
 93
     1
 44
-50.0
173
     0
291
1
 45
0.0
1001
ACAD
1000
AcDbSavedByObjectVersion
1070
     0
  0
VISUALSTYLE
  5
38
102
{ACAD_REACTORS
330
29
102
}
330
29
100
AcDbVisualStyle
  2
Facepattern
 70
    15
 71
     2
 72
     2
 73
     0
 90
     0
 40
-0.6
 41
-30.0
 62
     5
 63
     7
 74
     1
 91
     4
 64
     7
 65
   257
 75
     1
175
     1
 42
1.0
 92
     8
 66
     7
 43
1.0
 76
     1
 77
     6
 78
     2
 67
     7
 79
     5
170
     0
171
     0
290
0
174
     0
 93
     1
 44
0.0
173
     0
291
1
 45
0.0
1001
ACAD
1000
AcDbSavedByObjectVersion
1070
     0
  0
VISUALSTYLE
  5
2A
102
{ACAD_REACTORS
330
29
102
}
330
29
100
AcDbVisualStyle
  2
Flat
 70
     0
 71
     2
 72
     1
 73
     1
 90
     2
 40
-0.6
 41
30.0
 62
     5
 63
     7
 74
     0
 91
     4
 64
     7
 65
   257
 75
     1
175
     1
 42
1.0
 92
     8
 66
     7
 43
1.0
 76
     1
 77
     6
 78
     2
 67
     7
 79
     5
170
     0
171
     0
290
0
174
     0
 93
    13
 44
0.0
173
     0
291
1
 45
0.0
1001
ACAD
1000
AcDbSavedByObjectVersion
1070
     0
  0
VISUALSTYLE
  5
2B
102
{ACAD_REACTORS
330
29
102
}
330
29
100
AcDbVisualStyle
  2
FlatWithEdges
 70
     1
 71
     2
 72
     1
 73
     1
 90
     2
 40
-0.6
 41
30.0
 62
     5
 63
     7
 74
     1
 91
     4
 64
     7
 65
   257
 75
     1
175
     1
 42
1.0
 92
     0
 66
   257
 43
1.0
 76
     1
 77
     6
 78
     2
 67
     7
 79
     5
170
     0
171
     0
290
0
174
     0
 93
    13
 44
0.0
173
     0
291
1
 45
0.0
1001
ACAD
1000
AcDbSavedByObjectVersion
1070
     0
  0
VISUALSTYLE
  5
2C
102
{ACAD_REACTORS
330
29
102
}
330
29
100
AcDbVisualStyle
  2
Gouraud
 70
     2
 71
     2
 72
     2
 73
     1
 90
     2
 40
-0.6
 41
30.0
 62
     5
 63
     7
 74
     0
 91
     4
 64
     7
 65
   257
 75
     1
175
     1
 42
1.0
 92
     0
 66
     7
 43
1.0
 76
     1
 77
     6
 78
     2
 67
     7
 79
     5
170
     0
171
     0
290
0
174
     0
 93
    13
 44
0.0
173
     0
291
1
 45
0.0
1001
ACAD
1000
AcDbSavedByObjectVersion
1070
     0
  0
VISUALSTYLE
  5
2D
102
{ACAD_REACTORS
330
29
102
}
330
29
100
AcDbVisualStyle
  2
GouraudWithEdges
 70
     3
 71
     2
 72
     2
 73
     1
 90
     2
 40
-0.6
 41
30.0
 62
     5
 63
     7
 74
     1
 91
     4
 64
     7
 65
   257
 75
     1
175
     1
 42
1.0
 92
     0
 66
   257
 43
1.0
 76
     1
 77
     6
 78
     2
 67
     7
 79
     5
170
     0
171
     0
290
0
174
     0
 93
    13
 44
0.0
173
     0
291
1
 45
0.0
1001
ACAD
1000
AcDbSavedByObjectVersion
1070
     0
  0
VISUALSTYLE
  5
37
102
{ACAD_REACTORS
330
29
102
}
330
29
100
AcDbVisualStyle
  2
Linepattern
 70
    14
 71
     2
 72
     2
 73
     0
 90
     0
 40
-0.6
 41
-30.0
 62
     5
 63
     7
 74
     1
 91
     4
 64
     7
 65
   257
 75
     7
175
     7
 42
1.0
 92
     8
 66
     7
 43
1.0
 76
     1
 77
     6
 78
     2
 67
     7
 79
     5
170
     0
171
     0
290
0
174
     0
 93
     1
 44
0.0
173
     0
291
1
 45
0.0
1001
ACAD
1000
AcDbSavedByObjectVersion
1070
     0
  0
VISUALSTYLE
  5
33
102
{ACAD_REACTORS
330
29
102
}
330
29
100
AcDbVisualStyle
  2
Realistic
 70
     8
 71
     2
 72
     2
 73
     0
 90
     0
 40
-0.6
 41
-30.0
 62
     5
 63
     7
 74
     1
 91
     0
 64
     7
 65
   257
 75
     1
175
     1
 42
1.0
 92
     8
 66
     8
 43
1.0
 76
     1
 77
     6
 78
     2
 67
     7
 79
     5
170
     0
171
     0
290
0
174
     0
 93
    13
 44
0.0
173
     0
291
0
 45
0.0
1001
ACAD
1000
AcDbSavedByObjectVersion
1070
     0
  0
VISUALSTYLE
  5
36
102
{ACAD_REACTORS
330
29
102
}
330
29
100
AcDbVisualStyle
  2
Thicken
 70
    13
 71
     2
 72
     2
 73
     0
 90
     0
 40
-0.6
 41
-30.0
 62
     5
 63
     7
 74
     1
 91
     4
 64
     7
 65
   257
 75
     1
175
     1
 42
1.0
 92
    12
 66
     7
 43
1.0
 76
     1
 77
     6
 78
     2
 67
     7
 79
     5
170
     0
171
     0
290
0
174
     0
 93
     1
 44
0.0
173
     0
291
1
 45
0.0
1001
ACAD
1000
AcDbSavedByObjectVersion
1070
     0
  0
DICTIONARYVAR
  5
A0
102
{ACAD_REACTORS
330
9C
102
}
330
9C
100
DictionaryVariables
280
     0
  1
1:1
  0
DICTIONARYVAR
  5
9E
102
{ACAD_REACTORS
330
9C
102
}
330
9C
100
DictionaryVariables
280
     0
  1
STANDARD
  0
DICTIONARYVAR
  5
9D
102
{ACAD_REACTORS
330
9C
102
}
330
9C
100
DictionaryVariables
280
     0
  1
STANDARD
  0
DICTIONARYVAR
  5
A5
102
{ACAD_REACTORS
330
9C
102
}
330
9C
100
DictionaryVariables
280
     0
  1
2
  0
DICTIONARYVAR
  5
A4
102
{ACAD_REACTORS
330
9C
102
}
330
9C
100
DictionaryVariables
280
     0
  1
1
  0
DICTIONARYVAR
  5
A3
102
{ACAD_REACTORS
330
9C
102
}
330
9C
100
DictionaryVariables
280
     0
  1
0
  0
DICTIONARYVAR
  5
A1
102
{ACAD_REACTORS
330
9C
102
}
330
9C
100
DictionaryVariables
280
     0
  1
2
  0
DICTIONARYVAR
  5
9F
102
{ACAD_REACTORS
330
9C
102
}
330
9C
100
DictionaryVariables
280
     0
  1
1
  0
DICTIONARYVAR
  5
A2
102
{ACAD_REACTORS
330
9C
102
}
330
9C
100
DictionaryVariables
280
     0
  1
127
  0
DICTIONARY
  5
B1
330
74
100
AcDbDictionary
280
     1
281
     1
  3
ACAD_XREC_ROUNDTRIP
360
B2
  0
DICTIONARY
  5
B5
330
7C
100
AcDbDictionary
280
     1
281
     1
  3
ACAD_XREC_ROUNDTRIP
360
B6
  0
DICTIONARY
  5
B3
330
78
100
AcDbDictionary
280
     1
281
     1
  3
ACAD_XREC_ROUNDTRIP
360
B4
  0
DICTIONARY
  5
1A
330
19
100
AcDbDictionary
280
     1
281
     1
  3
ACAD_XREC_ROUNDTRIP
360
AD
  3
BUMPTILE
360
1C
  3
DIFFUSETILE
360
1B
  3
OPACITYTILE
360
1F
  3
REFLECTIONTILE
360
1E
  3
REFRACTIONTILE
360
20
  3
SPECULARTILE
360
1D
  0
DICTIONARY
  5
12
330
11
100
AcDbDictionary
280
     1
281
     1
  3
ACAD_XREC_ROUNDTRIP
360
AC
  3
BUMPTILE
360
14
  3
DIFFUSETILE
360
13
  3
OPACITYTILE
360
17
  3
REFLECTIONTILE
360
16
  3
REFRACTIONTILE
360
18
  3
SPECULARTILE
360
15
  0
DICTIONARY
  5
22
330
21
100
AcDbDictionary
280
     1
281
     1
  3
ACAD_XREC_ROUNDTRIP
360
AE
  3
BUMPTILE
360
24
  3
DIFFUSETILE
360
23
  3
OPACITYTILE
360
27
  3
REFLECTIONTILE
360
26
  3
REFRACTIONTILE
360
28
  3
SPECULARTILE
360
25
  0
DICTIONARY
  5
A6
330
6D
100
AcDbDictionary
280
     1
281
     1
  3
ACAD_ROUNDTRIP_2008_TABLESTYLE_CELLSTYLEMAP
360
A7
  3
ACAD_XREC_ROUNDTRIP
360
B0
  0
XRECORD
  5
B2
102
{ACAD_REACTORS
330
B1
102
}
330
B1
100
AcDbXrecord
280
     1
102
SHADEPLOT
 70
     0
102
SHADEPLOTRESLEVEL
 70
     2
102
SHADEPLOTCUSTOMDPI
 70
   300
  0
XRECORD
  5
B6
102
{ACAD_REACTORS
330
B5
102
}
330
B5
100
AcDbXrecord
280
     1
102
SHADEPLOT
 70
     0
102
SHADEPLOTRESLEVEL
 70
     2
102
SHADEPLOTCUSTOMDPI
 70
   300
  0
XRECORD
  5
B4
102
{ACAD_REACTORS
330
B3
102
}
330
B3
100
AcDbXrecord
280
     1
102
SHADEPLOT
 70
     0
102
SHADEPLOTRESLEVEL
 70
     2
102
SHADEPLOTCUSTOMDPI
 70
   300
  0
XRECORD
  5
AD
102
{ACAD_REACTORS
330
1A
102
}
330
1A
100
AcDbXrecord
280
     1
102
MATERIAL
148
0.0
149
0.0
149
0.0
 93
     0
 94
   127
282
     0
 72
     0
 77
     0
171
     0
175
     0
179
0
273
     0
  0
XRECORD
  5
1C
102
{ACAD_REACTORS
330
1A
102
}
330
1A
100
AcDbXrecord
280
     1
270
     1
271
     1
  0
XRECORD
  5
1B
102
{ACAD_REACTORS
330
1A
102
}
330
1A
100
AcDbXrecord
280
     1
270
     1
271
     1
  0
XRECORD
  5
1F
102
{ACAD_REACTORS
330
1A
102
}
330
1A
100
AcDbXrecord
280
     1
270
     1
271
     1
  0
XRECORD
  5
1E
102
{ACAD_REACTORS
330
1A
102
}
330
1A
100
AcDbXrecord
280
     1
270
     1
271
     1
  0
XRECORD
  5
20
102
{ACAD_REACTORS
330
1A
102
}
330
1A
100
AcDbXrecord
280
     1
270
     1
271
     1
  0
XRECORD
  5
1D
102
{ACAD_REACTORS
330
1A
102
}
330
1A
100
AcDbXrecord
280
     1
270
     1
271
     1
  0
XRECORD
  5
AC
102
{ACAD_REACTORS
330
12
102
}
330
12
100
AcDbXrecord
280
     1
102
MATERIAL
148
0.0
149
0.0
149
0.0
 93
     0
 94
   127
282
     0
 72
     0
 77
     0
171
     0
175
     0
179
0
273
     0
  0
XRECORD
  5
14
102
{ACAD_REACTORS
330
12
102
}
330
12
100
AcDbXrecord
280
     1
270
     1
271
     1
  0
XRECORD
  5
13
102
{ACAD_REACTORS
330
12
102
}
330
12
100
AcDbXrecord
280
     1
270
     1
271
     1
  0
XRECORD
  5
17
102
{ACAD_REACTORS
330
12
102
}
330
12
100
AcDbXrecord
280
     1
270
     1
271
     1
  0
XRECORD
  5
16
102
{ACAD_REACTORS
330
12
102
}
330
12
100
AcDbXrecord
280
     1
270
     1
271
     1
  0
XRECORD
  5
18
102
{ACAD_REACTORS
330
12
102
}
330
12
100
AcDbXrecord
280
     1
270
     1
271
     1
  0
XRECORD
  5
15
102
{ACAD_REACTORS
330
12
102
}
330
12
100
AcDbXrecord
280
     1
270
     1
271
     1
  0
XRECORD
  5
AE
102
{ACAD_REACTORS
330
22
102
}
330
22
100
AcDbXrecord
280
     1
102
MATERIAL
148
0.0
149
0.0
149
0.0
 93
     0
 94
   127
282
     0
 72
     0
 77
     0
171
     0
175
     0
179
0
273
     0
  0
XRECORD
  5
24
102
{ACAD_REACTORS
330
22
102
}
330
22
100
AcDbXrecord
280
     1
270
     1
271
     1
  0
XRECORD
  5
23
102
{ACAD_REACTORS
330
22
102
}
330
22
100
AcDbXrecord
280
     1
270
     1
271
     1
  0
XRECORD
  5
27
102
{ACAD_REACTORS
330
22
102
}
330
22
100
AcDbXrecord
280
     1
270
     1
271
     1
  0
XRECORD
  5
26
102
{ACAD_REACTORS
330
22
102
}
330
22
100
AcDbXrecord
280
     1
270
     1
271
     1
  0
XRECORD
  5
28
102
{ACAD_REACTORS
330
22
102
}
330
22
100
AcDbXrecord
280
     1
270
     1
271
     1
  0
XRECORD
  5
25
102
{ACAD_REACTORS
330
22
102
}
330
22
100
AcDbXrecord
280
     1
270
     1
271
     1
  0
CELLSTYLEMAP
  5
A7
102
{ACAD_REACTORS
330
A6
102
}
330
A6
100
AcDbCellStyleMap
 90
     3
300
CELLSTYLE
  1
TABLEFORMAT_BEGIN
 90
     5
170
     1
 91
     0
 92
 32768
 62
   257
 93
     1
300
CONTENTFORMAT
  1
CONTENTFORMAT_BEGIN
 90
     0
 91
     0
 92
   512
 93
     0
300

 40
0.0
140
1.0
 94
     5
 62
     0
340
5D
144
6.0
309
CONTENTFORMAT_END
171
     1
301
MARGIN
  1
CELLMARGIN_BEGIN
 40
1.5
 40
1.5
 40
1.5
 40
1.5
 40
4.5
 40
4.5
309
CELLMARGIN_END
 94
     6
 95
     1
302
GRIDFORMAT
  1
GRIDFORMAT_BEGIN
 90
     0
 91
     1
 62
     0
 92
    -2
340
0
 93
     0
 40
1.125
309
GRIDFORMAT_END
 95
     2
302
GRIDFORMAT
  1
GRIDFORMAT_BEGIN
 90
     0
 91
     1
 62
     0
 92
    -2
340
0
 93
     0
 40
1.125
309
GRIDFORMAT_END
 95
     4
302
GRIDFORMAT
  1
GRIDFORMAT_BEGIN
 90
     0
 91
     1
 62
     0
 92
    -2
340
0
 93
     0
 40
1.125
309
GRIDFORMAT_END
 95
     8
302
GRIDFORMAT
  1
GRIDFORMAT_BEGIN
 90
     0
 91
     1
 62
     0
 92
    -2
340
0
 93
     0
 40
1.125
309
GRIDFORMAT_END
 95
    16
302
GRIDFORMAT
  1
GRIDFORMAT_BEGIN
 90
     0
 91
     1
 62
     0
 92
    -2
340
0
 93
     0
 40
1.125
309
GRIDFORMAT_END
 95
    32
302
GRIDFORMAT
  1
GRIDFORMAT_BEGIN
 90
     0
 91
     1
 62
     0
 92
    -2
340
0
 93
     0
 40
1.125
309
GRIDFORMAT_END
309
TABLEFORMAT_END
  1
CELLSTYLE_BEGIN
 90
     1
 91
     1
300
_TITLE
309
CELLSTYLE_END
300
CELLSTYLE
  1
TABLEFORMAT_BEGIN
 90
     5
170
     1
 91
     0
 92
     0
 62
   257
 93
     1
300
CONTENTFORMAT
  1
CONTENTFORMAT_BEGIN
 90
     0
 91
     0
 92
   512
 93
     0
300

 40
0.0
140
1.0
 94
     5
 62
     0
340
5D
144
4.5
309
CONTENTFORMAT_END
171
     1
301
MARGIN
  1
CELLMARGIN_BEGIN
 40
1.5
 40
1.5
 40
1.5
 40
1.5
 40
4.5
 40
4.5
309
CELLMARGIN_END
 94
     6
 95
     1
302
GRIDFORMAT
  1
GRIDFORMAT_BEGIN
 90
     0
 91
     1
 62
     0
 92
    -2
340
0
 93
     0
 40
1.125
309
GRIDFORMAT_END
 95
     2
302
GRIDFORMAT
  1
GRIDFORMAT_BEGIN
 90
     0
 91
     1
 62
     0
 92
    -2
340
0
 93
     0
 40
1.125
309
GRIDFORMAT_END
 95
     4
302
GRIDFORMAT
  1
GRIDFORMAT_BEGIN
 90
     0
 91
     1
 62
     0
 92
    -2
340
0
 93
     0
 40
1.125
309
GRIDFORMAT_END
 95
     8
302
GRIDFORMAT
  1
GRIDFORMAT_BEGIN
 90
     0
 91
     1
 62
     0
 92
    -2
340
0
 93
     0
 40
1.125
309
GRIDFORMAT_END
 95
    16
302
GRIDFORMAT
  1
GRIDFORMAT_BEGIN
 90
     0
 91
     1
 62
     0
 92
    -2
340
0
 93
     0
 40
1.125
309
GRIDFORMAT_END
 95
    32
302
GRIDFORMAT
  1
GRIDFORMAT_BEGIN
 90
     0
 91
     1
 62
     0
 92
    -2
340
0
 93
     0
 40
1.125
309
GRIDFORMAT_END
309
TABLEFORMAT_END
  1
CELLSTYLE_BEGIN
 90
     2
 91
     1
300
_HEADER
309
CELLSTYLE_END
300
CELLSTYLE
  1
TABLEFORMAT_BEGIN
 90
     5
170
     1
 91
     0
 92
     0
 62
   257
 93
     1
300
CONTENTFORMAT
  1
CONTENTFORMAT_BEGIN
 90
     0
 91
     0
 92
   512
 93
     0
300

 40
0.0
140
1.0
 94
     2
 62
     0
340
5D
144
4.5
309
CONTENTFORMAT_END
171
     1
301
MARGIN
  1
CELLMARGIN_BEGIN
 40
1.5
 40
1.5
 40
1.5
 40
1.5
 40
4.5
 40
4.5
309
CELLMARGIN_END
 94
     6
 95
     1
302
GRIDFORMAT
  1
GRIDFORMAT_BEGIN
 90
     0
 91
     1
 62
     0
 92
    -2
340
0
 93
     0
 40
1.125
309
GRIDFORMAT_END
 95
     2
302
GRIDFORMAT
  1
GRIDFORMAT_BEGIN
 90
     0
 91
     1
 62
     0
 92
    -2
340
0
 93
     0
 40
1.125
309
GRIDFORMAT_END
 95
     4
302
GRIDFORMAT
  1
GRIDFORMAT_BEGIN
 90
     0
 91
     1
 62
     0
 92
    -2
340
0
 93
     0
 40
1.125
309
GRIDFORMAT_END
 95
     8
302
GRIDFORMAT
  1
GRIDFORMAT_BEGIN
 90
     0
 91
     1
 62
     0
 92
    -2
340
0
 93
     0
 40
1.125
309
GRIDFORMAT_END
 95
    16
302
GRIDFORMAT
  1
GRIDFORMAT_BEGIN
 90
     0
 91
     1
 62
     0
 92
    -2
340
0
 93
     0
 40
1.125
309
GRIDFORMAT_END
 95
    32
302
GRIDFORMAT
  1
GRIDFORMAT_BEGIN
 90
     0
 91
     1
 62
     0
 92
    -2
340
0
 93
     0
 40
1.125
309
GRIDFORMAT_END
309
TABLEFORMAT_END
  1
CELLSTYLE_BEGIN
 90
     3
 91
     2
300
_DATA
309
CELLSTYLE_END
  0
XRECORD
  5
B0
102
{ACAD_REACTORS
330
A6
102
}
330
A6
100
AcDbXrecord
280
     1
102
ACAD_ROUNDTRIP_PRE2007_TABLESTYLE
 90
   512
 91
     0
  1

 92
   512
 93
     0
  2

 94
   512
 95
     0
  3

  0
ENDSEC
  0
EOF
