%TF.GenerationSoftware,KiCad,Pcbnew,9.0.4*%
%TF.CreationDate,2026-04-14T18:00:54+09:00*%
%TF.ProjectId,pisic,70697369-632e-46b6-9963-61645f706362,rev?*%
%TF.SameCoordinates,Original*%
%TF.FileFunction,Profile,NP*%
%FSLAX46Y46*%
G04 Gerber Fmt 4.6, Leading zero omitted, Abs format (unit mm)*
G04 Created by KiCad (PCBNEW 9.0.4) date 2026-04-14 18:00:54*
%MOMM*%
%LPD*%
G01*
G04 APERTURE LIST*
%ADD10C,0.100000*%
%TA.AperFunction,Profile*%
%ADD11C,0.100000*%
%TD*%
G04 APERTURE END LIST*
D10*
X143158700Y-120280363D02*
X143156198Y-120274538D01*
X143153624Y-120268747D01*
X143150978Y-120262993D01*
X143148261Y-120257276D01*
X143145474Y-120251596D01*
X143142616Y-120245953D01*
X143139689Y-120240349D01*
X143136691Y-120234785D01*
X143133625Y-120229260D01*
X143130489Y-120223775D01*
X143127285Y-120218332D01*
X143124013Y-120212931D01*
X143120673Y-120207572D01*
X143117266Y-120202256D01*
X143113792Y-120196984D01*
X143110252Y-120191757D01*
X143106646Y-120186575D01*
X143102975Y-120181439D01*
X143099239Y-120176350D01*
X143095438Y-120171308D01*
X143091574Y-120166315D01*
X143087647Y-120161370D01*
X143083657Y-120156476D01*
X143079606Y-120151631D01*
X143075492Y-120146838D01*
X143071318Y-120142097D01*
X143067084Y-120137408D01*
X143062790Y-120132773D01*
X143058437Y-120128191D01*
X143054027Y-120123665D01*
X143049558Y-120119194D01*
X143045033Y-120114779D01*
X143040452Y-120110421D01*
X143035815Y-120106121D01*
X143031124Y-120101879D01*
X143026379Y-120097697D01*
X143021581Y-120093574D01*
X143016730Y-120089512D01*
X143011829Y-120085511D01*
X143006876Y-120081572D01*
X143001874Y-120077696D01*
X142996823Y-120073882D01*
X142991723Y-120070133D01*
X142986576Y-120066448D01*
X142981383Y-120062829D01*
X142976145Y-120059275D01*
X142973509Y-120057523D01*
X142970862Y-120055787D01*
X142968203Y-120054068D01*
X142965535Y-120052367D01*
X142962855Y-120050682D01*
X142960165Y-120049014D01*
X142957464Y-120047363D01*
X142954753Y-120045729D01*
X142952032Y-120044112D01*
X142949300Y-120042513D01*
X142946559Y-120040931D01*
X142943808Y-120039366D01*
X142941047Y-120037819D01*
X142938276Y-120036289D01*
X142935496Y-120034777D01*
X142932706Y-120033282D01*
X142929907Y-120031805D01*
X142927098Y-120030346D01*
X142924281Y-120028905D01*
X142921455Y-120027482D01*
X142918620Y-120026076D01*
X142915776Y-120024689D01*
X142912923Y-120023320D01*
X142910062Y-120021968D01*
X142907193Y-120020636D01*
X142904315Y-120019321D01*
X142901430Y-120018024D01*
X142898536Y-120016746D01*
X142895635Y-120015486D01*
X142892725Y-120014245D01*
X142889808Y-120013022D01*
X142886883Y-120011818D01*
X142883952Y-120010632D01*
X142881012Y-120009465D01*
X142878066Y-120008317D01*
X142875112Y-120007187D01*
X142872152Y-120006076D01*
X142869184Y-120004984D01*
X142866210Y-120003911D01*
X142863229Y-120002856D01*
X142860243Y-120001821D01*
X142857249Y-120000804D01*
X142854250Y-119999807D01*
X142851243Y-119998829D01*
X142848232Y-119997870D01*
X142845213Y-119996929D01*
X142842191Y-119996009D01*
X142839161Y-119995107D01*
X142836127Y-119994224D01*
X142833086Y-119993361D01*
X142830041Y-119992517D01*
X142826989Y-119991692D01*
X142823934Y-119990887D01*
X142820873Y-119990101D01*
X142817808Y-119989335D01*
X142814736Y-119988588D01*
X142811662Y-119987860D01*
X142808582Y-119987152D01*
X142805498Y-119986464D01*
X142802409Y-119985795D01*
X142799317Y-119985146D01*
X142796219Y-119984516D01*
X142793120Y-119983906D01*
X142790014Y-119983315D01*
X142786906Y-119982744D01*
X142783793Y-119982193D01*
X142780678Y-119981661D01*
X142777558Y-119981149D01*
X142774436Y-119980658D01*
X142771309Y-119980185D01*
X142768181Y-119979733D01*
X142765048Y-119979300D01*
X142761914Y-119978887D01*
X142758775Y-119978494D01*
X142755635Y-119978121D01*
X142752490Y-119977767D01*
X142749345Y-119977434D01*
X142746196Y-119977120D01*
X142743046Y-119976826D01*
X142739891Y-119976552D01*
X142736737Y-119976298D01*
X142733578Y-119976064D01*
X142730420Y-119975850D01*
X142727257Y-119975656D01*
X142724095Y-119975482D01*
X142720929Y-119975327D01*
X142717763Y-119975193D01*
X142714594Y-119975079D01*
X142711425Y-119974985D01*
X142708253Y-119974910D01*
X142705081Y-119974856D01*
X142701907Y-119974822D01*
X142698057Y-119974807D01*
D11*
X52000000Y-77500000D02*
X52000000Y-59500000D01*
D10*
X123093838Y-122724807D02*
X123075894Y-122724767D01*
X123057953Y-122724647D01*
X123040018Y-122724447D01*
X123022087Y-122724168D01*
X123004161Y-122723808D01*
X122986241Y-122723368D01*
X122968325Y-122722849D01*
X122950416Y-122722250D01*
X122932513Y-122721571D01*
X122914616Y-122720812D01*
X122896725Y-122719974D01*
X122878841Y-122719056D01*
X122860964Y-122718058D01*
X122843095Y-122716980D01*
X122825232Y-122715823D01*
X122807378Y-122714586D01*
X122789532Y-122713270D01*
X122771694Y-122711874D01*
X122753864Y-122710398D01*
X122736043Y-122708843D01*
X122718232Y-122707208D01*
X122700429Y-122705494D01*
X122682637Y-122703701D01*
X122664854Y-122701828D01*
X122647081Y-122699876D01*
X122629319Y-122697845D01*
X122611567Y-122695734D01*
X122593826Y-122693545D01*
X122576097Y-122691276D01*
X122558379Y-122688927D01*
X122540673Y-122686500D01*
X122522979Y-122683994D01*
X122505297Y-122681409D01*
X122487628Y-122678744D01*
X122469972Y-122676001D01*
X122452329Y-122673179D01*
X122434700Y-122670278D01*
X122417084Y-122667298D01*
X122399483Y-122664240D01*
X122381896Y-122661103D01*
X122364323Y-122657887D01*
X122346766Y-122654593D01*
X122329224Y-122651221D01*
X122311697Y-122647769D01*
X122294186Y-122644240D01*
X122276692Y-122640632D01*
X122259213Y-122636946D01*
X122241752Y-122633182D01*
X122224308Y-122629339D01*
X122206880Y-122625419D01*
X122189471Y-122621420D01*
X122172080Y-122617344D01*
X122154707Y-122613190D01*
X122137352Y-122608958D01*
X122120017Y-122604648D01*
X122102700Y-122600261D01*
X122085403Y-122595796D01*
X122068126Y-122591254D01*
X122050870Y-122586634D01*
X122033633Y-122581937D01*
X122016418Y-122577162D01*
X121999223Y-122572311D01*
X121982050Y-122567383D01*
X121964899Y-122562377D01*
X121947770Y-122557295D01*
X121930663Y-122552136D01*
X121913578Y-122546900D01*
X121896517Y-122541588D01*
X121879480Y-122536199D01*
X121862465Y-122530734D01*
X121845475Y-122525192D01*
X121828509Y-122519574D01*
X121811568Y-122513880D01*
X121794652Y-122508111D01*
X121777761Y-122502265D01*
X121760896Y-122496344D01*
X121744057Y-122490347D01*
X121727244Y-122484274D01*
X121710457Y-122478126D01*
X121693698Y-122471903D01*
X121676966Y-122465604D01*
X121660261Y-122459231D01*
X121643585Y-122452782D01*
X121626937Y-122446259D01*
X121610317Y-122439661D01*
X121593726Y-122432988D01*
X121577165Y-122426241D01*
X121560633Y-122419420D01*
X121544131Y-122412524D01*
X121527660Y-122405555D01*
X121511219Y-122398512D01*
X121494809Y-122391394D01*
X121478430Y-122384204D01*
X121462083Y-122376939D01*
X121445768Y-122369602D01*
X121429485Y-122362191D01*
X121413235Y-122354707D01*
X121397017Y-122347151D01*
X121380834Y-122339521D01*
X121364683Y-122331819D01*
X121348567Y-122324045D01*
X121332485Y-122316198D01*
X121316438Y-122308280D01*
X121300425Y-122300289D01*
X121284448Y-122292227D01*
X121268507Y-122284093D01*
X121252601Y-122275887D01*
X121236732Y-122267610D01*
X121220900Y-122259263D01*
X121205104Y-122250844D01*
X121189346Y-122242354D01*
X121173625Y-122233794D01*
X121157943Y-122225164D01*
X121142299Y-122216463D01*
X121126693Y-122207692D01*
X121111127Y-122198852D01*
X121095599Y-122189941D01*
X121080112Y-122180962D01*
X121064664Y-122171913D01*
X121049257Y-122162794D01*
X121033890Y-122153607D01*
X121018564Y-122144352D01*
X121003280Y-122135027D01*
X120988037Y-122125635D01*
X120972836Y-122116174D01*
X120957677Y-122106645D01*
X120942561Y-122097049D01*
X120927488Y-122087385D01*
X120912458Y-122077654D01*
X120897471Y-122067855D01*
X120882529Y-122057990D01*
X120875074Y-122053032D01*
X120867630Y-122048058D01*
X120860198Y-122043067D01*
X120852776Y-122038060D01*
X120845366Y-122033036D01*
X120837967Y-122027995D01*
X120830580Y-122022938D01*
X120823203Y-122017864D01*
X120815838Y-122012774D01*
X120808485Y-122007668D01*
X120801143Y-122002545D01*
X120793812Y-121997405D01*
X120786493Y-121992250D01*
X120779185Y-121987078D01*
X120771890Y-121981890D01*
X120764605Y-121976685D01*
X120757333Y-121971464D01*
X120750072Y-121966227D01*
X120742823Y-121960974D01*
X120735585Y-121955705D01*
X120728360Y-121950419D01*
X120721146Y-121945118D01*
X120713944Y-121939800D01*
X120706754Y-121934467D01*
X120699576Y-121929117D01*
X120692410Y-121923751D01*
X120685257Y-121918370D01*
X120678115Y-121912972D01*
X120670986Y-121907559D01*
X120663868Y-121902129D01*
X120656763Y-121896684D01*
X120649670Y-121891223D01*
X120642589Y-121885746D01*
X120635521Y-121880254D01*
X120628465Y-121874746D01*
X120621421Y-121869222D01*
X120614391Y-121863682D01*
X120607372Y-121858127D01*
X120600366Y-121852556D01*
X120593372Y-121846969D01*
X120586391Y-121841368D01*
X120579422Y-121835750D01*
X120572467Y-121830117D01*
X120565524Y-121824468D01*
X120558593Y-121818805D01*
X120551676Y-121813125D01*
X120544771Y-121807431D01*
X120537879Y-121801720D01*
X120531000Y-121795995D01*
X120524134Y-121790254D01*
X120517281Y-121784499D01*
X120510440Y-121778728D01*
X120503613Y-121772941D01*
X120496799Y-121767140D01*
X120489998Y-121761323D01*
X120483210Y-121755492D01*
X120476435Y-121749645D01*
X120469673Y-121743783D01*
X120462925Y-121737906D01*
X120456190Y-121732014D01*
X120449468Y-121726108D01*
X120442759Y-121720186D01*
X120436065Y-121714250D01*
X120429383Y-121708298D01*
X120422714Y-121702332D01*
X120416059Y-121696351D01*
X120409418Y-121690356D01*
X120402790Y-121684345D01*
X120396176Y-121678320D01*
X120389575Y-121672280D01*
X120382989Y-121666226D01*
X120376415Y-121660156D01*
X120369856Y-121654073D01*
X120363309Y-121647975D01*
X120356778Y-121641862D01*
X120350259Y-121635735D01*
X120343755Y-121629594D01*
X120337264Y-121623437D01*
X120330788Y-121617267D01*
X120324325Y-121611082D01*
X120317876Y-121604883D01*
X120311441Y-121598670D01*
X120305021Y-121592442D01*
X120298614Y-121586200D01*
X120292221Y-121579944D01*
X120285843Y-121573674D01*
X120279479Y-121567390D01*
X120273128Y-121561091D01*
X120266793Y-121554779D01*
X120260471Y-121548452D01*
X120254164Y-121542112D01*
X120247870Y-121535757D01*
X120241592Y-121529389D01*
X120235327Y-121523006D01*
X120229078Y-121516611D01*
X120222842Y-121510200D01*
X120216622Y-121503777D01*
X120210415Y-121497339D01*
X120204223Y-121490888D01*
X120198046Y-121484422D01*
X120191883Y-121477944D01*
X120185735Y-121471451D01*
X120179602Y-121464945D01*
X120173483Y-121458425D01*
X120167379Y-121451893D01*
X120161290Y-121445346D01*
X120155215Y-121438786D01*
X120149155Y-121432212D01*
X120143111Y-121425625D01*
X120137081Y-121419024D01*
X120131066Y-121412411D01*
X120125065Y-121405784D01*
X120119081Y-121399144D01*
X120113110Y-121392490D01*
X120107155Y-121385823D01*
X120101215Y-121379143D01*
X120095290Y-121372450D01*
X120089380Y-121365743D01*
X120083485Y-121359024D01*
X120077605Y-121352291D01*
X120071741Y-121345546D01*
X120065891Y-121338787D01*
X120060058Y-121332016D01*
X120054238Y-121325231D01*
X120048435Y-121318434D01*
X120042647Y-121311624D01*
X120036874Y-121304801D01*
X120031116Y-121297965D01*
X120025375Y-121291117D01*
X120019648Y-121284255D01*
X120013937Y-121277381D01*
X120008241Y-121270494D01*
X120002561Y-121263595D01*
X119996896Y-121256683D01*
X119991247Y-121249759D01*
X119985613Y-121242821D01*
X119979996Y-121235872D01*
X119974393Y-121228910D01*
X119968807Y-121221936D01*
X119963236Y-121214948D01*
X119957681Y-121207950D01*
X119952141Y-121200937D01*
X119946618Y-121193914D01*
X119941109Y-121186877D01*
X119935618Y-121179829D01*
X119930141Y-121172768D01*
X119924681Y-121165696D01*
X119919236Y-121158610D01*
X119913808Y-121151513D01*
X119908395Y-121144404D01*
X119902999Y-121137283D01*
X119897618Y-121130149D01*
X119892254Y-121123004D01*
X119886905Y-121115846D01*
X119881573Y-121108678D01*
X119876256Y-121101496D01*
X119870956Y-121094304D01*
X119865671Y-121087098D01*
X119860404Y-121079882D01*
X119855152Y-121072653D01*
X119849916Y-121065414D01*
X119844696Y-121058161D01*
X119839494Y-121050899D01*
X119834306Y-121043623D01*
X119829136Y-121036337D01*
X119823982Y-121029038D01*
X119818844Y-121021729D01*
X119813722Y-121014407D01*
X119808617Y-121007074D01*
X119803528Y-120999729D01*
X119798456Y-120992375D01*
X119793400Y-120985007D01*
X119788361Y-120977629D01*
X119783338Y-120970239D01*
X119778332Y-120962838D01*
X119773341Y-120955425D01*
X119768369Y-120948002D01*
X119763412Y-120940567D01*
X119758472Y-120933122D01*
X119753548Y-120925664D01*
X119748642Y-120918197D01*
X119743751Y-120910717D01*
X119738878Y-120903227D01*
X119734021Y-120895725D01*
X119729181Y-120888214D01*
X119724358Y-120880690D01*
X119719552Y-120873157D01*
X119714761Y-120865611D01*
X119709989Y-120858056D01*
X119705232Y-120850489D01*
X119700494Y-120842912D01*
X119695771Y-120835323D01*
X119691066Y-120827725D01*
X119686377Y-120820114D01*
X119681706Y-120812495D01*
X119677051Y-120804863D01*
X119672413Y-120797223D01*
X119667792Y-120789570D01*
X119663189Y-120781908D01*
X119658602Y-120774234D01*
X119654033Y-120766551D01*
X119649480Y-120758856D01*
X119644945Y-120751153D01*
X119640426Y-120743437D01*
X119635925Y-120735713D01*
X119631440Y-120727976D01*
X119626974Y-120720231D01*
X119622524Y-120712474D01*
X119618092Y-120704709D01*
X119613676Y-120696931D01*
X119609278Y-120689145D01*
X119604897Y-120681347D01*
X119600533Y-120673541D01*
X119596187Y-120665723D01*
X119591858Y-120657897D01*
X119587546Y-120650059D01*
X119583252Y-120642212D01*
X119578974Y-120634354D01*
X119574715Y-120626488D01*
X119570472Y-120618610D01*
X119566248Y-120610724D01*
X119562040Y-120602826D01*
X119557850Y-120594921D01*
X119553677Y-120587003D01*
X119549523Y-120579078D01*
X119545385Y-120571141D01*
X119541265Y-120563196D01*
X119537162Y-120555240D01*
X119533077Y-120547276D01*
X119529009Y-120539300D01*
X119524960Y-120531317D01*
X119520927Y-120523322D01*
X119516913Y-120515320D01*
X119512915Y-120507306D01*
X119508936Y-120499285D01*
X119504974Y-120491252D01*
X119501030Y-120483212D01*
X119497103Y-120475160D01*
X119493195Y-120467101D01*
X119489303Y-120459031D01*
X119485430Y-120450953D01*
X119481574Y-120442864D01*
X119477736Y-120434768D01*
X119473916Y-120426661D01*
X119470114Y-120418546D01*
X119466329Y-120410420D01*
X119462563Y-120402287D01*
X119458813Y-120394143D01*
X119455083Y-120385992D01*
X119451369Y-120377830D01*
X119447674Y-120369661D01*
X119443996Y-120361480D01*
X119440337Y-120353293D01*
X119436695Y-120345095D01*
X119433072Y-120336890D01*
X119429465Y-120328674D01*
X119425878Y-120320451D01*
X119422308Y-120312217D01*
X119418756Y-120303976D01*
X119415222Y-120295725D01*
X119408700Y-120280363D01*
D11*
X152000000Y-119974807D02*
X150989619Y-119974807D01*
X94593838Y-119974807D02*
X94593838Y-98226146D01*
X152000000Y-62974807D02*
X147566661Y-62974807D01*
X50000000Y-59000000D02*
X50000000Y-40000000D01*
X142698057Y-119974807D02*
X127239619Y-119974807D01*
X137605698Y-43974807D02*
X152000000Y-43974807D01*
D10*
X147566661Y-62974807D02*
X147560281Y-62974847D01*
X147553910Y-62974967D01*
X147547549Y-62975166D01*
X147541199Y-62975445D01*
X147534859Y-62975803D01*
X147528530Y-62976241D01*
X147522213Y-62976758D01*
X147515908Y-62977354D01*
X147509617Y-62978029D01*
X147503339Y-62978782D01*
X147497075Y-62979615D01*
X147490825Y-62980526D01*
X147484592Y-62981516D01*
X147478374Y-62982584D01*
X147472172Y-62983730D01*
X147465988Y-62984954D01*
X147459822Y-62986256D01*
X147453674Y-62987636D01*
X147447546Y-62989093D01*
X147441438Y-62990627D01*
X147435350Y-62992239D01*
X147429284Y-62993928D01*
X147423240Y-62995693D01*
X147417219Y-62997535D01*
X147411222Y-62999453D01*
X147405249Y-63001447D01*
X147399301Y-63003518D01*
X147393380Y-63005663D01*
X147387485Y-63007884D01*
X147381618Y-63010180D01*
X147375779Y-63012550D01*
X147369970Y-63014995D01*
X147364191Y-63017514D01*
X147358443Y-63020106D01*
X147352726Y-63022772D01*
X147347043Y-63025511D01*
X147341393Y-63028322D01*
X147335777Y-63031205D01*
X147330197Y-63034160D01*
X147324653Y-63037187D01*
X147319146Y-63040284D01*
X147313678Y-63043451D01*
X147308248Y-63046689D01*
X147302858Y-63049995D01*
X147297508Y-63053370D01*
X147292201Y-63056814D01*
X147286936Y-63060325D01*
X147281714Y-63063904D01*
X147276536Y-63067549D01*
X147271404Y-63071260D01*
X147266318Y-63075036D01*
X147261279Y-63078877D01*
X147256288Y-63082782D01*
X147251346Y-63086751D01*
X147246453Y-63090782D01*
X147241611Y-63094875D01*
X147236821Y-63099029D01*
X147232083Y-63103244D01*
X147227397Y-63107518D01*
X147222766Y-63111852D01*
X147218190Y-63116244D01*
X147215922Y-63118461D01*
X147213669Y-63120693D01*
X147211430Y-63122939D01*
X147209205Y-63125199D01*
X147206994Y-63127473D01*
X147204798Y-63129761D01*
X147202616Y-63132063D01*
X147200449Y-63134378D01*
X147198296Y-63136707D01*
X147196158Y-63139050D01*
X147194036Y-63141405D01*
X147191928Y-63143774D01*
X147189835Y-63146156D01*
X147187757Y-63148552D01*
X147185695Y-63150959D01*
X147183648Y-63153381D01*
X147181617Y-63155814D01*
X147179601Y-63158260D01*
X147177600Y-63160719D01*
X147175616Y-63163190D01*
X147173647Y-63165674D01*
X147171694Y-63168169D01*
X147169757Y-63170677D01*
X147167836Y-63173197D01*
X147165931Y-63175728D01*
X147164042Y-63178271D01*
X147162170Y-63180826D01*
X147160314Y-63183393D01*
X147158475Y-63185970D01*
X147156652Y-63188560D01*
X147154846Y-63191159D01*
X147153056Y-63193771D01*
X147151283Y-63196393D01*
X147149526Y-63199027D01*
X147147788Y-63201670D01*
X147146065Y-63204325D01*
X147144360Y-63206990D01*
X147142672Y-63209666D01*
X147141001Y-63212351D01*
X147139347Y-63215047D01*
X147137711Y-63217753D01*
X147136091Y-63220469D01*
X147134490Y-63223194D01*
X147132906Y-63225931D01*
X147131339Y-63228675D01*
X147129790Y-63231430D01*
X147128259Y-63234194D01*
X147126745Y-63236968D01*
X147125250Y-63239750D01*
X147123772Y-63242542D01*
X147122312Y-63245342D01*
X147120869Y-63248152D01*
X147119446Y-63250970D01*
X147118039Y-63253798D01*
X147116652Y-63256632D01*
X147115282Y-63259477D01*
X147113931Y-63262328D01*
X147112597Y-63265190D01*
X147111283Y-63268057D01*
X147109986Y-63270935D01*
X147108708Y-63273818D01*
X147107448Y-63276712D01*
X147106207Y-63279611D01*
X147104984Y-63282519D01*
X147103780Y-63285433D01*
X147102594Y-63288357D01*
X147101428Y-63291285D01*
X147100279Y-63294223D01*
X147099150Y-63297166D01*
X147098039Y-63300118D01*
X147096948Y-63303075D01*
X147095874Y-63306041D01*
X147094820Y-63309011D01*
X147093785Y-63311990D01*
X147092769Y-63314974D01*
X147091771Y-63317966D01*
X147090793Y-63320962D01*
X147089834Y-63323966D01*
X147088894Y-63326974D01*
X147087973Y-63329991D01*
X147087071Y-63333011D01*
X147086188Y-63336040D01*
X147085325Y-63339072D01*
X147084480Y-63342111D01*
X147083655Y-63345155D01*
X147082849Y-63348205D01*
X147082063Y-63351259D01*
X147081295Y-63354321D01*
X147080547Y-63357385D01*
X147079819Y-63360457D01*
X147079110Y-63363532D01*
X147078420Y-63366614D01*
X147077750Y-63369698D01*
X147077099Y-63372790D01*
X147076468Y-63375884D01*
X147075856Y-63378984D01*
X147075263Y-63382087D01*
X147074690Y-63385197D01*
X147074137Y-63388309D01*
X147073604Y-63391428D01*
X147073090Y-63394548D01*
X147072595Y-63397675D01*
X147072121Y-63400804D01*
X147071665Y-63403939D01*
X147071230Y-63407076D01*
X147070814Y-63410219D01*
X147070418Y-63413363D01*
X147070042Y-63416513D01*
X147069685Y-63419665D01*
X147069348Y-63422822D01*
X147069031Y-63425981D01*
X147068734Y-63429145D01*
X147068457Y-63432311D01*
X147068199Y-63435482D01*
X147067961Y-63438654D01*
X147067743Y-63441831D01*
X147067545Y-63445010D01*
X147067367Y-63448193D01*
X147067209Y-63451377D01*
X147067071Y-63454567D01*
X147066952Y-63457757D01*
X147066854Y-63460952D01*
X147066833Y-63461719D01*
D11*
X137579530Y-43974122D02*
X137605698Y-43974807D01*
X50000000Y-40000000D02*
X52000000Y-40000000D01*
D10*
X51500000Y-78000000D02*
X51506375Y-77999960D01*
X51512740Y-77999840D01*
X51519096Y-77999641D01*
X51525441Y-77999362D01*
X51531776Y-77999004D01*
X51538100Y-77998566D01*
X51544411Y-77998049D01*
X51550710Y-77997453D01*
X51556997Y-77996778D01*
X51563269Y-77996025D01*
X51569528Y-77995192D01*
X51575772Y-77994281D01*
X51582001Y-77993291D01*
X51588214Y-77992224D01*
X51594410Y-77991077D01*
X51600589Y-77989853D01*
X51606750Y-77988551D01*
X51612893Y-77987172D01*
X51619017Y-77985714D01*
X51625121Y-77984180D01*
X51631204Y-77982568D01*
X51637266Y-77980879D01*
X51643306Y-77979113D01*
X51649324Y-77977271D01*
X51655317Y-77975352D01*
X51661287Y-77973358D01*
X51667231Y-77971287D01*
X51673150Y-77969141D01*
X51679042Y-77966920D01*
X51684907Y-77964623D01*
X51690743Y-77962252D01*
X51696550Y-77959806D01*
X51702327Y-77957286D01*
X51708074Y-77954693D01*
X51713789Y-77952026D01*
X51719471Y-77949286D01*
X51725121Y-77946473D01*
X51730735Y-77943588D01*
X51736315Y-77940632D01*
X51741859Y-77937604D01*
X51747366Y-77934505D01*
X51752835Y-77931335D01*
X51758265Y-77928096D01*
X51763656Y-77924787D01*
X51769007Y-77921409D01*
X51774316Y-77917963D01*
X51779582Y-77914449D01*
X51784806Y-77910867D01*
X51789985Y-77907219D01*
X51795119Y-77903505D01*
X51800208Y-77899726D01*
X51805249Y-77895881D01*
X51810243Y-77891973D01*
X51815188Y-77888000D01*
X51820084Y-77883965D01*
X51824930Y-77879868D01*
X51829724Y-77875710D01*
X51834466Y-77871491D01*
X51839154Y-77867212D01*
X51843790Y-77862874D01*
X51848370Y-77858477D01*
X51852895Y-77854023D01*
X51855136Y-77851775D01*
X51857363Y-77849512D01*
X51859576Y-77847236D01*
X51861775Y-77844946D01*
X51863959Y-77842642D01*
X51866128Y-77840324D01*
X51868283Y-77837992D01*
X51870423Y-77835647D01*
X51872548Y-77833289D01*
X51874658Y-77830918D01*
X51876753Y-77828533D01*
X51878833Y-77826135D01*
X51880897Y-77823725D01*
X51882946Y-77821301D01*
X51884980Y-77818865D01*
X51886998Y-77816416D01*
X51889001Y-77813955D01*
X51890988Y-77811481D01*
X51892959Y-77808995D01*
X51894914Y-77806497D01*
X51896853Y-77803987D01*
X51898777Y-77801465D01*
X51900683Y-77798931D01*
X51902575Y-77796385D01*
X51904449Y-77793828D01*
X51906307Y-77791259D01*
X51908149Y-77788679D01*
X51909974Y-77786087D01*
X51911782Y-77783485D01*
X51913574Y-77780871D01*
X51915349Y-77778246D01*
X51917108Y-77775611D01*
X51918849Y-77772965D01*
X51920573Y-77770308D01*
X51922280Y-77767641D01*
X51923971Y-77764963D01*
X51925643Y-77762276D01*
X51927299Y-77759577D01*
X51928937Y-77756870D01*
X51930559Y-77754151D01*
X51932162Y-77751424D01*
X51933748Y-77748686D01*
X51935316Y-77745940D01*
X51936867Y-77743183D01*
X51938400Y-77740418D01*
X51939915Y-77737642D01*
X51941412Y-77734859D01*
X51942892Y-77732065D01*
X51944353Y-77729263D01*
X51945797Y-77726452D01*
X51947222Y-77723633D01*
X51948630Y-77720804D01*
X51950019Y-77717969D01*
X51951391Y-77715123D01*
X51952743Y-77712271D01*
X51954078Y-77709409D01*
X51955394Y-77706540D01*
X51956692Y-77703662D01*
X51957971Y-77700778D01*
X51959232Y-77697885D01*
X51960474Y-77694985D01*
X51961698Y-77692077D01*
X51962902Y-77689163D01*
X51964089Y-77686239D01*
X51965257Y-77683311D01*
X51966406Y-77680373D01*
X51967536Y-77677431D01*
X51968647Y-77674479D01*
X51969739Y-77671523D01*
X51970813Y-77668558D01*
X51971868Y-77665589D01*
X51972904Y-77662611D01*
X51973920Y-77659629D01*
X51974918Y-77656639D01*
X51975896Y-77653644D01*
X51976856Y-77650641D01*
X51977796Y-77647635D01*
X51978718Y-77644620D01*
X51979620Y-77641602D01*
X51980503Y-77638576D01*
X51981366Y-77635547D01*
X51982211Y-77632510D01*
X51983036Y-77629470D01*
X51983842Y-77626422D01*
X51984628Y-77623371D01*
X51985395Y-77620313D01*
X51986143Y-77617252D01*
X51986871Y-77614184D01*
X51987580Y-77611113D01*
X51988269Y-77608035D01*
X51988939Y-77604955D01*
X51989590Y-77601868D01*
X51990220Y-77598779D01*
X51990832Y-77595683D01*
X51991423Y-77592585D01*
X51991996Y-77589480D01*
X51992548Y-77586374D01*
X51993081Y-77583261D01*
X51993595Y-77580146D01*
X51994088Y-77577026D01*
X51994562Y-77573903D01*
X51995017Y-77570775D01*
X51995451Y-77567645D01*
X51995866Y-77564509D01*
X51996261Y-77561372D01*
X51996637Y-77558229D01*
X51996992Y-77555085D01*
X51997328Y-77551935D01*
X51997644Y-77548785D01*
X51997940Y-77545629D01*
X51998217Y-77542472D01*
X51998473Y-77539310D01*
X51998710Y-77536147D01*
X51998927Y-77532979D01*
X51999124Y-77529810D01*
X51999301Y-77526636D01*
X51999458Y-77523462D01*
X51999595Y-77520283D01*
X51999712Y-77517103D01*
X51999809Y-77513919D01*
X51999887Y-77510735D01*
X51999944Y-77507546D01*
X51999981Y-77504357D01*
X51999999Y-77501163D01*
X52000000Y-77500000D01*
X150989619Y-119974807D02*
X150983279Y-119974847D01*
X150976944Y-119974967D01*
X150970614Y-119975166D01*
X150964290Y-119975446D01*
X150957973Y-119975804D01*
X150951663Y-119976243D01*
X150945362Y-119976761D01*
X150939070Y-119977358D01*
X150932787Y-119978035D01*
X150926515Y-119978791D01*
X150920254Y-119979626D01*
X150914006Y-119980540D01*
X150907770Y-119981533D01*
X150901547Y-119982604D01*
X150895340Y-119983755D01*
X150889147Y-119984983D01*
X150882971Y-119986290D01*
X150876812Y-119987675D01*
X150870670Y-119989138D01*
X150864548Y-119990678D01*
X150858445Y-119992296D01*
X150852362Y-119993992D01*
X150846301Y-119995764D01*
X150840263Y-119997613D01*
X150834247Y-119999538D01*
X150828256Y-120001540D01*
X150822289Y-120003617D01*
X150816349Y-120005771D01*
X150810436Y-120007999D01*
X150804550Y-120010302D01*
X150798693Y-120012680D01*
X150792866Y-120015132D01*
X150787070Y-120017658D01*
X150781305Y-120020258D01*
X150775573Y-120022930D01*
X150769875Y-120025675D01*
X150764211Y-120028492D01*
X150758582Y-120031381D01*
X150752990Y-120034341D01*
X150747435Y-120037372D01*
X150741918Y-120040473D01*
X150736441Y-120043644D01*
X150731003Y-120046884D01*
X150725607Y-120050192D01*
X150720253Y-120053569D01*
X150714941Y-120057013D01*
X150712302Y-120058760D01*
X150709674Y-120060524D01*
X150707057Y-120062305D01*
X150704451Y-120064102D01*
X150701857Y-120065915D01*
X150699274Y-120067745D01*
X150696702Y-120069591D01*
X150694143Y-120071453D01*
X150691595Y-120073331D01*
X150689059Y-120075226D01*
X150686536Y-120077136D01*
X150684024Y-120079063D01*
X150681525Y-120081005D01*
X150679038Y-120082962D01*
X150676564Y-120084936D01*
X150674102Y-120086925D01*
X150671653Y-120088929D01*
X150669217Y-120090949D01*
X150666793Y-120092984D01*
X150664383Y-120095034D01*
X150661986Y-120097100D01*
X150659601Y-120099180D01*
X150657231Y-120101276D01*
X150654873Y-120103386D01*
X150652529Y-120105511D01*
X150650199Y-120107651D01*
X150647882Y-120109805D01*
X150645579Y-120111974D01*
X150643290Y-120114157D01*
X150641015Y-120116355D01*
X150638754Y-120118567D01*
X150636507Y-120120793D01*
X150634275Y-120123033D01*
X150632056Y-120125287D01*
X150629853Y-120127555D01*
X150627663Y-120129837D01*
X150625489Y-120132132D01*
X150623328Y-120134442D01*
X150621183Y-120136764D01*
X150619052Y-120139100D01*
X150616937Y-120141449D01*
X150614836Y-120143812D01*
X150612751Y-120146187D01*
X150610681Y-120148577D01*
X150608626Y-120150978D01*
X150606586Y-120153393D01*
X150604562Y-120155820D01*
X150602553Y-120158261D01*
X150600560Y-120160713D01*
X150598582Y-120163178D01*
X150596620Y-120165655D01*
X150594674Y-120168146D01*
X150592744Y-120170648D01*
X150590829Y-120173163D01*
X150588931Y-120175688D01*
X150587049Y-120178227D01*
X150585183Y-120180777D01*
X150583332Y-120183339D01*
X150581499Y-120185912D01*
X150579681Y-120188498D01*
X150577881Y-120191094D01*
X150576096Y-120193703D01*
X150574328Y-120196322D01*
X150572576Y-120198953D01*
X150570842Y-120201594D01*
X150569123Y-120204248D01*
X150567422Y-120206911D01*
X150565737Y-120209587D01*
X150564070Y-120212271D01*
X150562419Y-120214968D01*
X150560786Y-120217674D01*
X150559168Y-120220393D01*
X150557569Y-120223120D01*
X150555986Y-120225859D01*
X150554421Y-120228606D01*
X150552873Y-120231366D01*
X150551342Y-120234134D01*
X150549828Y-120236913D01*
X150548333Y-120239701D01*
X150546854Y-120242501D01*
X150545393Y-120245308D01*
X150543949Y-120248127D01*
X150542524Y-120250954D01*
X150541115Y-120253792D01*
X150539724Y-120256637D01*
X150538351Y-120259494D01*
X150536996Y-120262359D01*
X150535658Y-120265234D01*
X150534339Y-120268117D01*
X150533037Y-120271010D01*
X150531754Y-120273911D01*
X150530488Y-120276822D01*
X150528977Y-120280363D01*
D11*
X52000000Y-40000000D02*
X83510399Y-40000000D01*
X50000000Y-116000000D02*
X50000000Y-78000000D01*
X118948057Y-119974807D02*
X94593838Y-119974807D01*
X52000000Y-116000000D02*
X50000000Y-116000000D01*
X147066833Y-63461719D02*
X146595486Y-81461719D01*
D10*
X85405823Y-97426177D02*
X85401262Y-97430560D01*
X85396758Y-97435000D01*
X85392311Y-97439495D01*
X85387922Y-97444045D01*
X85383591Y-97448651D01*
X85379319Y-97453310D01*
X85375106Y-97458022D01*
X85370954Y-97462787D01*
X85366863Y-97467604D01*
X85362832Y-97472473D01*
X85358864Y-97477392D01*
X85354958Y-97482360D01*
X85351116Y-97487378D01*
X85347337Y-97492444D01*
X85343622Y-97497558D01*
X85339972Y-97502718D01*
X85336387Y-97507925D01*
X85332869Y-97513177D01*
X85329416Y-97518473D01*
X85326031Y-97523812D01*
X85322714Y-97529194D01*
X85319465Y-97534619D01*
X85316284Y-97540084D01*
X85313173Y-97545589D01*
X85310131Y-97551133D01*
X85307159Y-97556716D01*
X85304258Y-97562336D01*
X85301429Y-97567993D01*
X85298671Y-97573685D01*
X85295985Y-97579412D01*
X85293371Y-97585172D01*
X85290831Y-97590965D01*
X85289588Y-97593874D01*
X85288364Y-97596790D01*
X85287158Y-97599714D01*
X85285971Y-97602646D01*
X85284802Y-97605585D01*
X85283652Y-97608532D01*
X85282520Y-97611485D01*
X85281408Y-97614446D01*
X85280314Y-97617414D01*
X85279238Y-97620389D01*
X85278182Y-97623370D01*
X85277144Y-97626358D01*
X85276126Y-97629353D01*
X85275126Y-97632354D01*
X85274145Y-97635361D01*
X85273184Y-97638374D01*
X85272241Y-97641393D01*
X85271318Y-97644419D01*
X85270413Y-97647449D01*
X85269528Y-97650486D01*
X85268663Y-97653528D01*
X85267816Y-97656576D01*
X85266989Y-97659628D01*
X85266181Y-97662686D01*
X85265392Y-97665749D01*
X85264623Y-97668817D01*
X85263873Y-97671889D01*
X85263143Y-97674967D01*
X85262432Y-97678048D01*
X85261741Y-97681135D01*
X85261069Y-97684225D01*
X85260417Y-97687320D01*
X85259785Y-97690418D01*
X85259172Y-97693521D01*
X85258579Y-97696627D01*
X85258005Y-97699738D01*
X85257451Y-97702851D01*
X85256917Y-97705968D01*
X85256403Y-97709088D01*
X85255908Y-97712212D01*
X85255433Y-97715339D01*
X85254978Y-97718469D01*
X85254543Y-97721601D01*
X85254127Y-97724737D01*
X85253731Y-97727874D01*
X85253356Y-97731015D01*
X85253000Y-97734157D01*
X85252664Y-97737303D01*
X85252348Y-97740450D01*
X85252051Y-97743600D01*
X85251775Y-97746750D01*
X85251519Y-97749904D01*
X85251283Y-97753058D01*
X85251066Y-97756215D01*
X85250870Y-97759372D01*
X85250693Y-97762532D01*
X85250537Y-97765692D01*
X85250400Y-97768854D01*
X85250284Y-97772016D01*
X85250187Y-97775181D01*
X85250111Y-97778344D01*
X85250054Y-97781510D01*
X85250018Y-97784675D01*
X85250001Y-97787842D01*
X85250000Y-97788864D01*
X85776168Y-97289550D02*
X85769849Y-97289259D01*
X85763528Y-97289048D01*
X85757206Y-97288916D01*
X85750884Y-97288865D01*
X85744562Y-97288893D01*
X85738242Y-97289002D01*
X85731924Y-97289190D01*
X85725609Y-97289458D01*
X85719299Y-97289806D01*
X85712993Y-97290234D01*
X85706693Y-97290741D01*
X85700401Y-97291328D01*
X85694116Y-97291995D01*
X85687840Y-97292741D01*
X85681573Y-97293566D01*
X85675317Y-97294471D01*
X85669073Y-97295455D01*
X85662842Y-97296518D01*
X85656624Y-97297659D01*
X85650420Y-97298879D01*
X85644233Y-97300178D01*
X85638061Y-97301554D01*
X85631908Y-97303009D01*
X85625773Y-97304542D01*
X85619657Y-97306152D01*
X85613562Y-97307839D01*
X85607488Y-97309604D01*
X85601437Y-97311445D01*
X85595410Y-97313363D01*
X85589407Y-97315356D01*
X85583430Y-97317426D01*
X85577479Y-97319571D01*
X85574513Y-97320672D01*
X85571555Y-97321791D01*
X85568604Y-97322929D01*
X85565660Y-97324086D01*
X85562724Y-97325262D01*
X85559795Y-97326455D01*
X85556873Y-97327668D01*
X85553959Y-97328899D01*
X85551054Y-97330148D01*
X85548156Y-97331416D01*
X85545266Y-97332702D01*
X85542384Y-97334006D01*
X85539511Y-97335328D01*
X85536646Y-97336669D01*
X85533790Y-97338028D01*
X85530942Y-97339404D01*
X85528103Y-97340799D01*
X85525273Y-97342211D01*
X85522452Y-97343642D01*
X85519640Y-97345090D01*
X85516838Y-97346556D01*
X85514044Y-97348040D01*
X85511260Y-97349541D01*
X85508486Y-97351060D01*
X85505722Y-97352596D01*
X85502967Y-97354150D01*
X85500222Y-97355721D01*
X85497487Y-97357310D01*
X85494763Y-97358915D01*
X85492048Y-97360538D01*
X85489344Y-97362178D01*
X85486650Y-97363836D01*
X85483968Y-97365510D01*
X85481295Y-97367201D01*
X85478633Y-97368909D01*
X85475982Y-97370634D01*
X85473343Y-97372375D01*
X85470714Y-97374133D01*
X85468097Y-97375908D01*
X85465490Y-97377700D01*
X85462895Y-97379507D01*
X85460311Y-97381332D01*
X85457740Y-97383172D01*
X85455179Y-97385029D01*
X85452631Y-97386902D01*
X85450094Y-97388791D01*
X85447570Y-97390696D01*
X85445057Y-97392618D01*
X85442557Y-97394554D01*
X85440068Y-97396508D01*
X85437593Y-97398476D01*
X85435128Y-97400461D01*
X85432678Y-97402461D01*
X85430239Y-97404477D01*
X85427814Y-97406507D01*
X85425400Y-97408555D01*
X85423000Y-97410616D01*
X85420612Y-97412694D01*
X85418239Y-97414786D01*
X85415877Y-97416894D01*
X85413529Y-97419016D01*
X85411194Y-97421155D01*
X85408873Y-97423307D01*
X85406564Y-97425475D01*
X85405823Y-97426177D01*
D11*
X152000000Y-43974807D02*
X152000000Y-62974807D01*
X85250000Y-97788864D02*
X85250000Y-116000000D01*
D10*
X119408700Y-120280363D02*
X119406198Y-120274538D01*
X119403624Y-120268747D01*
X119400978Y-120262993D01*
X119398261Y-120257276D01*
X119395474Y-120251596D01*
X119392616Y-120245953D01*
X119389689Y-120240349D01*
X119386691Y-120234785D01*
X119383625Y-120229260D01*
X119380489Y-120223775D01*
X119377285Y-120218332D01*
X119374013Y-120212931D01*
X119370673Y-120207572D01*
X119367266Y-120202256D01*
X119363792Y-120196984D01*
X119360252Y-120191757D01*
X119356646Y-120186575D01*
X119352975Y-120181439D01*
X119349239Y-120176350D01*
X119345438Y-120171308D01*
X119341574Y-120166315D01*
X119337647Y-120161370D01*
X119333657Y-120156476D01*
X119329606Y-120151631D01*
X119325492Y-120146838D01*
X119321318Y-120142097D01*
X119317084Y-120137408D01*
X119312790Y-120132773D01*
X119308437Y-120128191D01*
X119304027Y-120123665D01*
X119299558Y-120119194D01*
X119295033Y-120114779D01*
X119290452Y-120110421D01*
X119285815Y-120106121D01*
X119281124Y-120101879D01*
X119276379Y-120097697D01*
X119271581Y-120093574D01*
X119266730Y-120089512D01*
X119261829Y-120085511D01*
X119256876Y-120081572D01*
X119251874Y-120077696D01*
X119246823Y-120073882D01*
X119241723Y-120070133D01*
X119236576Y-120066448D01*
X119231383Y-120062829D01*
X119226145Y-120059275D01*
X119223509Y-120057523D01*
X119220862Y-120055787D01*
X119218203Y-120054068D01*
X119215535Y-120052367D01*
X119212855Y-120050682D01*
X119210165Y-120049014D01*
X119207464Y-120047363D01*
X119204753Y-120045729D01*
X119202032Y-120044112D01*
X119199300Y-120042513D01*
X119196559Y-120040931D01*
X119193808Y-120039366D01*
X119191047Y-120037819D01*
X119188276Y-120036289D01*
X119185496Y-120034777D01*
X119182706Y-120033282D01*
X119179907Y-120031805D01*
X119177098Y-120030346D01*
X119174281Y-120028905D01*
X119171455Y-120027482D01*
X119168620Y-120026076D01*
X119165776Y-120024689D01*
X119162923Y-120023320D01*
X119160062Y-120021968D01*
X119157193Y-120020636D01*
X119154315Y-120019321D01*
X119151430Y-120018024D01*
X119148536Y-120016746D01*
X119145635Y-120015486D01*
X119142725Y-120014245D01*
X119139808Y-120013022D01*
X119136883Y-120011818D01*
X119133952Y-120010632D01*
X119131012Y-120009465D01*
X119128066Y-120008317D01*
X119125112Y-120007187D01*
X119122152Y-120006076D01*
X119119184Y-120004984D01*
X119116210Y-120003911D01*
X119113229Y-120002856D01*
X119110243Y-120001821D01*
X119107249Y-120000804D01*
X119104250Y-119999807D01*
X119101243Y-119998829D01*
X119098232Y-119997870D01*
X119095213Y-119996929D01*
X119092191Y-119996009D01*
X119089161Y-119995107D01*
X119086127Y-119994224D01*
X119083086Y-119993361D01*
X119080041Y-119992517D01*
X119076989Y-119991692D01*
X119073934Y-119990887D01*
X119070873Y-119990101D01*
X119067808Y-119989335D01*
X119064736Y-119988588D01*
X119061662Y-119987860D01*
X119058582Y-119987152D01*
X119055498Y-119986464D01*
X119052409Y-119985795D01*
X119049317Y-119985146D01*
X119046219Y-119984516D01*
X119043120Y-119983906D01*
X119040014Y-119983315D01*
X119036906Y-119982744D01*
X119033793Y-119982193D01*
X119030678Y-119981661D01*
X119027558Y-119981149D01*
X119024436Y-119980658D01*
X119021309Y-119980185D01*
X119018181Y-119979733D01*
X119015048Y-119979300D01*
X119011914Y-119978887D01*
X119008775Y-119978494D01*
X119005635Y-119978121D01*
X119002490Y-119977767D01*
X118999345Y-119977434D01*
X118996196Y-119977120D01*
X118993046Y-119976826D01*
X118989891Y-119976552D01*
X118986737Y-119976298D01*
X118983578Y-119976064D01*
X118980420Y-119975850D01*
X118977257Y-119975656D01*
X118974095Y-119975482D01*
X118970929Y-119975327D01*
X118967763Y-119975193D01*
X118964594Y-119975079D01*
X118961425Y-119974985D01*
X118958253Y-119974910D01*
X118955081Y-119974856D01*
X118951907Y-119974822D01*
X118948057Y-119974807D01*
X94593838Y-98226146D02*
X94593798Y-98219770D01*
X94593678Y-98213403D01*
X94593479Y-98207045D01*
X94593200Y-98200697D01*
X94592842Y-98194359D01*
X94592404Y-98188033D01*
X94591887Y-98181718D01*
X94591291Y-98175415D01*
X94590616Y-98169124D01*
X94589862Y-98162847D01*
X94589029Y-98156584D01*
X94588118Y-98150335D01*
X94587128Y-98144101D01*
X94586060Y-98137883D01*
X94584913Y-98131682D01*
X94583689Y-98125497D01*
X94582386Y-98119331D01*
X94581006Y-98113182D01*
X94579548Y-98107053D01*
X94578013Y-98100944D01*
X94576401Y-98094855D01*
X94574712Y-98088787D01*
X94572946Y-98082742D01*
X94571103Y-98076720D01*
X94569184Y-98070721D01*
X94567189Y-98064746D01*
X94565118Y-98058797D01*
X94562972Y-98052873D01*
X94560750Y-98046977D01*
X94558454Y-98041108D01*
X94556082Y-98035268D01*
X94553637Y-98029456D01*
X94551117Y-98023676D01*
X94548524Y-98017926D01*
X94545857Y-98012208D01*
X94543118Y-98006522D01*
X94540306Y-98000871D01*
X94537422Y-97995254D01*
X94534466Y-97989672D01*
X94531439Y-97984126D01*
X94528341Y-97978618D01*
X94525173Y-97973148D01*
X94521936Y-97967717D01*
X94518629Y-97962326D01*
X94515253Y-97956976D01*
X94511809Y-97951667D01*
X94508297Y-97946401D01*
X94504718Y-97941179D01*
X94501073Y-97936001D01*
X94497362Y-97930868D01*
X94493586Y-97925782D01*
X94489745Y-97920742D01*
X94485840Y-97915751D01*
X94481872Y-97910809D01*
X94477841Y-97905916D01*
X94473749Y-97901075D01*
X94469595Y-97896284D01*
X94465381Y-97891546D01*
X94461107Y-97886862D01*
X94456774Y-97882231D01*
X94454585Y-97879936D01*
X94452383Y-97877655D01*
X94450166Y-97875388D01*
X94447934Y-97873135D01*
X94445689Y-97870897D01*
X94443429Y-97868672D01*
X94441156Y-97866462D01*
X94438868Y-97864266D01*
X94436567Y-97862085D01*
X94434252Y-97859918D01*
X94431924Y-97857766D01*
X94429582Y-97855629D01*
X94427228Y-97853507D01*
X94424859Y-97851399D01*
X94422478Y-97849307D01*
X94420083Y-97847230D01*
X94417676Y-97845169D01*
X94415255Y-97843122D01*
X94412823Y-97841092D01*
X94410377Y-97839076D01*
X94407919Y-97837077D01*
X94405449Y-97835092D01*
X94402966Y-97833125D01*
X94400471Y-97831172D01*
X94397965Y-97829236D01*
X94395445Y-97827316D01*
X94392915Y-97825412D01*
X94390372Y-97823524D01*
X94387819Y-97821652D01*
X94385253Y-97819797D01*
X94382676Y-97817958D01*
X94380087Y-97816136D01*
X94377488Y-97814330D01*
X94374877Y-97812541D01*
X94372256Y-97810769D01*
X94369624Y-97809014D01*
X94366981Y-97807275D01*
X94364327Y-97805553D01*
X94361663Y-97803849D01*
X94358988Y-97802162D01*
X94356303Y-97800492D01*
X94353608Y-97798838D01*
X94350903Y-97797203D01*
X94348187Y-97795584D01*
X94345463Y-97793984D01*
X94342727Y-97792400D01*
X94339983Y-97790834D01*
X94337228Y-97789285D01*
X94334466Y-97787755D01*
X94331692Y-97786242D01*
X94328911Y-97784747D01*
X94326119Y-97783269D01*
X94323319Y-97781810D01*
X94320510Y-97780368D01*
X94317693Y-97778945D01*
X94314865Y-97777539D01*
X94312031Y-97776152D01*
X94309186Y-97774783D01*
X94306335Y-97773432D01*
X94303474Y-97772099D01*
X94300607Y-97770785D01*
X94297729Y-97769488D01*
X94294846Y-97768211D01*
X94291952Y-97766951D01*
X94289053Y-97765711D01*
X94286145Y-97764488D01*
X94283230Y-97763284D01*
X94280307Y-97762099D01*
X94277378Y-97760932D01*
X94274439Y-97759784D01*
X94271496Y-97758655D01*
X94268543Y-97757544D01*
X94265586Y-97756453D01*
X94262620Y-97755380D01*
X94259649Y-97754326D01*
X94256669Y-97753290D01*
X94253684Y-97752274D01*
X94250692Y-97751277D01*
X94247694Y-97750299D01*
X94244689Y-97749339D01*
X94241679Y-97748399D01*
X94238661Y-97747478D01*
X94235640Y-97746576D01*
X94232610Y-97745692D01*
X94229576Y-97744829D01*
X94226535Y-97743984D01*
X94223490Y-97743159D01*
X94220437Y-97742353D01*
X94217381Y-97741566D01*
X94214318Y-97740798D01*
X94211251Y-97740050D01*
X94208177Y-97739321D01*
X94205100Y-97738612D01*
X94202015Y-97737921D01*
X94198928Y-97737251D01*
X94195834Y-97736599D01*
X94192737Y-97735967D01*
X94189633Y-97735355D01*
X94186527Y-97734762D01*
X94183413Y-97734188D01*
X94180298Y-97733635D01*
X94177176Y-97733100D01*
X94174052Y-97732586D01*
X94170921Y-97732090D01*
X94167788Y-97731615D01*
X94164649Y-97731159D01*
X94161508Y-97730723D01*
X94158361Y-97730306D01*
X94155212Y-97729910D01*
X94152057Y-97729532D01*
X94148901Y-97729175D01*
X94145738Y-97728837D01*
X94142574Y-97728519D01*
X94139405Y-97728221D01*
X94136234Y-97727943D01*
X94133057Y-97727684D01*
X94129879Y-97727446D01*
X94126696Y-97727227D01*
X94123512Y-97727028D01*
X94120322Y-97726849D01*
X94120006Y-97726832D01*
D11*
X51500000Y-59000000D02*
X50000000Y-59000000D01*
X147095315Y-81974807D02*
X152000000Y-81974807D01*
X99971153Y-41007403D02*
X100466982Y-41046425D01*
X152000000Y-81974807D02*
X152000000Y-119974807D01*
D10*
X146843838Y-122724807D02*
X146825894Y-122724767D01*
X146807953Y-122724647D01*
X146790018Y-122724447D01*
X146772087Y-122724168D01*
X146754161Y-122723808D01*
X146736241Y-122723368D01*
X146718325Y-122722849D01*
X146700416Y-122722250D01*
X146682513Y-122721571D01*
X146664616Y-122720812D01*
X146646725Y-122719974D01*
X146628841Y-122719056D01*
X146610964Y-122718058D01*
X146593095Y-122716980D01*
X146575232Y-122715823D01*
X146557378Y-122714586D01*
X146539532Y-122713270D01*
X146521694Y-122711874D01*
X146503864Y-122710398D01*
X146486043Y-122708843D01*
X146468232Y-122707208D01*
X146450429Y-122705494D01*
X146432637Y-122703701D01*
X146414854Y-122701828D01*
X146397081Y-122699876D01*
X146379319Y-122697845D01*
X146361567Y-122695734D01*
X146343826Y-122693545D01*
X146326097Y-122691276D01*
X146308379Y-122688927D01*
X146290673Y-122686500D01*
X146272979Y-122683994D01*
X146255297Y-122681409D01*
X146237628Y-122678744D01*
X146219972Y-122676001D01*
X146202329Y-122673179D01*
X146184700Y-122670278D01*
X146167084Y-122667298D01*
X146149483Y-122664240D01*
X146131896Y-122661103D01*
X146114323Y-122657887D01*
X146096766Y-122654593D01*
X146079224Y-122651221D01*
X146061697Y-122647769D01*
X146044186Y-122644240D01*
X146026692Y-122640632D01*
X146009213Y-122636946D01*
X145991752Y-122633182D01*
X145974308Y-122629339D01*
X145956880Y-122625419D01*
X145939471Y-122621420D01*
X145922080Y-122617344D01*
X145904707Y-122613190D01*
X145887352Y-122608958D01*
X145870017Y-122604648D01*
X145852700Y-122600261D01*
X145835403Y-122595796D01*
X145818126Y-122591254D01*
X145800870Y-122586634D01*
X145783633Y-122581937D01*
X145766418Y-122577162D01*
X145749223Y-122572311D01*
X145732050Y-122567383D01*
X145714899Y-122562377D01*
X145697770Y-122557295D01*
X145680663Y-122552136D01*
X145663578Y-122546900D01*
X145646517Y-122541588D01*
X145629480Y-122536199D01*
X145612465Y-122530734D01*
X145595475Y-122525192D01*
X145578509Y-122519574D01*
X145561568Y-122513880D01*
X145544652Y-122508111D01*
X145527761Y-122502265D01*
X145510896Y-122496344D01*
X145494057Y-122490347D01*
X145477244Y-122484274D01*
X145460457Y-122478126D01*
X145443698Y-122471903D01*
X145426966Y-122465604D01*
X145410261Y-122459231D01*
X145393585Y-122452782D01*
X145376937Y-122446259D01*
X145360317Y-122439661D01*
X145343726Y-122432988D01*
X145327165Y-122426241D01*
X145310633Y-122419420D01*
X145294131Y-122412524D01*
X145277660Y-122405555D01*
X145261219Y-122398512D01*
X145244809Y-122391394D01*
X145228430Y-122384204D01*
X145212083Y-122376939D01*
X145195768Y-122369602D01*
X145179485Y-122362191D01*
X145163235Y-122354707D01*
X145147017Y-122347151D01*
X145130834Y-122339521D01*
X145114683Y-122331819D01*
X145098567Y-122324045D01*
X145082485Y-122316198D01*
X145066438Y-122308280D01*
X145050425Y-122300289D01*
X145034448Y-122292227D01*
X145018507Y-122284093D01*
X145002601Y-122275887D01*
X144986732Y-122267610D01*
X144970900Y-122259263D01*
X144955104Y-122250844D01*
X144939346Y-122242354D01*
X144923625Y-122233794D01*
X144907943Y-122225164D01*
X144892299Y-122216463D01*
X144876693Y-122207692D01*
X144861127Y-122198852D01*
X144845599Y-122189941D01*
X144830112Y-122180962D01*
X144814664Y-122171913D01*
X144799257Y-122162794D01*
X144783890Y-122153607D01*
X144768564Y-122144352D01*
X144753280Y-122135027D01*
X144738037Y-122125635D01*
X144722836Y-122116174D01*
X144707677Y-122106645D01*
X144692561Y-122097049D01*
X144677488Y-122087385D01*
X144662458Y-122077654D01*
X144647471Y-122067855D01*
X144632529Y-122057990D01*
X144625074Y-122053032D01*
X144617630Y-122048058D01*
X144610198Y-122043067D01*
X144602776Y-122038060D01*
X144595366Y-122033036D01*
X144587967Y-122027995D01*
X144580580Y-122022938D01*
X144573203Y-122017864D01*
X144565838Y-122012774D01*
X144558485Y-122007668D01*
X144551143Y-122002545D01*
X144543812Y-121997405D01*
X144536493Y-121992250D01*
X144529185Y-121987078D01*
X144521890Y-121981890D01*
X144514605Y-121976685D01*
X144507333Y-121971464D01*
X144500072Y-121966227D01*
X144492823Y-121960974D01*
X144485585Y-121955705D01*
X144478360Y-121950419D01*
X144471146Y-121945118D01*
X144463944Y-121939800D01*
X144456754Y-121934467D01*
X144449576Y-121929117D01*
X144442410Y-121923751D01*
X144435257Y-121918370D01*
X144428115Y-121912972D01*
X144420986Y-121907559D01*
X144413868Y-121902129D01*
X144406763Y-121896684D01*
X144399670Y-121891223D01*
X144392589Y-121885746D01*
X144385521Y-121880254D01*
X144378465Y-121874746D01*
X144371421Y-121869222D01*
X144364391Y-121863682D01*
X144357372Y-121858127D01*
X144350366Y-121852556D01*
X144343372Y-121846969D01*
X144336391Y-121841368D01*
X144329422Y-121835750D01*
X144322467Y-121830117D01*
X144315524Y-121824468D01*
X144308593Y-121818805D01*
X144301676Y-121813125D01*
X144294771Y-121807431D01*
X144287879Y-121801720D01*
X144281000Y-121795995D01*
X144274134Y-121790254D01*
X144267281Y-121784499D01*
X144260440Y-121778728D01*
X144253613Y-121772941D01*
X144246799Y-121767140D01*
X144239998Y-121761323D01*
X144233210Y-121755492D01*
X144226435Y-121749645D01*
X144219673Y-121743783D01*
X144212925Y-121737906D01*
X144206190Y-121732014D01*
X144199468Y-121726108D01*
X144192759Y-121720186D01*
X144186065Y-121714250D01*
X144179383Y-121708298D01*
X144172714Y-121702332D01*
X144166059Y-121696351D01*
X144159418Y-121690356D01*
X144152790Y-121684345D01*
X144146176Y-121678320D01*
X144139575Y-121672280D01*
X144132989Y-121666226D01*
X144126415Y-121660156D01*
X144119856Y-121654073D01*
X144113309Y-121647975D01*
X144106778Y-121641862D01*
X144100259Y-121635735D01*
X144093755Y-121629594D01*
X144087264Y-121623437D01*
X144080788Y-121617267D01*
X144074325Y-121611082D01*
X144067876Y-121604883D01*
X144061441Y-121598670D01*
X144055021Y-121592442D01*
X144048614Y-121586200D01*
X144042221Y-121579944D01*
X144035843Y-121573674D01*
X144029479Y-121567390D01*
X144023128Y-121561091D01*
X144016793Y-121554779D01*
X144010471Y-121548452D01*
X144004164Y-121542112D01*
X143997870Y-121535757D01*
X143991592Y-121529389D01*
X143985327Y-121523006D01*
X143979078Y-121516611D01*
X143972842Y-121510200D01*
X143966622Y-121503777D01*
X143960415Y-121497339D01*
X143954223Y-121490888D01*
X143948046Y-121484422D01*
X143941883Y-121477944D01*
X143935735Y-121471451D01*
X143929602Y-121464945D01*
X143923483Y-121458425D01*
X143917379Y-121451893D01*
X143911290Y-121445346D01*
X143905215Y-121438786D01*
X143899155Y-121432212D01*
X143893111Y-121425625D01*
X143887081Y-121419024D01*
X143881066Y-121412411D01*
X143875065Y-121405784D01*
X143869081Y-121399144D01*
X143863110Y-121392490D01*
X143857155Y-121385823D01*
X143851215Y-121379143D01*
X143845290Y-121372450D01*
X143839380Y-121365743D01*
X143833485Y-121359024D01*
X143827605Y-121352291D01*
X143821741Y-121345546D01*
X143815891Y-121338787D01*
X143810058Y-121332016D01*
X143804238Y-121325231D01*
X143798435Y-121318434D01*
X143792647Y-121311624D01*
X143786874Y-121304801D01*
X143781116Y-121297965D01*
X143775375Y-121291117D01*
X143769648Y-121284255D01*
X143763937Y-121277381D01*
X143758241Y-121270494D01*
X143752561Y-121263595D01*
X143746896Y-121256683D01*
X143741247Y-121249759D01*
X143735613Y-121242821D01*
X143729996Y-121235872D01*
X143724393Y-121228910D01*
X143718807Y-121221936D01*
X143713236Y-121214948D01*
X143707681Y-121207950D01*
X143702141Y-121200937D01*
X143696618Y-121193914D01*
X143691109Y-121186877D01*
X143685618Y-121179829D01*
X143680141Y-121172768D01*
X143674681Y-121165696D01*
X143669236Y-121158610D01*
X143663808Y-121151513D01*
X143658395Y-121144404D01*
X143652999Y-121137283D01*
X143647618Y-121130149D01*
X143642254Y-121123004D01*
X143636905Y-121115846D01*
X143631573Y-121108678D01*
X143626256Y-121101496D01*
X143620956Y-121094304D01*
X143615671Y-121087098D01*
X143610404Y-121079882D01*
X143605152Y-121072653D01*
X143599916Y-121065414D01*
X143594696Y-121058161D01*
X143589494Y-121050899D01*
X143584306Y-121043623D01*
X143579136Y-121036337D01*
X143573982Y-121029038D01*
X143568844Y-121021729D01*
X143563722Y-121014407D01*
X143558617Y-121007074D01*
X143553528Y-120999729D01*
X143548456Y-120992375D01*
X143543400Y-120985007D01*
X143538361Y-120977629D01*
X143533338Y-120970239D01*
X143528332Y-120962838D01*
X143523341Y-120955425D01*
X143518369Y-120948002D01*
X143513412Y-120940567D01*
X143508472Y-120933122D01*
X143503548Y-120925664D01*
X143498642Y-120918197D01*
X143493751Y-120910717D01*
X143488878Y-120903227D01*
X143484021Y-120895725D01*
X143479181Y-120888214D01*
X143474358Y-120880690D01*
X143469552Y-120873157D01*
X143464761Y-120865611D01*
X143459989Y-120858056D01*
X143455232Y-120850489D01*
X143450494Y-120842912D01*
X143445771Y-120835323D01*
X143441066Y-120827725D01*
X143436377Y-120820114D01*
X143431706Y-120812495D01*
X143427051Y-120804863D01*
X143422413Y-120797223D01*
X143417792Y-120789570D01*
X143413189Y-120781908D01*
X143408602Y-120774234D01*
X143404033Y-120766551D01*
X143399480Y-120758856D01*
X143394945Y-120751153D01*
X143390426Y-120743437D01*
X143385925Y-120735713D01*
X143381440Y-120727976D01*
X143376974Y-120720231D01*
X143372524Y-120712474D01*
X143368092Y-120704709D01*
X143363676Y-120696931D01*
X143359278Y-120689145D01*
X143354897Y-120681347D01*
X143350533Y-120673541D01*
X143346187Y-120665723D01*
X143341858Y-120657897D01*
X143337546Y-120650059D01*
X143333252Y-120642212D01*
X143328974Y-120634354D01*
X143324715Y-120626488D01*
X143320472Y-120618610D01*
X143316248Y-120610724D01*
X143312040Y-120602826D01*
X143307850Y-120594921D01*
X143303677Y-120587003D01*
X143299523Y-120579078D01*
X143295385Y-120571141D01*
X143291265Y-120563196D01*
X143287162Y-120555240D01*
X143283077Y-120547276D01*
X143279009Y-120539300D01*
X143274960Y-120531317D01*
X143270927Y-120523322D01*
X143266913Y-120515320D01*
X143262915Y-120507306D01*
X143258936Y-120499285D01*
X143254974Y-120491252D01*
X143251030Y-120483212D01*
X143247103Y-120475160D01*
X143243195Y-120467101D01*
X143239303Y-120459031D01*
X143235430Y-120450953D01*
X143231574Y-120442864D01*
X143227736Y-120434768D01*
X143223916Y-120426661D01*
X143220114Y-120418546D01*
X143216329Y-120410420D01*
X143212563Y-120402287D01*
X143208813Y-120394143D01*
X143205083Y-120385992D01*
X143201369Y-120377830D01*
X143197674Y-120369661D01*
X143193996Y-120361480D01*
X143190337Y-120353293D01*
X143186695Y-120345095D01*
X143183072Y-120336890D01*
X143179465Y-120328674D01*
X143175878Y-120320451D01*
X143172308Y-120312217D01*
X143168756Y-120303976D01*
X143165222Y-120295725D01*
X143158700Y-120280363D01*
X127239619Y-119974807D02*
X127233279Y-119974847D01*
X127226944Y-119974967D01*
X127220614Y-119975166D01*
X127214290Y-119975446D01*
X127207973Y-119975804D01*
X127201663Y-119976243D01*
X127195362Y-119976761D01*
X127189070Y-119977358D01*
X127182787Y-119978035D01*
X127176515Y-119978791D01*
X127170254Y-119979626D01*
X127164006Y-119980540D01*
X127157770Y-119981533D01*
X127151547Y-119982604D01*
X127145340Y-119983755D01*
X127139147Y-119984983D01*
X127132971Y-119986290D01*
X127126812Y-119987675D01*
X127120670Y-119989138D01*
X127114548Y-119990678D01*
X127108445Y-119992296D01*
X127102362Y-119993992D01*
X127096301Y-119995764D01*
X127090263Y-119997613D01*
X127084247Y-119999538D01*
X127078256Y-120001540D01*
X127072289Y-120003617D01*
X127066349Y-120005771D01*
X127060436Y-120007999D01*
X127054550Y-120010302D01*
X127048693Y-120012680D01*
X127042866Y-120015132D01*
X127037070Y-120017658D01*
X127031305Y-120020258D01*
X127025573Y-120022930D01*
X127019875Y-120025675D01*
X127014211Y-120028492D01*
X127008582Y-120031381D01*
X127002990Y-120034341D01*
X126997435Y-120037372D01*
X126991918Y-120040473D01*
X126986441Y-120043644D01*
X126981003Y-120046884D01*
X126975607Y-120050192D01*
X126970253Y-120053569D01*
X126964941Y-120057013D01*
X126962302Y-120058760D01*
X126959674Y-120060524D01*
X126957057Y-120062305D01*
X126954451Y-120064102D01*
X126951857Y-120065915D01*
X126949274Y-120067745D01*
X126946702Y-120069591D01*
X126944143Y-120071453D01*
X126941595Y-120073331D01*
X126939059Y-120075226D01*
X126936536Y-120077136D01*
X126934024Y-120079063D01*
X126931525Y-120081005D01*
X126929038Y-120082962D01*
X126926564Y-120084936D01*
X126924102Y-120086925D01*
X126921653Y-120088929D01*
X126919217Y-120090949D01*
X126916793Y-120092984D01*
X126914383Y-120095034D01*
X126911986Y-120097100D01*
X126909601Y-120099180D01*
X126907231Y-120101276D01*
X126904873Y-120103386D01*
X126902529Y-120105511D01*
X126900199Y-120107651D01*
X126897882Y-120109805D01*
X126895579Y-120111974D01*
X126893290Y-120114157D01*
X126891015Y-120116355D01*
X126888754Y-120118567D01*
X126886507Y-120120793D01*
X126884275Y-120123033D01*
X126882056Y-120125287D01*
X126879853Y-120127555D01*
X126877663Y-120129837D01*
X126875489Y-120132132D01*
X126873328Y-120134442D01*
X126871183Y-120136764D01*
X126869052Y-120139100D01*
X126866937Y-120141449D01*
X126864836Y-120143812D01*
X126862751Y-120146187D01*
X126860681Y-120148577D01*
X126858626Y-120150978D01*
X126856586Y-120153393D01*
X126854562Y-120155820D01*
X126852553Y-120158261D01*
X126850560Y-120160713D01*
X126848582Y-120163178D01*
X126846620Y-120165655D01*
X126844674Y-120168146D01*
X126842744Y-120170648D01*
X126840829Y-120173163D01*
X126838931Y-120175688D01*
X126837049Y-120178227D01*
X126835183Y-120180777D01*
X126833332Y-120183339D01*
X126831499Y-120185912D01*
X126829681Y-120188498D01*
X126827881Y-120191094D01*
X126826096Y-120193703D01*
X126824328Y-120196322D01*
X126822576Y-120198953D01*
X126820842Y-120201594D01*
X126819123Y-120204248D01*
X126817422Y-120206911D01*
X126815737Y-120209587D01*
X126814070Y-120212271D01*
X126812419Y-120214968D01*
X126810786Y-120217674D01*
X126809168Y-120220393D01*
X126807569Y-120223120D01*
X126805986Y-120225859D01*
X126804421Y-120228606D01*
X126802873Y-120231366D01*
X126801342Y-120234134D01*
X126799828Y-120236913D01*
X126798333Y-120239701D01*
X126796854Y-120242501D01*
X126795393Y-120245308D01*
X126793949Y-120248127D01*
X126792524Y-120250954D01*
X126791115Y-120253792D01*
X126789724Y-120256637D01*
X126788351Y-120259494D01*
X126786996Y-120262359D01*
X126785658Y-120265234D01*
X126784339Y-120268117D01*
X126783037Y-120271010D01*
X126781754Y-120273911D01*
X126780488Y-120276822D01*
X126778977Y-120280363D01*
X146737164Y-81823702D02*
X146741606Y-81828205D01*
X146746104Y-81832650D01*
X146750657Y-81837038D01*
X146755265Y-81841367D01*
X146759926Y-81845638D01*
X146764641Y-81849848D01*
X146769408Y-81853998D01*
X146774227Y-81858088D01*
X146779097Y-81862116D01*
X146784018Y-81866082D01*
X146788989Y-81869986D01*
X146794008Y-81873827D01*
X146799076Y-81877603D01*
X146804191Y-81881316D01*
X146809353Y-81884963D01*
X146814561Y-81888546D01*
X146819814Y-81892062D01*
X146825112Y-81895512D01*
X146830452Y-81898894D01*
X146835836Y-81902209D01*
X146841261Y-81905456D01*
X146846728Y-81908634D01*
X146852234Y-81911743D01*
X146857780Y-81914782D01*
X146863363Y-81917751D01*
X146868985Y-81920649D01*
X146874642Y-81923476D01*
X146880335Y-81926232D01*
X146886063Y-81928915D01*
X146891825Y-81931526D01*
X146897619Y-81934063D01*
X146903445Y-81936528D01*
X146906369Y-81937732D01*
X146909302Y-81938918D01*
X146912241Y-81940086D01*
X146915188Y-81941235D01*
X146918142Y-81942365D01*
X146921104Y-81943476D01*
X146924072Y-81944569D01*
X146927047Y-81945643D01*
X146930029Y-81946698D01*
X146933017Y-81947734D01*
X146936012Y-81948752D01*
X146939014Y-81949750D01*
X146942021Y-81950729D01*
X146945035Y-81951690D01*
X146948055Y-81952631D01*
X146951080Y-81953553D01*
X146954111Y-81954456D01*
X146957149Y-81955339D01*
X146960191Y-81956204D01*
X146963239Y-81957049D01*
X146966292Y-81957875D01*
X146969350Y-81958682D01*
X146972413Y-81959469D01*
X146975482Y-81960237D01*
X146978554Y-81960985D01*
X146981632Y-81961714D01*
X146984714Y-81962423D01*
X146987801Y-81963113D01*
X146990891Y-81963783D01*
X146993987Y-81964434D01*
X146997085Y-81965065D01*
X147000188Y-81965677D01*
X147003295Y-81966269D01*
X147006406Y-81966841D01*
X147009519Y-81967394D01*
X147012637Y-81967926D01*
X147015757Y-81968439D01*
X147018881Y-81968933D01*
X147022008Y-81969406D01*
X147025138Y-81969860D01*
X147028271Y-81970294D01*
X147031407Y-81970708D01*
X147034544Y-81971102D01*
X147037685Y-81971477D01*
X147040828Y-81971831D01*
X147043974Y-81972166D01*
X147047120Y-81972481D01*
X147050271Y-81972775D01*
X147053421Y-81973050D01*
X147056575Y-81973305D01*
X147059729Y-81973540D01*
X147062886Y-81973755D01*
X147066044Y-81973950D01*
X147069204Y-81974125D01*
X147072363Y-81974281D01*
X147075526Y-81974416D01*
X147078688Y-81974531D01*
X147081852Y-81974626D01*
X147085016Y-81974701D01*
X147088182Y-81974756D01*
X147091346Y-81974791D01*
X147094513Y-81974806D01*
X147095315Y-81974807D01*
D11*
X83853982Y-40162737D02*
X99971153Y-41007403D01*
D10*
X83510399Y-40000000D02*
X83514686Y-40004650D01*
X83519031Y-40009245D01*
X83523433Y-40013784D01*
X83527891Y-40018267D01*
X83532406Y-40022693D01*
X83536975Y-40027060D01*
X83541599Y-40031370D01*
X83546277Y-40035620D01*
X83551009Y-40039811D01*
X83555793Y-40043941D01*
X83560629Y-40048011D01*
X83565515Y-40052019D01*
X83570453Y-40055965D01*
X83575440Y-40059849D01*
X83580476Y-40063669D01*
X83585560Y-40067426D01*
X83590691Y-40071118D01*
X83595869Y-40074745D01*
X83601093Y-40078307D01*
X83606361Y-40081802D01*
X83611674Y-40085230D01*
X83617030Y-40088592D01*
X83622428Y-40091885D01*
X83627868Y-40095110D01*
X83633348Y-40098267D01*
X83638868Y-40101353D01*
X83644427Y-40104370D01*
X83650024Y-40107317D01*
X83655657Y-40110192D01*
X83661327Y-40112997D01*
X83667032Y-40115729D01*
X83669898Y-40117068D01*
X83672772Y-40118389D01*
X83675654Y-40119692D01*
X83678544Y-40120976D01*
X83681443Y-40122242D01*
X83684349Y-40123490D01*
X83687263Y-40124720D01*
X83690185Y-40125931D01*
X83693115Y-40127123D01*
X83696052Y-40128297D01*
X83698996Y-40129452D01*
X83701948Y-40130589D01*
X83704907Y-40131707D01*
X83707873Y-40132806D01*
X83710845Y-40133887D01*
X83713825Y-40134948D01*
X83716811Y-40135991D01*
X83719803Y-40137015D01*
X83722802Y-40138020D01*
X83725808Y-40139006D01*
X83728819Y-40139973D01*
X83731837Y-40140921D01*
X83734860Y-40141849D01*
X83737889Y-40142759D01*
X83740924Y-40143649D01*
X83743964Y-40144520D01*
X83747010Y-40145372D01*
X83750061Y-40146205D01*
X83753117Y-40147018D01*
X83756179Y-40147812D01*
X83759245Y-40148586D01*
X83762317Y-40149341D01*
X83765392Y-40150077D01*
X83768473Y-40150793D01*
X83771557Y-40151490D01*
X83774647Y-40152167D01*
X83777740Y-40152824D01*
X83780838Y-40153462D01*
X83783939Y-40154081D01*
X83787046Y-40154679D01*
X83790154Y-40155258D01*
X83793268Y-40155818D01*
X83796384Y-40156357D01*
X83799504Y-40156877D01*
X83802627Y-40157377D01*
X83805754Y-40157858D01*
X83808883Y-40158319D01*
X83812016Y-40158759D01*
X83815150Y-40159180D01*
X83818289Y-40159582D01*
X83821429Y-40159963D01*
X83824573Y-40160325D01*
X83827718Y-40160666D01*
X83830866Y-40160988D01*
X83834015Y-40161290D01*
X83837168Y-40161572D01*
X83840321Y-40161834D01*
X83843478Y-40162076D01*
X83846635Y-40162298D01*
X83849795Y-40162500D01*
X83853982Y-40162737D01*
X146595486Y-81461719D02*
X146595360Y-81468043D01*
X146595315Y-81474367D01*
X146595349Y-81480690D01*
X146595463Y-81487011D01*
X146595657Y-81493330D01*
X146595931Y-81499645D01*
X146596284Y-81505956D01*
X146596718Y-81512262D01*
X146597231Y-81518561D01*
X146597823Y-81524854D01*
X146598496Y-81531138D01*
X146599247Y-81537413D01*
X146600078Y-81543679D01*
X146600988Y-81549933D01*
X146601978Y-81556176D01*
X146603046Y-81562406D01*
X146604193Y-81568623D01*
X146605418Y-81574824D01*
X146606722Y-81581011D01*
X146608104Y-81587180D01*
X146609564Y-81593332D01*
X146611102Y-81599465D01*
X146612717Y-81605578D01*
X146614410Y-81611671D01*
X146616180Y-81617743D01*
X146618026Y-81623792D01*
X146619949Y-81629817D01*
X146621948Y-81635818D01*
X146624023Y-81641793D01*
X146626173Y-81647742D01*
X146628398Y-81653663D01*
X146630699Y-81659556D01*
X146631877Y-81662491D01*
X146633073Y-81665419D01*
X146634288Y-81668339D01*
X146635522Y-81671252D01*
X146636773Y-81674156D01*
X146638044Y-81677053D01*
X146639332Y-81679942D01*
X146640639Y-81682822D01*
X146641964Y-81685694D01*
X146643307Y-81688558D01*
X146644668Y-81691413D01*
X146646047Y-81694260D01*
X146647444Y-81697097D01*
X146648860Y-81699926D01*
X146650292Y-81702746D01*
X146651743Y-81705557D01*
X146653212Y-81708358D01*
X146654698Y-81711150D01*
X146656201Y-81713932D01*
X146657723Y-81716706D01*
X146659262Y-81719469D01*
X146660818Y-81722222D01*
X146662392Y-81724965D01*
X146663983Y-81727699D01*
X146665591Y-81730422D01*
X146667216Y-81733136D01*
X146668859Y-81735838D01*
X146670518Y-81738531D01*
X146672195Y-81741212D01*
X146673888Y-81743883D01*
X146675598Y-81746543D01*
X146677326Y-81749193D01*
X146679069Y-81751831D01*
X146680830Y-81754458D01*
X146682607Y-81757074D01*
X146684401Y-81759679D01*
X146686211Y-81762272D01*
X146688038Y-81764854D01*
X146689880Y-81767424D01*
X146691739Y-81769983D01*
X146693614Y-81772530D01*
X146695506Y-81775065D01*
X146697413Y-81777587D01*
X146699337Y-81780099D01*
X146701275Y-81782597D01*
X146703231Y-81785084D01*
X146705201Y-81787557D01*
X146707188Y-81790020D01*
X146709190Y-81792468D01*
X146711208Y-81794905D01*
X146713240Y-81797328D01*
X146715289Y-81799740D01*
X146717353Y-81802138D01*
X146719432Y-81804523D01*
X146721526Y-81806895D01*
X146723636Y-81809254D01*
X146725760Y-81811599D01*
X146727900Y-81813932D01*
X146730053Y-81816251D01*
X146732223Y-81818557D01*
X146734406Y-81820849D01*
X146736605Y-81823128D01*
X146737164Y-81823702D01*
D11*
X119128569Y-43007148D02*
X137579530Y-43974122D01*
X50000000Y-78000000D02*
X51500000Y-78000000D01*
D10*
X126778977Y-120280363D02*
X126771962Y-120296879D01*
X126764875Y-120313361D01*
X126757715Y-120329807D01*
X126750485Y-120346217D01*
X126743182Y-120362592D01*
X126735808Y-120378931D01*
X126728363Y-120395234D01*
X126720846Y-120411501D01*
X126713258Y-120427731D01*
X126705599Y-120443924D01*
X126697869Y-120460081D01*
X126690068Y-120476200D01*
X126682197Y-120492281D01*
X126674255Y-120508325D01*
X126666242Y-120524331D01*
X126658159Y-120540299D01*
X126650006Y-120556229D01*
X126641783Y-120572120D01*
X126633490Y-120587972D01*
X126625127Y-120603786D01*
X126616694Y-120619560D01*
X126608192Y-120635294D01*
X126599621Y-120650989D01*
X126590980Y-120666644D01*
X126582270Y-120682258D01*
X126573491Y-120697832D01*
X126564643Y-120713366D01*
X126555726Y-120728859D01*
X126546741Y-120744310D01*
X126537687Y-120759720D01*
X126528566Y-120775089D01*
X126519376Y-120790415D01*
X126510118Y-120805700D01*
X126500792Y-120820942D01*
X126491398Y-120836141D01*
X126481937Y-120851298D01*
X126472409Y-120866411D01*
X126462813Y-120881481D01*
X126453150Y-120896508D01*
X126443421Y-120911491D01*
X126433625Y-120926430D01*
X126423762Y-120941324D01*
X126413833Y-120956174D01*
X126403837Y-120970979D01*
X126393776Y-120985739D01*
X126383649Y-121000453D01*
X126373456Y-121015122D01*
X126363197Y-121029745D01*
X126352873Y-121044322D01*
X126342484Y-121058853D01*
X126332030Y-121073337D01*
X126321511Y-121087774D01*
X126310928Y-121102164D01*
X126300280Y-121116506D01*
X126289568Y-121130801D01*
X126278792Y-121145049D01*
X126267952Y-121159248D01*
X126257048Y-121173398D01*
X126246081Y-121187500D01*
X126235051Y-121201553D01*
X126223957Y-121215557D01*
X126212801Y-121229511D01*
X126201582Y-121243416D01*
X126190301Y-121257270D01*
X126178957Y-121271075D01*
X126167551Y-121284829D01*
X126156084Y-121298532D01*
X126144555Y-121312184D01*
X126132964Y-121325785D01*
X126121313Y-121339335D01*
X126109600Y-121352833D01*
X126097827Y-121366278D01*
X126085993Y-121379672D01*
X126074099Y-121393012D01*
X126062145Y-121406300D01*
X126050131Y-121419535D01*
X126038057Y-121432717D01*
X126025924Y-121445845D01*
X126013732Y-121458919D01*
X126001481Y-121471939D01*
X125989171Y-121484905D01*
X125976803Y-121497816D01*
X125964377Y-121510672D01*
X125951893Y-121523473D01*
X125939351Y-121536218D01*
X125926752Y-121548908D01*
X125914095Y-121561542D01*
X125901382Y-121574120D01*
X125888612Y-121586641D01*
X125875785Y-121599106D01*
X125862902Y-121611513D01*
X125849964Y-121623864D01*
X125836970Y-121636157D01*
X125823920Y-121648392D01*
X125810815Y-121660570D01*
X125797656Y-121672689D01*
X125784441Y-121684750D01*
X125771173Y-121696752D01*
X125757850Y-121708695D01*
X125744474Y-121720578D01*
X125731044Y-121732403D01*
X125717561Y-121744167D01*
X125704025Y-121755872D01*
X125690436Y-121767517D01*
X125676795Y-121779101D01*
X125663102Y-121790624D01*
X125649357Y-121802086D01*
X125635560Y-121813488D01*
X125621713Y-121824828D01*
X125607814Y-121836106D01*
X125593864Y-121847322D01*
X125579865Y-121858476D01*
X125565815Y-121869568D01*
X125551715Y-121880597D01*
X125537566Y-121891563D01*
X125523368Y-121902467D01*
X125509120Y-121913307D01*
X125494824Y-121924083D01*
X125480480Y-121934796D01*
X125466088Y-121945444D01*
X125451648Y-121956029D01*
X125437161Y-121966548D01*
X125422627Y-121977004D01*
X125408046Y-121987394D01*
X125393418Y-121997719D01*
X125378744Y-122007979D01*
X125364025Y-122018174D01*
X125349260Y-122028302D01*
X125334450Y-122038365D01*
X125319594Y-122048361D01*
X125304695Y-122058291D01*
X125297228Y-122063231D01*
X125289751Y-122068154D01*
X125282262Y-122073061D01*
X125274763Y-122077950D01*
X125267252Y-122082824D01*
X125259731Y-122087680D01*
X125252199Y-122092519D01*
X125244656Y-122097342D01*
X125237103Y-122102148D01*
X125229539Y-122106936D01*
X125221964Y-122111708D01*
X125214378Y-122116463D01*
X125206782Y-122121201D01*
X125199175Y-122125922D01*
X125191558Y-122130626D01*
X125183930Y-122135313D01*
X125176293Y-122139983D01*
X125168644Y-122144636D01*
X125160985Y-122149272D01*
X125153316Y-122153890D01*
X125145637Y-122158491D01*
X125137947Y-122163076D01*
X125130248Y-122167643D01*
X125122538Y-122172192D01*
X125114818Y-122176725D01*
X125107088Y-122181240D01*
X125099348Y-122185738D01*
X125091598Y-122190218D01*
X125083838Y-122194681D01*
X125076068Y-122199127D01*
X125068288Y-122203555D01*
X125060499Y-122207966D01*
X125052700Y-122212360D01*
X125044890Y-122216736D01*
X125037072Y-122221094D01*
X125029243Y-122225435D01*
X125021406Y-122229758D01*
X125013558Y-122234064D01*
X125005701Y-122238352D01*
X124997835Y-122242623D01*
X124989959Y-122246876D01*
X124982074Y-122251111D01*
X124974179Y-122255329D01*
X124966275Y-122259529D01*
X124958362Y-122263711D01*
X124950439Y-122267875D01*
X124942508Y-122272022D01*
X124934567Y-122276151D01*
X124926617Y-122280262D01*
X124918658Y-122284355D01*
X124910691Y-122288430D01*
X124902713Y-122292488D01*
X124894728Y-122296528D01*
X124886733Y-122300549D01*
X124878729Y-122304553D01*
X124870717Y-122308539D01*
X124862696Y-122312507D01*
X124854666Y-122316457D01*
X124846627Y-122320388D01*
X124838580Y-122324302D01*
X124830524Y-122328198D01*
X124822460Y-122332075D01*
X124814387Y-122335935D01*
X124806306Y-122339776D01*
X124798216Y-122343599D01*
X124790118Y-122347405D01*
X124782011Y-122351191D01*
X124773896Y-122354960D01*
X124765773Y-122358710D01*
X124757642Y-122362443D01*
X124749503Y-122366157D01*
X124741355Y-122369853D01*
X124733199Y-122373530D01*
X124725035Y-122377189D01*
X124716864Y-122380830D01*
X124708684Y-122384452D01*
X124700496Y-122388056D01*
X124692300Y-122391642D01*
X124684097Y-122395209D01*
X124675886Y-122398758D01*
X124667667Y-122402288D01*
X124659440Y-122405801D01*
X124651206Y-122409294D01*
X124642964Y-122412769D01*
X124634715Y-122416225D01*
X124626457Y-122419663D01*
X124618193Y-122423083D01*
X124609920Y-122426484D01*
X124601641Y-122429866D01*
X124593354Y-122433230D01*
X124585060Y-122436575D01*
X124576758Y-122439901D01*
X124568450Y-122443209D01*
X124560133Y-122446498D01*
X124551810Y-122449768D01*
X124543479Y-122453020D01*
X124535143Y-122456253D01*
X124526798Y-122459468D01*
X124518447Y-122462663D01*
X124510088Y-122465840D01*
X124501723Y-122468998D01*
X124493350Y-122472138D01*
X124484971Y-122475258D01*
X124476585Y-122478360D01*
X124468193Y-122481442D01*
X124459793Y-122484507D01*
X124451387Y-122487552D01*
X124442974Y-122490578D01*
X124434555Y-122493585D01*
X124426129Y-122496574D01*
X124417697Y-122499543D01*
X124409258Y-122502494D01*
X124400813Y-122505426D01*
X124392361Y-122508339D01*
X124383904Y-122511232D01*
X124375439Y-122514107D01*
X124366969Y-122516963D01*
X124358491Y-122519800D01*
X124350009Y-122522617D01*
X124341519Y-122525416D01*
X124333025Y-122528196D01*
X124324523Y-122530956D01*
X124316016Y-122533698D01*
X124307502Y-122536420D01*
X124298984Y-122539123D01*
X124290458Y-122541808D01*
X124281928Y-122544472D01*
X124273390Y-122547119D01*
X124264848Y-122549745D01*
X124256300Y-122552353D01*
X124247746Y-122554941D01*
X124239186Y-122557510D01*
X124230621Y-122560060D01*
X124222050Y-122562591D01*
X124213474Y-122565103D01*
X124204892Y-122567595D01*
X124196305Y-122570068D01*
X124187712Y-122572522D01*
X124179114Y-122574956D01*
X124170510Y-122577372D01*
X124161902Y-122579768D01*
X124153288Y-122582144D01*
X124144669Y-122584501D01*
X124136044Y-122586840D01*
X124127416Y-122589158D01*
X124118780Y-122591458D01*
X124110141Y-122593737D01*
X124101496Y-122595998D01*
X124092847Y-122598239D01*
X124084192Y-122600461D01*
X124075533Y-122602664D01*
X124066868Y-122604847D01*
X124058200Y-122607010D01*
X124049525Y-122609155D01*
X124040847Y-122611279D01*
X124032163Y-122613385D01*
X124023476Y-122615470D01*
X124014782Y-122617537D01*
X124006086Y-122619583D01*
X123997383Y-122621611D01*
X123988678Y-122623619D01*
X123979966Y-122625607D01*
X123971252Y-122627576D01*
X123962532Y-122629526D01*
X123953809Y-122631455D01*
X123945080Y-122633366D01*
X123936348Y-122635256D01*
X123927610Y-122637128D01*
X123918870Y-122638979D01*
X123910124Y-122640812D01*
X123901376Y-122642624D01*
X123892622Y-122644417D01*
X123883865Y-122646190D01*
X123875103Y-122647944D01*
X123866338Y-122649678D01*
X123857568Y-122651393D01*
X123848796Y-122653087D01*
X123840018Y-122654763D01*
X123831238Y-122656418D01*
X123822452Y-122658054D01*
X123813665Y-122659670D01*
X123804871Y-122661267D01*
X123796076Y-122662844D01*
X123787276Y-122664402D01*
X123778474Y-122665939D01*
X123769666Y-122667457D01*
X123760857Y-122668955D01*
X123752042Y-122670434D01*
X123743226Y-122671893D01*
X123734405Y-122673332D01*
X123725582Y-122674751D01*
X123716753Y-122676151D01*
X123707924Y-122677531D01*
X123699089Y-122678891D01*
X123690253Y-122680231D01*
X123681411Y-122681552D01*
X123672569Y-122682853D01*
X123663721Y-122684134D01*
X123654872Y-122685396D01*
X123646018Y-122686637D01*
X123637163Y-122687859D01*
X123628304Y-122689061D01*
X123619443Y-122690243D01*
X123610577Y-122691406D01*
X123601710Y-122692549D01*
X123592839Y-122693671D01*
X123583967Y-122694774D01*
X123575090Y-122695858D01*
X123566212Y-122696921D01*
X123557329Y-122697965D01*
X123548446Y-122698988D01*
X123539558Y-122699992D01*
X123530670Y-122700976D01*
X123521776Y-122701941D01*
X123512883Y-122702885D01*
X123503985Y-122703810D01*
X123495086Y-122704714D01*
X123486183Y-122705599D01*
X123477280Y-122706464D01*
X123468372Y-122707309D01*
X123459464Y-122708134D01*
X123450551Y-122708940D01*
X123441639Y-122709725D01*
X123432721Y-122710491D01*
X123423804Y-122711236D01*
X123414883Y-122711962D01*
X123405962Y-122712668D01*
X123397036Y-122713354D01*
X123388110Y-122714020D01*
X123379180Y-122714666D01*
X123370251Y-122715292D01*
X123361317Y-122715898D01*
X123352383Y-122716484D01*
X123343446Y-122717051D01*
X123334508Y-122717597D01*
X123325567Y-122718124D01*
X123316626Y-122718630D01*
X123307681Y-122719117D01*
X123298736Y-122719584D01*
X123289788Y-122720031D01*
X123280840Y-122720457D01*
X123271888Y-122720864D01*
X123262937Y-122721251D01*
X123253982Y-122721618D01*
X123245028Y-122721965D01*
X123236069Y-122722292D01*
X123227112Y-122722599D01*
X123218151Y-122722886D01*
X123209191Y-122723153D01*
X123200227Y-122723401D01*
X123191264Y-122723628D01*
X123182297Y-122723835D01*
X123173331Y-122724022D01*
X123164362Y-122724189D01*
X123155394Y-122724336D01*
X123146422Y-122724464D01*
X123137451Y-122724571D01*
X123128477Y-122724658D01*
X123119504Y-122724725D01*
X123110528Y-122724772D01*
X123093838Y-122724807D01*
D11*
X85250000Y-116000000D02*
X52000000Y-116000000D01*
D10*
X150528977Y-120280363D02*
X150521962Y-120296879D01*
X150514875Y-120313361D01*
X150507715Y-120329807D01*
X150500485Y-120346217D01*
X150493182Y-120362592D01*
X150485808Y-120378931D01*
X150478363Y-120395234D01*
X150470846Y-120411501D01*
X150463258Y-120427731D01*
X150455599Y-120443924D01*
X150447869Y-120460081D01*
X150440068Y-120476200D01*
X150432197Y-120492281D01*
X150424255Y-120508325D01*
X150416242Y-120524331D01*
X150408159Y-120540299D01*
X150400006Y-120556229D01*
X150391783Y-120572120D01*
X150383490Y-120587972D01*
X150375127Y-120603786D01*
X150366694Y-120619560D01*
X150358192Y-120635294D01*
X150349621Y-120650989D01*
X150340980Y-120666644D01*
X150332270Y-120682258D01*
X150323491Y-120697832D01*
X150314643Y-120713366D01*
X150305726Y-120728859D01*
X150296741Y-120744310D01*
X150287687Y-120759720D01*
X150278566Y-120775089D01*
X150269376Y-120790415D01*
X150260118Y-120805700D01*
X150250792Y-120820942D01*
X150241398Y-120836141D01*
X150231937Y-120851298D01*
X150222409Y-120866411D01*
X150212813Y-120881481D01*
X150203150Y-120896508D01*
X150193421Y-120911491D01*
X150183625Y-120926430D01*
X150173762Y-120941324D01*
X150163833Y-120956174D01*
X150153837Y-120970979D01*
X150143776Y-120985739D01*
X150133649Y-121000453D01*
X150123456Y-121015122D01*
X150113197Y-121029745D01*
X150102873Y-121044322D01*
X150092484Y-121058853D01*
X150082030Y-121073337D01*
X150071511Y-121087774D01*
X150060928Y-121102164D01*
X150050280Y-121116506D01*
X150039568Y-121130801D01*
X150028792Y-121145049D01*
X150017952Y-121159248D01*
X150007048Y-121173398D01*
X149996081Y-121187500D01*
X149985051Y-121201553D01*
X149973957Y-121215557D01*
X149962801Y-121229511D01*
X149951582Y-121243416D01*
X149940301Y-121257270D01*
X149928957Y-121271075D01*
X149917551Y-121284829D01*
X149906084Y-121298532D01*
X149894555Y-121312184D01*
X149882964Y-121325785D01*
X149871313Y-121339335D01*
X149859600Y-121352833D01*
X149847827Y-121366278D01*
X149835993Y-121379672D01*
X149824099Y-121393012D01*
X149812145Y-121406300D01*
X149800131Y-121419535D01*
X149788057Y-121432717D01*
X149775924Y-121445845D01*
X149763732Y-121458919D01*
X149751481Y-121471939D01*
X149739171Y-121484905D01*
X149726803Y-121497816D01*
X149714377Y-121510672D01*
X149701893Y-121523473D01*
X149689351Y-121536218D01*
X149676752Y-121548908D01*
X149664095Y-121561542D01*
X149651382Y-121574120D01*
X149638612Y-121586641D01*
X149625785Y-121599106D01*
X149612902Y-121611513D01*
X149599964Y-121623864D01*
X149586970Y-121636157D01*
X149573920Y-121648392D01*
X149560815Y-121660570D01*
X149547656Y-121672689D01*
X149534441Y-121684750D01*
X149521173Y-121696752D01*
X149507850Y-121708695D01*
X149494474Y-121720578D01*
X149481044Y-121732403D01*
X149467561Y-121744167D01*
X149454025Y-121755872D01*
X149440436Y-121767517D01*
X149426795Y-121779101D01*
X149413102Y-121790624D01*
X149399357Y-121802086D01*
X149385560Y-121813488D01*
X149371713Y-121824828D01*
X149357814Y-121836106D01*
X149343864Y-121847322D01*
X149329865Y-121858476D01*
X149315815Y-121869568D01*
X149301715Y-121880597D01*
X149287566Y-121891563D01*
X149273368Y-121902467D01*
X149259120Y-121913307D01*
X149244824Y-121924083D01*
X149230480Y-121934796D01*
X149216088Y-121945444D01*
X149201648Y-121956029D01*
X149187161Y-121966548D01*
X149172627Y-121977004D01*
X149158046Y-121987394D01*
X149143418Y-121997719D01*
X149128744Y-122007979D01*
X149114025Y-122018174D01*
X149099260Y-122028302D01*
X149084450Y-122038365D01*
X149069594Y-122048361D01*
X149054695Y-122058291D01*
X149047228Y-122063231D01*
X149039751Y-122068154D01*
X149032262Y-122073061D01*
X149024763Y-122077950D01*
X149017252Y-122082824D01*
X149009731Y-122087680D01*
X149002199Y-122092519D01*
X148994656Y-122097342D01*
X148987103Y-122102148D01*
X148979539Y-122106936D01*
X148971964Y-122111708D01*
X148964378Y-122116463D01*
X148956782Y-122121201D01*
X148949175Y-122125922D01*
X148941558Y-122130626D01*
X148933930Y-122135313D01*
X148926293Y-122139983D01*
X148918644Y-122144636D01*
X148910985Y-122149272D01*
X148903316Y-122153890D01*
X148895637Y-122158491D01*
X148887947Y-122163076D01*
X148880248Y-122167643D01*
X148872538Y-122172192D01*
X148864818Y-122176725D01*
X148857088Y-122181240D01*
X148849348Y-122185738D01*
X148841598Y-122190218D01*
X148833838Y-122194681D01*
X148826068Y-122199127D01*
X148818288Y-122203555D01*
X148810499Y-122207966D01*
X148802700Y-122212360D01*
X148794890Y-122216736D01*
X148787072Y-122221094D01*
X148779243Y-122225435D01*
X148771406Y-122229758D01*
X148763558Y-122234064D01*
X148755701Y-122238352D01*
X148747835Y-122242623D01*
X148739959Y-122246876D01*
X148732074Y-122251111D01*
X148724179Y-122255329D01*
X148716275Y-122259529D01*
X148708362Y-122263711D01*
X148700439Y-122267875D01*
X148692508Y-122272022D01*
X148684567Y-122276151D01*
X148676617Y-122280262D01*
X148668658Y-122284355D01*
X148660691Y-122288430D01*
X148652713Y-122292488D01*
X148644728Y-122296528D01*
X148636733Y-122300549D01*
X148628729Y-122304553D01*
X148620717Y-122308539D01*
X148612696Y-122312507D01*
X148604666Y-122316457D01*
X148596627Y-122320388D01*
X148588580Y-122324302D01*
X148580524Y-122328198D01*
X148572460Y-122332075D01*
X148564387Y-122335935D01*
X148556306Y-122339776D01*
X148548216Y-122343599D01*
X148540118Y-122347405D01*
X148532011Y-122351191D01*
X148523896Y-122354960D01*
X148515773Y-122358710D01*
X148507642Y-122362443D01*
X148499503Y-122366157D01*
X148491355Y-122369853D01*
X148483199Y-122373530D01*
X148475035Y-122377189D01*
X148466864Y-122380830D01*
X148458684Y-122384452D01*
X148450496Y-122388056D01*
X148442300Y-122391642D01*
X148434097Y-122395209D01*
X148425886Y-122398758D01*
X148417667Y-122402288D01*
X148409440Y-122405801D01*
X148401206Y-122409294D01*
X148392964Y-122412769D01*
X148384715Y-122416225D01*
X148376457Y-122419663D01*
X148368193Y-122423083D01*
X148359920Y-122426484D01*
X148351641Y-122429866D01*
X148343354Y-122433230D01*
X148335060Y-122436575D01*
X148326758Y-122439901D01*
X148318450Y-122443209D01*
X148310133Y-122446498D01*
X148301810Y-122449768D01*
X148293479Y-122453020D01*
X148285143Y-122456253D01*
X148276798Y-122459468D01*
X148268447Y-122462663D01*
X148260088Y-122465840D01*
X148251723Y-122468998D01*
X148243350Y-122472138D01*
X148234971Y-122475258D01*
X148226585Y-122478360D01*
X148218193Y-122481442D01*
X148209793Y-122484507D01*
X148201387Y-122487552D01*
X148192974Y-122490578D01*
X148184555Y-122493585D01*
X148176129Y-122496574D01*
X148167697Y-122499543D01*
X148159258Y-122502494D01*
X148150813Y-122505426D01*
X148142361Y-122508339D01*
X148133904Y-122511232D01*
X148125439Y-122514107D01*
X148116969Y-122516963D01*
X148108491Y-122519800D01*
X148100009Y-122522617D01*
X148091519Y-122525416D01*
X148083025Y-122528196D01*
X148074523Y-122530956D01*
X148066016Y-122533698D01*
X148057502Y-122536420D01*
X148048984Y-122539123D01*
X148040458Y-122541808D01*
X148031928Y-122544472D01*
X148023390Y-122547119D01*
X148014848Y-122549745D01*
X148006300Y-122552353D01*
X147997746Y-122554941D01*
X147989186Y-122557510D01*
X147980621Y-122560060D01*
X147972050Y-122562591D01*
X147963474Y-122565103D01*
X147954892Y-122567595D01*
X147946305Y-122570068D01*
X147937712Y-122572522D01*
X147929114Y-122574956D01*
X147920510Y-122577372D01*
X147911902Y-122579768D01*
X147903288Y-122582144D01*
X147894669Y-122584501D01*
X147886044Y-122586840D01*
X147877416Y-122589158D01*
X147868780Y-122591458D01*
X147860141Y-122593737D01*
X147851496Y-122595998D01*
X147842847Y-122598239D01*
X147834192Y-122600461D01*
X147825533Y-122602664D01*
X147816868Y-122604847D01*
X147808200Y-122607010D01*
X147799525Y-122609155D01*
X147790847Y-122611279D01*
X147782163Y-122613385D01*
X147773476Y-122615470D01*
X147764782Y-122617537D01*
X147756086Y-122619583D01*
X147747383Y-122621611D01*
X147738678Y-122623619D01*
X147729966Y-122625607D01*
X147721252Y-122627576D01*
X147712532Y-122629526D01*
X147703809Y-122631455D01*
X147695080Y-122633366D01*
X147686348Y-122635256D01*
X147677610Y-122637128D01*
X147668870Y-122638979D01*
X147660124Y-122640812D01*
X147651376Y-122642624D01*
X147642622Y-122644417D01*
X147633865Y-122646190D01*
X147625103Y-122647944D01*
X147616338Y-122649678D01*
X147607568Y-122651393D01*
X147598796Y-122653087D01*
X147590018Y-122654763D01*
X147581238Y-122656418D01*
X147572452Y-122658054D01*
X147563665Y-122659670D01*
X147554871Y-122661267D01*
X147546076Y-122662844D01*
X147537276Y-122664402D01*
X147528474Y-122665939D01*
X147519666Y-122667457D01*
X147510857Y-122668955D01*
X147502042Y-122670434D01*
X147493226Y-122671893D01*
X147484405Y-122673332D01*
X147475582Y-122674751D01*
X147466753Y-122676151D01*
X147457924Y-122677531D01*
X147449089Y-122678891D01*
X147440253Y-122680231D01*
X147431411Y-122681552D01*
X147422569Y-122682853D01*
X147413721Y-122684134D01*
X147404872Y-122685396D01*
X147396018Y-122686637D01*
X147387163Y-122687859D01*
X147378304Y-122689061D01*
X147369443Y-122690243D01*
X147360577Y-122691406D01*
X147351710Y-122692549D01*
X147342839Y-122693671D01*
X147333967Y-122694774D01*
X147325090Y-122695858D01*
X147316212Y-122696921D01*
X147307329Y-122697965D01*
X147298446Y-122698988D01*
X147289558Y-122699992D01*
X147280670Y-122700976D01*
X147271776Y-122701941D01*
X147262883Y-122702885D01*
X147253985Y-122703810D01*
X147245086Y-122704714D01*
X147236183Y-122705599D01*
X147227280Y-122706464D01*
X147218372Y-122707309D01*
X147209464Y-122708134D01*
X147200551Y-122708940D01*
X147191639Y-122709725D01*
X147182721Y-122710491D01*
X147173804Y-122711236D01*
X147164883Y-122711962D01*
X147155962Y-122712668D01*
X147147036Y-122713354D01*
X147138110Y-122714020D01*
X147129180Y-122714666D01*
X147120251Y-122715292D01*
X147111317Y-122715898D01*
X147102383Y-122716484D01*
X147093446Y-122717051D01*
X147084508Y-122717597D01*
X147075567Y-122718124D01*
X147066626Y-122718630D01*
X147057681Y-122719117D01*
X147048736Y-122719584D01*
X147039788Y-122720031D01*
X147030840Y-122720457D01*
X147021888Y-122720864D01*
X147012937Y-122721251D01*
X147003982Y-122721618D01*
X146995028Y-122721965D01*
X146986069Y-122722292D01*
X146977112Y-122722599D01*
X146968151Y-122722886D01*
X146959191Y-122723153D01*
X146950227Y-122723401D01*
X146941264Y-122723628D01*
X146932297Y-122723835D01*
X146923331Y-122724022D01*
X146914362Y-122724189D01*
X146905394Y-122724336D01*
X146896422Y-122724464D01*
X146887451Y-122724571D01*
X146878477Y-122724658D01*
X146869504Y-122724725D01*
X146860528Y-122724772D01*
X146843838Y-122724807D01*
D11*
X100466982Y-41046425D02*
X119102473Y-43005094D01*
X119102473Y-43005094D02*
X119128569Y-43007148D01*
X94120006Y-97726832D02*
X85776168Y-97289550D01*
D10*
X52000000Y-59500000D02*
X51999960Y-59493625D01*
X51999840Y-59487260D01*
X51999641Y-59480904D01*
X51999362Y-59474559D01*
X51999004Y-59468224D01*
X51998566Y-59461900D01*
X51998049Y-59455589D01*
X51997453Y-59449290D01*
X51996778Y-59443003D01*
X51996025Y-59436731D01*
X51995192Y-59430472D01*
X51994281Y-59424228D01*
X51993291Y-59417999D01*
X51992224Y-59411786D01*
X51991077Y-59405590D01*
X51989853Y-59399411D01*
X51988551Y-59393250D01*
X51987172Y-59387107D01*
X51985714Y-59380983D01*
X51984180Y-59374879D01*
X51982568Y-59368796D01*
X51980879Y-59362734D01*
X51979113Y-59356694D01*
X51977271Y-59350676D01*
X51975352Y-59344683D01*
X51973358Y-59338713D01*
X51971287Y-59332769D01*
X51969141Y-59326850D01*
X51966920Y-59320958D01*
X51964623Y-59315093D01*
X51962252Y-59309257D01*
X51959806Y-59303450D01*
X51957286Y-59297673D01*
X51954693Y-59291926D01*
X51952026Y-59286211D01*
X51949286Y-59280529D01*
X51946473Y-59274879D01*
X51943588Y-59269265D01*
X51940632Y-59263685D01*
X51937604Y-59258141D01*
X51934505Y-59252634D01*
X51931335Y-59247165D01*
X51928096Y-59241735D01*
X51924787Y-59236344D01*
X51921409Y-59230993D01*
X51917963Y-59225684D01*
X51914449Y-59220418D01*
X51910867Y-59215194D01*
X51907219Y-59210015D01*
X51903505Y-59204881D01*
X51899726Y-59199792D01*
X51895881Y-59194751D01*
X51891973Y-59189757D01*
X51888000Y-59184812D01*
X51883965Y-59179916D01*
X51879868Y-59175070D01*
X51875710Y-59170276D01*
X51871491Y-59165534D01*
X51867212Y-59160846D01*
X51862874Y-59156210D01*
X51858477Y-59151630D01*
X51854023Y-59147105D01*
X51851775Y-59144864D01*
X51849512Y-59142637D01*
X51847236Y-59140424D01*
X51844946Y-59138225D01*
X51842642Y-59136041D01*
X51840324Y-59133872D01*
X51837992Y-59131717D01*
X51835647Y-59129577D01*
X51833289Y-59127452D01*
X51830918Y-59125342D01*
X51828533Y-59123247D01*
X51826135Y-59121167D01*
X51823725Y-59119103D01*
X51821301Y-59117054D01*
X51818865Y-59115020D01*
X51816416Y-59113002D01*
X51813955Y-59110999D01*
X51811481Y-59109012D01*
X51808995Y-59107041D01*
X51806497Y-59105086D01*
X51803987Y-59103147D01*
X51801465Y-59101223D01*
X51798931Y-59099317D01*
X51796385Y-59097425D01*
X51793828Y-59095551D01*
X51791259Y-59093693D01*
X51788679Y-59091851D01*
X51786087Y-59090026D01*
X51783485Y-59088218D01*
X51780871Y-59086426D01*
X51778246Y-59084651D01*
X51775611Y-59082892D01*
X51772965Y-59081151D01*
X51770308Y-59079427D01*
X51767641Y-59077720D01*
X51764963Y-59076029D01*
X51762276Y-59074357D01*
X51759577Y-59072701D01*
X51756870Y-59071063D01*
X51754151Y-59069441D01*
X51751424Y-59067838D01*
X51748686Y-59066252D01*
X51745940Y-59064684D01*
X51743183Y-59063133D01*
X51740418Y-59061600D01*
X51737642Y-59060085D01*
X51734859Y-59058588D01*
X51732065Y-59057108D01*
X51729263Y-59055647D01*
X51726452Y-59054203D01*
X51723633Y-59052778D01*
X51720804Y-59051370D01*
X51717969Y-59049981D01*
X51715123Y-59048609D01*
X51712271Y-59047257D01*
X51709409Y-59045922D01*
X51706540Y-59044606D01*
X51703662Y-59043308D01*
X51700778Y-59042029D01*
X51697885Y-59040768D01*
X51694985Y-59039526D01*
X51692077Y-59038302D01*
X51689163Y-59037098D01*
X51686239Y-59035911D01*
X51683311Y-59034743D01*
X51680373Y-59033594D01*
X51677431Y-59032464D01*
X51674479Y-59031353D01*
X51671523Y-59030261D01*
X51668558Y-59029187D01*
X51665589Y-59028132D01*
X51662611Y-59027096D01*
X51659629Y-59026080D01*
X51656639Y-59025082D01*
X51653644Y-59024104D01*
X51650641Y-59023144D01*
X51647635Y-59022204D01*
X51644620Y-59021282D01*
X51641602Y-59020380D01*
X51638576Y-59019497D01*
X51635547Y-59018634D01*
X51632510Y-59017789D01*
X51629470Y-59016964D01*
X51626422Y-59016158D01*
X51623371Y-59015372D01*
X51620313Y-59014605D01*
X51617252Y-59013857D01*
X51614184Y-59013129D01*
X51611113Y-59012420D01*
X51608035Y-59011731D01*
X51604955Y-59011061D01*
X51601868Y-59010410D01*
X51598779Y-59009780D01*
X51595683Y-59009168D01*
X51592585Y-59008577D01*
X51589480Y-59008004D01*
X51586374Y-59007452D01*
X51583261Y-59006919D01*
X51580146Y-59006405D01*
X51577026Y-59005912D01*
X51573903Y-59005438D01*
X51570775Y-59004983D01*
X51567645Y-59004549D01*
X51564509Y-59004134D01*
X51561372Y-59003739D01*
X51558229Y-59003363D01*
X51555085Y-59003008D01*
X51551935Y-59002672D01*
X51548785Y-59002356D01*
X51545629Y-59002060D01*
X51542472Y-59001783D01*
X51539310Y-59001527D01*
X51536147Y-59001290D01*
X51532979Y-59001073D01*
X51529810Y-59000876D01*
X51526636Y-59000699D01*
X51523462Y-59000542D01*
X51520283Y-59000405D01*
X51517103Y-59000288D01*
X51513919Y-59000191D01*
X51510735Y-59000113D01*
X51507546Y-59000056D01*
X51504357Y-59000019D01*
X51501163Y-59000001D01*
X51500000Y-59000000D01*
M02*
