%TF.GenerationSoftware,KiCad,Pcbnew,9.0.4*%
%TF.CreationDate,2026-04-28T11:06:59+09:00*%
%TF.ProjectId,pisic,70697369-632e-46b6-9963-61645f706362,rev?*%
%TF.SameCoordinates,Original*%
%TF.FileFunction,Paste,Top*%
%TF.FilePolarity,Positive*%
%FSLAX46Y46*%
G04 Gerber Fmt 4.6, Leading zero omitted, Abs format (unit mm)*
G04 Created by KiCad (PCBNEW 9.0.4) date 2026-04-28 11:06:59*
%MOMM*%
%LPD*%
G01*
G04 APERTURE LIST*
G04 Aperture macros list*
%AMRoundRect*
0 Rectangle with rounded corners*
0 $1 Rounding radius*
0 $2 $3 $4 $5 $6 $7 $8 $9 X,Y pos of 4 corners*
0 Add a 4 corners polygon primitive as box body*
4,1,4,$2,$3,$4,$5,$6,$7,$8,$9,$2,$3,0*
0 Add four circle primitives for the rounded corners*
1,1,$1+$1,$2,$3*
1,1,$1+$1,$4,$5*
1,1,$1+$1,$6,$7*
1,1,$1+$1,$8,$9*
0 Add four rect primitives between the rounded corners*
20,1,$1+$1,$2,$3,$4,$5,0*
20,1,$1+$1,$4,$5,$6,$7,0*
20,1,$1+$1,$6,$7,$8,$9,0*
20,1,$1+$1,$8,$9,$2,$3,0*%
%AMRotRect*
0 Rectangle, with rotation*
0 The origin of the aperture is its center*
0 $1 length*
0 $2 width*
0 $3 Rotation angle, in degrees counterclockwise*
0 Add horizontal line*
21,1,$1,$2,0,0,$3*%
G04 Aperture macros list end*
%ADD10R,0.940000X1.400000*%
%ADD11RotRect,2.500000X2.500000X354.000000*%
%ADD12R,2.500000X2.500000*%
%ADD13RotRect,2.500000X2.500000X357.000000*%
%ADD14R,0.850000X1.600000*%
%ADD15RoundRect,0.150000X-0.500000X0.150000X-0.500000X-0.150000X0.500000X-0.150000X0.500000X0.150000X0*%
%ADD16RoundRect,0.262500X-1.187500X0.262500X-1.187500X-0.262500X1.187500X-0.262500X1.187500X0.262500X0*%
%ADD17RotRect,2.500000X2.500000X355.500000*%
%ADD18R,1.700000X1.000000*%
%ADD19RotRect,2.500000X2.500000X87.000000*%
%ADD20RotRect,2.500000X2.500000X358.500000*%
G04 APERTURE END LIST*
D10*
%TO.C,D6*%
X145750000Y-69025000D03*
X145750000Y-65475000D03*
%TD*%
%TO.C,D11*%
X129500000Y-67819261D03*
X129500000Y-64269261D03*
%TD*%
D11*
%TO.C,SW4*%
X114200911Y-57150231D03*
X101610228Y-53272905D03*
%TD*%
D10*
%TO.C,D18*%
X63500000Y-103025000D03*
X63500000Y-99475000D03*
%TD*%
%TO.C,D21*%
X112250000Y-106025000D03*
X112250000Y-102475000D03*
%TD*%
%TO.C,D8*%
X91250000Y-65775000D03*
X91250000Y-62225000D03*
%TD*%
D12*
%TO.C,SW6*%
X141763838Y-59316807D03*
X144303837Y-46389806D03*
%TD*%
%TO.C,SW21*%
X128935838Y-115554807D03*
X116008839Y-113014806D03*
%TD*%
D10*
%TO.C,D15*%
X120000000Y-85525000D03*
X120000000Y-81975000D03*
%TD*%
%TO.C,D3*%
X98750000Y-58025000D03*
X98750000Y-54475000D03*
%TD*%
D12*
%TO.C,SW1*%
X57080000Y-43658000D03*
X54540000Y-56584999D03*
%TD*%
D10*
%TO.C,D2*%
X62750000Y-54275000D03*
X62750000Y-50725000D03*
%TD*%
D12*
%TO.C,SW20*%
X109935838Y-115554807D03*
X97008838Y-113014807D03*
%TD*%
D13*
%TO.C,SW14*%
X95555107Y-93375976D03*
X82778756Y-90162910D03*
%TD*%
%TO.C,SW5*%
X133424984Y-58356400D03*
X120648633Y-55143334D03*
%TD*%
%TO.C,SW16*%
X133424984Y-96356400D03*
X120648633Y-93143334D03*
%TD*%
D10*
%TO.C,D1*%
X60250000Y-54275000D03*
X60250000Y-50725000D03*
%TD*%
D12*
%TO.C,SW8*%
X86342000Y-73580000D03*
X73415000Y-71040000D03*
%TD*%
%TO.C,SW22*%
X150310838Y-115554807D03*
X137383836Y-113014808D03*
%TD*%
D10*
%TO.C,D12*%
X98250000Y-84275000D03*
X98250000Y-80725000D03*
%TD*%
%TO.C,D7*%
X88750000Y-65775000D03*
X88750000Y-62225000D03*
%TD*%
D12*
%TO.C,SW19*%
X81592000Y-111580000D03*
X68665000Y-109040000D03*
%TD*%
D14*
%TO.C,L1*%
X60625000Y-45250000D03*
X62375000Y-45250000D03*
X62375000Y-41750000D03*
X60625000Y-41750000D03*
%TD*%
D15*
%TO.C,SW23*%
X55450000Y-62500000D03*
X55450000Y-65500000D03*
X55450000Y-67000000D03*
X55450000Y-67000000D03*
D16*
X53500000Y-61075000D03*
X53500000Y-68425000D03*
%TD*%
D14*
%TO.C,L3*%
X63875000Y-114000000D03*
X65625000Y-114000000D03*
X65625000Y-110500000D03*
X63875000Y-110500000D03*
%TD*%
D11*
%TO.C,SW15*%
X114200911Y-95150231D03*
X101610228Y-91272905D03*
%TD*%
D17*
%TO.C,SW10*%
X123792049Y-76754100D03*
X111104184Y-73207690D03*
%TD*%
D12*
%TO.C,SW17*%
X141763838Y-97316807D03*
X144303837Y-84389806D03*
%TD*%
D10*
%TO.C,D17*%
X138750000Y-87025000D03*
X138750000Y-83475000D03*
%TD*%
D12*
%TO.C,SW2*%
X65920000Y-55342000D03*
X68459999Y-42414999D03*
%TD*%
%TO.C,SW7*%
X67342000Y-73580000D03*
X54414998Y-71040001D03*
%TD*%
D14*
%TO.C,L2*%
X136625000Y-49250000D03*
X138375000Y-49250000D03*
X138375000Y-45750000D03*
X136625000Y-45750000D03*
%TD*%
D12*
%TO.C,SW22*%
X129126838Y-105394807D03*
X142053838Y-107934807D03*
%TD*%
D10*
%TO.C,D14*%
X117500000Y-85525000D03*
X117500000Y-81975000D03*
%TD*%
D11*
%TO.C,SW9*%
X104726950Y-75155848D03*
X92136267Y-71278522D03*
%TD*%
D12*
%TO.C,SW12*%
X57080000Y-81658000D03*
X54540000Y-94584999D03*
%TD*%
D10*
%TO.C,D5*%
X137500000Y-61525000D03*
X137500000Y-57975000D03*
%TD*%
%TO.C,D22*%
X114750000Y-106025000D03*
X114750000Y-102475000D03*
%TD*%
%TO.C,D20*%
X96250000Y-106025000D03*
X96250000Y-102475000D03*
%TD*%
%TO.C,D16*%
X136250000Y-87025000D03*
X136250000Y-83475000D03*
%TD*%
%TO.C,D4*%
X118250000Y-59275000D03*
X118250000Y-55725000D03*
%TD*%
D18*
%TO.C,SW24*%
X85850000Y-80350000D03*
X92150000Y-80350000D03*
X85850000Y-84150000D03*
X92150000Y-84150000D03*
%TD*%
D14*
%TO.C,L4*%
X132875000Y-118000000D03*
X134625000Y-118000000D03*
X134625000Y-114500000D03*
X132875000Y-114500000D03*
%TD*%
D19*
%TO.C,SW3*%
X95365765Y-44429064D03*
X92152699Y-57205414D03*
%TD*%
D10*
%TO.C,D9*%
X109500000Y-67275000D03*
X109500000Y-63725000D03*
%TD*%
%TO.C,D10*%
X127000000Y-67819261D03*
X127000000Y-64269261D03*
%TD*%
D12*
%TO.C,SW13*%
X76842000Y-92580000D03*
X63915000Y-90040000D03*
%TD*%
D20*
%TO.C,SW11*%
X143041109Y-77456629D03*
X130185028Y-74579110D03*
%TD*%
D10*
%TO.C,D13*%
X100750000Y-84275000D03*
X100750000Y-80725000D03*
%TD*%
%TO.C,D19*%
X66000000Y-103025000D03*
X66000000Y-99475000D03*
%TD*%
D12*
%TO.C,SW18*%
X59455000Y-100658000D03*
X56915000Y-113584999D03*
%TD*%
M02*
