M48
; DRILL file {KiCad 9.0.4} date 2026-04-28T13:32:09+0900
; FORMAT={-:-/ absolute / metric / decimal}
; #@! TF.CreationDate,2026-04-28T13:32:09+09:00
; #@! TF.GenerationSoftware,Kicad,Pcbnew,9.0.4
; #@! TF.FileFunction,Plated,1,2,PTH
FMAT,2
METRIC
; #@! TA.AperFunction,Plated,PTH,ViaDrill
T1C0.300
; #@! TA.AperFunction,Plated,PTH,ComponentDrill
T2C0.300
; #@! TA.AperFunction,Plated,PTH,ComponentDrill
T3C0.500
; #@! TA.AperFunction,Plated,PTH,ViaDrill
T4C0.600
; #@! TA.AperFunction,Plated,PTH,ComponentDrill
T5C0.813
; #@! TA.AperFunction,Plated,PTH,ComponentDrill
T6C0.900
; #@! TA.AperFunction,Plated,PTH,ComponentDrill
T7C1.000
; #@! TA.AperFunction,Plated,PTH,ComponentDrill
T8C1.100
%
G90
G05
T1
X51.25Y-90.5
X51.5Y-41.5
X51.5Y-56.0
X51.5Y-81.0
X51.5Y-114.5
X53.25Y-98.0
X55.45Y-62.5
X57.5Y-57.5
X58.5Y-62.5
X59.75Y-82.0
X59.75Y-83.75
X59.75Y-85.75
X59.75Y-88.0
X60.0Y-79.5
X60.25Y-57.75
X61.5Y-40.5
X61.5Y-43.0
X61.5Y-44.0
X61.5Y-46.5
X61.75Y-82.0
X62.5Y-57.75
X62.75Y-79.5
X63.75Y-82.0
X64.75Y-109.25
X64.75Y-111.75
X64.75Y-112.75
X64.75Y-115.25
X65.0Y-67.5
X65.25Y-79.5
X66.25Y-62.5
X67.25Y-82.0
X67.549Y-79.5
X68.25Y-65.75
X69.75Y-79.5
X71.75Y-62.5
X71.75Y-83.75
X72.25Y-67.5
X73.25Y-62.5
X73.25Y-67.5
X74.75Y-43.0
X75.0Y-57.5
X75.25Y-79.5
X75.5Y-47.0
X75.75Y-102.25
X76.0Y-51.75
X76.0Y-57.5
X77.0Y-55.25
X77.0Y-65.75
X77.0Y-67.5
X78.5Y-55.25
X79.0Y-62.5
X80.0Y-55.25
X80.0Y-57.5
X80.5Y-79.5
X81.25Y-62.5
X81.4Y-47.75
X82.5Y-57.5
X83.25Y-82.75
X83.5Y-67.5
X83.5Y-67.5
X83.5Y-114.5
X84.25Y-62.5
X84.5Y-41.0
X84.5Y-65.75
X84.5Y-67.5
X85.0Y-55.0
X85.25Y-57.5
X86.25Y-48.5
X87.0Y-75.75
X87.25Y-57.5
X89.0Y-73.75
X89.0Y-74.75
X89.0Y-75.75
X89.0Y-80.35
X89.75Y-83.75
X90.0Y-64.0
X90.75Y-77.5
X91.0Y-74.75
X93.5Y-86.25
X93.75Y-78.0
X96.0Y-118.5
X96.75Y-77.0
X101.5Y-63.0
X107.5Y-104.75
X108.0Y-76.0
X108.0Y-84.5
X111.0Y-80.5
X112.0Y-84.0
X113.0Y-84.0
X113.5Y-46.75
X117.0Y-101.5
X118.25Y-101.5
X118.5Y-65.5
X120.5Y-104.0
X122.0Y-69.5
X127.5Y-103.0
X128.0Y-49.5
X128.701Y-99.049
X130.0Y-82.0
X130.0Y-85.5
X131.75Y-83.25
X133.75Y-113.25
X133.75Y-115.75
X133.75Y-116.75
X133.75Y-119.25
X134.5Y-67.5
X134.5Y-102.0
X137.5Y-44.5
X137.5Y-47.0
X137.5Y-48.0
X137.5Y-50.5
X137.5Y-79.25
X138.5Y-102.0
X140.25Y-69.625
X141.5Y-70.75
X150.0Y-91.5
X150.5Y-45.5
X150.5Y-59.5
X150.5Y-85.5
X150.5Y-118.5
T2
X55.683Y-55.151
X55.683Y-93.151
X55.683Y-43.848
X55.683Y-81.848
X55.848Y-72.183
X58.058Y-112.151
X58.058Y-100.848
X65.349Y-91.183
X67.152Y-72.183
X67.317Y-43.848
X67.317Y-55.151
X70.099Y-110.183
X74.849Y-72.183
X76.651Y-91.183
X81.401Y-110.183
X84.15Y-91.379
X86.151Y-72.183
X93.369Y-55.834
X93.442Y-72.565
X93.961Y-44.546
X95.438Y-91.971
X98.442Y-114.158
X102.916Y-54.559
X102.916Y-92.559
X104.684Y-73.747
X109.745Y-114.158
X112.444Y-74.46
X114.157Y-55.741
X114.157Y-93.741
X117.442Y-114.158
X122.02Y-56.36
X122.02Y-94.36
X123.712Y-75.346
X128.745Y-114.158
X129.317Y-106.792
X131.588Y-75.759
X133.308Y-56.951
X133.308Y-94.951
X138.817Y-114.158
X140.62Y-106.792
X142.887Y-76.055
X143.161Y-47.823
X143.161Y-85.823
X143.161Y-59.126
X143.161Y-97.126
X150.12Y-114.158
T3
X100.065Y-45.625
X100.065Y-46.875
T4
X54.25Y-64.75
X57.0Y-67.0
X73.5Y-56.5
X101.75Y-46.25
T5
X60.25Y-48.69
X60.25Y-56.31
X62.75Y-48.69
X62.75Y-56.31
X63.5Y-97.44
X63.5Y-105.06
X66.0Y-97.44
X66.0Y-105.06
X88.75Y-60.19
X88.75Y-67.81
X91.25Y-60.19
X91.25Y-67.81
X96.25Y-100.44
X96.25Y-108.06
X98.25Y-78.69
X98.25Y-86.31
X98.75Y-52.44
X98.75Y-60.06
X100.75Y-78.69
X100.75Y-86.31
X109.5Y-61.69
X109.5Y-69.31
X112.25Y-100.44
X112.25Y-108.06
X114.75Y-100.44
X114.75Y-108.06
X117.5Y-79.94
X117.5Y-87.56
X118.25Y-53.69
X118.25Y-61.31
X120.0Y-79.94
X120.0Y-87.56
X127.0Y-62.234
X127.0Y-69.854
X129.5Y-62.234
X129.5Y-69.854
X136.25Y-81.44
X136.25Y-89.06
X137.5Y-55.94
X137.5Y-63.56
X138.75Y-81.44
X138.75Y-89.06
X145.75Y-63.44
X145.75Y-71.06
T7
X118.75Y-49.75
X119.0Y-46.25
T8
X56.28Y-60.88
X56.28Y-76.12
X58.82Y-60.88
X58.82Y-76.12
X61.36Y-60.88
X61.36Y-76.12
X63.9Y-60.88
X63.9Y-76.12
X66.44Y-60.88
X66.44Y-76.12
X68.98Y-60.88
X68.98Y-76.12
X71.52Y-60.88
X71.52Y-76.12
X74.06Y-60.88
X74.06Y-76.12
X76.6Y-60.88
X76.6Y-76.12
X79.14Y-60.88
X79.14Y-76.12
X81.68Y-60.88
X81.68Y-76.12
X84.22Y-60.88
X84.22Y-76.12
T6
G00X78.2Y-43.0
M15
G01X78.2Y-43.4
M16
G05
G00X78.2Y-46.0
M15
G01X78.2Y-46.4
M16
G05
G00X78.2Y-50.0
M15
G01X78.2Y-50.4
M16
G05
G00X78.2Y-51.1
M15
G01X78.2Y-51.5
M16
G05
G00X82.8Y-43.0
M15
G01X82.8Y-43.4
M16
G05
G00X82.8Y-46.0
M15
G01X82.8Y-46.4
M16
G05
G00X82.8Y-50.0
M15
G01X82.8Y-50.4
M16
G05
G00X82.8Y-51.1
M15
G01X82.8Y-51.5
M16
G05
M30
