M48
; DRILL file {KiCad 9.0.4} date 2026-04-28T11:07:06+0900
; FORMAT={-:-/ absolute / metric / decimal}
; #@! TF.CreationDate,2026-04-28T11:07:06+09:00
; #@! TF.GenerationSoftware,Kicad,Pcbnew,9.0.4
; #@! TF.FileFunction,NonPlated,1,2,NPTH
FMAT,2
METRIC
; #@! TA.AperFunction,NonPlated,NPTH,ComponentDrill
T1C0.800
; #@! TA.AperFunction,NonPlated,NPTH,ComponentDrill
T2C0.850
; #@! TA.AperFunction,NonPlated,NPTH,ComponentDrill
T3C1.702
; #@! TA.AperFunction,NonPlated,NPTH,ComponentDrill
T4C3.000
; #@! TA.AperFunction,NonPlated,NPTH,ComponentDrill
T5C3.048
; #@! TA.AperFunction,NonPlated,NPTH,ComponentDrill
T6C3.988
; #@! TA.AperFunction,NonPlated,NPTH,ComponentDrill
T7C4.000
%
G90
G05
T1
X80.5Y-41.6
X80.5Y-41.6
X80.5Y-48.6
X80.5Y-48.6
T2
X53.5Y-63.25
X53.5Y-63.25
X53.5Y-66.25
X53.5Y-66.25
T3
X52.0Y-54.58
X52.0Y-92.58
X52.0Y-44.42
X52.0Y-82.42
X54.375Y-111.58
X54.375Y-101.42
X56.42Y-68.5
X65.92Y-87.5
X66.58Y-68.5
X70.67Y-106.5
X71.0Y-44.42
X71.0Y-54.58
X75.42Y-68.5
X76.08Y-87.5
X80.83Y-106.5
X84.914Y-87.731
X85.58Y-68.5
X89.721Y-55.07
X90.253Y-44.924
X94.396Y-68.962
X95.06Y-88.263
X99.014Y-110.475
X103.87Y-50.956
X103.87Y-88.956
X104.5Y-70.024
X109.174Y-110.475
X113.302Y-70.833
X113.974Y-90.018
X113.974Y-52.018
X118.014Y-110.475
X122.784Y-52.712
X122.784Y-90.712
X123.431Y-71.63
X128.174Y-110.475
X129.889Y-110.475
X132.256Y-72.092
X132.93Y-91.243
X132.93Y-53.243
X139.389Y-110.475
X140.049Y-110.475
X142.412Y-72.358
X146.844Y-48.395
X146.844Y-86.395
X146.844Y-58.555
X146.844Y-96.555
X149.549Y-110.475
T4
X54.54Y-45.69
X54.54Y-83.69
X54.54Y-53.31
X54.54Y-91.31
X56.915Y-102.69
X56.915Y-110.31
X57.08Y-46.96
X57.08Y-52.04
X57.08Y-84.96
X57.08Y-90.04
X57.69Y-71.04
X58.96Y-73.58
X59.455Y-103.96
X59.455Y-109.04
X64.04Y-73.58
X65.31Y-71.04
X65.92Y-46.96
X65.92Y-52.04
X67.19Y-90.04
X68.46Y-53.31
X68.46Y-92.58
X68.46Y-45.69
X71.94Y-109.04
X73.21Y-111.58
X73.54Y-92.58
X74.81Y-90.04
X76.69Y-71.04
X77.96Y-73.58
X78.29Y-111.58
X79.56Y-109.04
X83.04Y-73.58
X84.31Y-71.04
X86.049Y-90.334
X87.185Y-92.937
X92.258Y-93.203
X92.324Y-53.935
X92.723Y-46.325
X93.659Y-90.733
X94.927Y-52.8
X95.193Y-47.727
X95.393Y-71.621
X96.391Y-74.28
X100.284Y-113.015
X101.443Y-74.811
X101.554Y-115.555
X102.972Y-72.417
X104.867Y-53.615
X104.867Y-91.615
X105.865Y-56.274
X105.865Y-94.274
X106.634Y-115.555
X107.904Y-113.015
X110.917Y-56.805
X110.917Y-94.805
X112.446Y-54.412
X112.446Y-92.412
X114.369Y-73.465
X115.436Y-76.096
X119.284Y-113.015
X120.5Y-76.495
X120.554Y-115.555
X121.966Y-74.063
X123.919Y-55.315
X123.919Y-93.315
X125.054Y-57.918
X125.054Y-95.918
X125.634Y-115.555
X126.904Y-113.015
X130.128Y-58.184
X130.128Y-96.184
X131.159Y-107.935
X131.529Y-55.714
X131.529Y-93.714
X132.429Y-105.395
X133.459Y-74.665
X134.662Y-77.237
X137.509Y-105.395
X138.779Y-107.935
X139.74Y-77.37
X140.659Y-113.015
X141.076Y-74.864
X141.764Y-50.935
X141.764Y-56.015
X141.764Y-88.935
X141.764Y-94.015
X141.929Y-115.555
X144.304Y-57.285
X144.304Y-95.285
X144.304Y-49.665
X144.304Y-87.665
X147.009Y-115.555
X148.279Y-113.015
T5
X123.031Y-103.49
X146.907Y-103.49
T6
X123.031Y-118.73
X146.907Y-118.73
T7
X52.0Y-49.5
X52.0Y-87.5
X54.375Y-106.5
X61.5Y-68.5
X71.0Y-49.5
X71.0Y-87.5
X75.75Y-106.5
X80.5Y-68.5
X89.987Y-49.997
X89.987Y-87.997
X99.448Y-69.493
X104.094Y-110.475
X108.922Y-51.487
X108.922Y-89.487
X118.367Y-71.231
X123.094Y-110.475
X127.857Y-52.978
X127.857Y-90.978
X134.969Y-110.475
X137.334Y-72.225
X144.469Y-110.475
X146.844Y-53.475
X146.844Y-91.475
M30
